<svg xmlns="http://www.w3.org/2000/svg" xmlns:xlink="http://www.w3.org/1999/xlink" xmlns:s="https://github.com/nturley/netlistsvg" width="242" height="246">
  <style>svg {
    stroke:#000;
    fill:none;
  }
  text {
    fill:#000;
    stroke:none;
    font-size:10px;
    font-weight: bold;
    font-family: "Courier New", monospace;
  }
  .nodelabel {
    text-anchor: middle;
  }
  .inputPortLabel {
    text-anchor: end;
  }
  .splitjoinBody {
    fill:#000;
  }</style>
  <g s:type="inputExt" transform="translate(12,164.5)" s:width="30" s:height="20" id="cell_A">
    <text x="15" y="-4" class="nodelabel cell_A" s:attribute="ref">A</text>
    <s:alias val="$_inputExt_"/>
    <path d="M0,0 L0,20 L15,20 L30,10 L15,0 Z" class="cell_A"/>
    <g s:x="28" s:y="10" s:pid="Y"/>
  </g>
  <g s:type="inputExt" transform="translate(12,89.5)" s:width="30" s:height="20" id="cell_B">
    <text x="15" y="-4" class="nodelabel cell_B" s:attribute="ref">B</text>
    <s:alias val="$_inputExt_"/>
    <path d="M0,0 L0,20 L15,20 L30,10 L15,0 Z" class="cell_B"/>
    <g s:x="28" s:y="10" s:pid="Y"/>
  </g>
  <g s:type="outputExt" transform="translate(200,65)" s:width="30" s:height="20" id="cell_O">
    <text x="15" y="-4" class="nodelabel cell_O" s:attribute="ref">O</text>
    <s:alias val="$_outputExt_"/>
    <path d="M30,0 L30,20 L15,20 L0,10 L15,0 Z" class="cell_O"/>
    <g s:x="0" s:y="10" s:pid="A"/>
  </g>
  <g s:type="constant" transform="translate(77,22)" s:width="30" s:height="20" id="cell_0">
    <text x="15" y="-4" class="nodelabel cell_0" s:attribute="ref">0</text>
    <s:alias val="$_constant_"/>
    <rect width="30" height="20" class="cell_0"/>
    <g s:x="30" s:y="10" s:pid="Y"/>
  </g>
  <g s:type="join" transform="translate(157,54.5)" s:width="4" s:height="40" id="cell_$join$,18,3,7,13,7,16,8,9,9,">
    <rect width="5" height="160" class="splitjoinBody" s:generic="body"/>
    <s:alias val="$_join_"/>
    <g s:x="5" s:y="20" s:pid="out"/>
    <g transform="translate(0,10)" s:x="0" s:y="10" s:pid="in0">
      <text x="-3" y="-4" class="inputPortLabel">0</text>
    </g>
    <g transform="translate(0,30)" s:x="0" s:y="10" s:pid="in0">
      <text x="-3" y="-4" class="inputPortLabel">1</text>
    </g>
    <g transform="translate(0,50)" s:x="0" s:y="10" s:pid="in0">
      <text x="-3" y="-4" class="inputPortLabel">2</text>
    </g>
    <g transform="translate(0,70)" s:x="0" s:y="10" s:pid="in0">
      <text x="-3" y="-4" class="inputPortLabel">3</text>
    </g>
    <g transform="translate(0,90)" s:x="0" s:y="10" s:pid="in0">
      <text x="-3" y="-4" class="inputPortLabel">4</text>
    </g>
    <g transform="translate(0,110)" s:x="0" s:y="10" s:pid="in0">
      <text x="-3" y="-4" class="inputPortLabel">5</text>
    </g>
    <g transform="translate(0,130)" s:x="0" s:y="10" s:pid="in0">
      <text x="-3" y="-4" class="inputPortLabel">6:7</text>
    </g>
    <g transform="translate(0,150)" s:x="0" s:y="10" s:pid="in0">
      <text x="-3" y="-4" class="inputPortLabel">8</text>
    </g>
  </g>
  <g s:type="split" transform="translate(92.8,154)" s:width="5" s:height="40" id="cell_$split$,2,3,4,5,6,7,8,9,">
    <rect width="5" height="80" class="splitjoinBody" s:generic="body"/>
    <s:alias val="$_split_"/>
    <g s:x="0" s:y="20" s:pid="in"/>
    <g transform="translate(4,10)" s:x="4" s:y="10" s:pid="out0">
      <text x="5" y="-4">1</text>
    </g>
    <g transform="translate(4,30)" s:x="4" s:y="10" s:pid="out0">
      <text x="5" y="-4">5</text>
    </g>
    <g transform="translate(4,50)" s:x="4" s:y="10" s:pid="out0">
      <text x="5" y="-4">6:7</text>
    </g>
    <g transform="translate(4,70)" s:x="4" s:y="10" s:pid="out0">
      <text x="5" y="-4">7</text>
    </g>
  </g>
  <g s:type="split" transform="translate(91.33333333333333,79)" s:width="5" s:height="40" id="cell_$split$,10,11,12,13,14,15,16,17,">
    <rect width="5" height="40" class="splitjoinBody" s:generic="body"/>
    <s:alias val="$_split_"/>
    <g s:x="0" s:y="20" s:pid="in"/>
    <g transform="translate(4,10)" s:x="4" s:y="10" s:pid="out0">
      <text x="5" y="-4">3</text>
    </g>
    <g transform="translate(4,30)" s:x="4" s:y="10" s:pid="out0">
      <text x="5" y="-4">6</text>
    </g>
  </g>
  <line x1="163" x2="200" y1="75" y2="75" class="net_18,3,7,13,7,16,8,9,9"/>
  <line x1="107" x2="157.5" y1="32" y2="32" class="net_18"/>
  <line x1="157.5" x2="157.5" y1="32" y2="64.5" class="net_18"/>
  <line x1="97.8" x2="117" y1="164.5" y2="164.5" class="net_3"/>
  <line x1="117" x2="117" y1="164.5" y2="85" class="net_3"/>
  <line x1="117" x2="157" y1="85" y2="85" class="net_3"/>
  <line x1="97.8" x2="137" y1="184.5" y2="184.5" class="net_7"/>
  <line x1="137" x2="137" y1="184.5" y2="105" class="net_7"/>
  <line x1="137" x2="157" y1="105" y2="105" class="net_7"/>
  <line x1="97.8" x2="137" y1="184.5" y2="184.5" class="net_7"/>
  <line x1="137" x2="137" y1="184.5" y2="145" class="net_7"/>
  <circle cx="137" cy="145" r="2" style="fill:#000" class="net_7"/>
  <line x1="137" x2="157" y1="145" y2="145" class="net_7"/>
  <line x1="96.33333333333333" x2="147" y1="89.5" y2="89.5" class="net_13"/>
  <line x1="147" x2="147" y1="89.5" y2="125" class="net_13"/>
  <line x1="147" x2="157" y1="125" y2="125" class="net_13"/>
  <line x1="96.33333333333333" x2="127" y1="109.5" y2="109.5" class="net_16"/>
  <line x1="127" x2="127" y1="109.5" y2="165" class="net_16"/>
  <line x1="127" x2="157" y1="165" y2="165" class="net_16"/>
  <line x1="97.8" x2="147" y1="204.5" y2="204.5" class="net_8,9"/>
  <line x1="147" x2="147" y1="204.5" y2="185" class="net_8,9"/>
  <line x1="147" x2="157" y1="185" y2="185" class="net_8,9"/>
  <line x1="97.8" x2="157.5" y1="224.5" y2="224.5" class="net_9"/>
  <line x1="157.5" x2="157.5" y1="224.5" y2="205.5" class="net_9"/>
  <line x1="40" x2="92.8" y1="174.5" y2="174.5" class="net_2,3,4,5,6,7,8,9"/>
  <line x1="40" x2="91.33333333333333" y1="99.5" y2="99.5" class="net_10,11,12,13,14,15,16,17"/>
</svg>
