<svg xmlns="http://www.w3.org/2000/svg" xmlns:xlink="http://www.w3.org/1999/xlink" xmlns:s="https://github.com/nturley/netlistsvg" width="1437" height="1137"><style>svg {
  stroke:#000;
  fill:none;
}
text {
  fill:#000;
  stroke:none;
  font-size:10px;
  font-weight: bold;
  font-family: "Courier New", monospace;
}
line {
    stroke-linecap: round;
}
.nodelabel {
  text-anchor: middle;
}
.inputPortLabel {
  text-anchor: end;
}
.splitjoinBody {
  fill:#000;
}</style><g s:type="and" transform="translate(269,359)" s:width="30" s:height="25" id="cell_$abc$223$auto$blifparse.cc:396:parse_blif$224"><s:alias val="$and"/><s:alias val="$logic_and"/><s:alias val="$_AND_"/><s:alias val="$reduce_and"/><path d="M0,0 L0,25 L15,25 A15 12.5 0 0 0 15,0 Z" class="cell_$abc$223$auto$blifparse.cc:396:parse_blif$224"/><g s:x="0" s:y="5" s:pid="A"/><g s:x="0" s:y="20" s:pid="B"/><g s:x="30" s:y="12.5" s:pid="Y"/></g><g s:type="reduce_xor" transform="translate(1236.6666666666667,12)" s:width="33" s:height="25" id="cell_$abc$223$auto$blifparse.cc:396:parse_blif$225"><s:alias val="$xor"/><s:alias val="$reduce_xor"/><s:alias val="$_XOR_"/><path d="M3,0 A30 25 0 0 1 3,25 A30 25 0 0 0 33,12.5 A30 25 0 0 0 3,0" class="cell_$abc$223$auto$blifparse.cc:396:parse_blif$225"/><path d="M0,0 A30 25 0 0 1 0,25" class="cell_$abc$223$auto$blifparse.cc:396:parse_blif$225"/><g s:x="2" s:y="5" s:pid="A"/><g s:x="2" s:y="20" s:pid="B"/><g s:x="33" s:y="12.5" s:pid="Y"/></g><g s:type="nand" transform="translate(341,389)" s:width="30" s:height="25" id="cell_$abc$223$auto$blifparse.cc:396:parse_blif$226"><s:alias val="$nand"/><s:alias val="$logic_nand"/><s:alias val="$_NAND_"/><path d="M0,0 L0,25 L15,25 A15 12.5 0 0 0 15,0 Z" class="cell_$abc$223$auto$blifparse.cc:396:parse_blif$226"/><circle cx="34" cy="12.5" r="3" class="cell_$abc$223$auto$blifparse.cc:396:parse_blif$226"/><g s:x="0" s:y="5" s:pid="A"/><g s:x="0" s:y="20" s:pid="B"/><g s:x="36" s:y="12.5" s:pid="Y"/></g><g s:type="reduce_xor" transform="translate(268,456.5)" s:width="33" s:height="25" id="cell_$abc$223$auto$blifparse.cc:396:parse_blif$227"><s:alias val="$xor"/><s:alias val="$reduce_xor"/><s:alias val="$_XOR_"/><path d="M3,0 A30 25 0 0 1 3,25 A30 25 0 0 0 33,12.5 A30 25 0 0 0 3,0" class="cell_$abc$223$auto$blifparse.cc:396:parse_blif$227"/><path d="M0,0 A30 25 0 0 1 0,25" class="cell_$abc$223$auto$blifparse.cc:396:parse_blif$227"/><g s:x="2" s:y="5" s:pid="A"/><g s:x="2" s:y="20" s:pid="B"/><g s:x="33" s:y="12.5" s:pid="Y"/></g><g s:type="nand" transform="translate(341,449)" s:width="30" s:height="25" id="cell_$abc$223$auto$blifparse.cc:396:parse_blif$228"><s:alias val="$nand"/><s:alias val="$logic_nand"/><s:alias val="$_NAND_"/><path d="M0,0 L0,25 L15,25 A15 12.5 0 0 0 15,0 Z" class="cell_$abc$223$auto$blifparse.cc:396:parse_blif$228"/><circle cx="34" cy="12.5" r="3" class="cell_$abc$223$auto$blifparse.cc:396:parse_blif$228"/><g s:x="0" s:y="5" s:pid="A"/><g s:x="0" s:y="20" s:pid="B"/><g s:x="36" s:y="12.5" s:pid="Y"/></g><g s:type="reduce_xor" transform="translate(1236.6666666666667,72)" s:width="33" s:height="25" id="cell_$abc$223$auto$blifparse.cc:396:parse_blif$229"><s:alias val="$xor"/><s:alias val="$reduce_xor"/><s:alias val="$_XOR_"/><path d="M3,0 A30 25 0 0 1 3,25 A30 25 0 0 0 33,12.5 A30 25 0 0 0 3,0" class="cell_$abc$223$auto$blifparse.cc:396:parse_blif$229"/><path d="M0,0 A30 25 0 0 1 0,25" class="cell_$abc$223$auto$blifparse.cc:396:parse_blif$229"/><g s:x="2" s:y="5" s:pid="A"/><g s:x="2" s:y="20" s:pid="B"/><g s:x="33" s:y="12.5" s:pid="Y"/></g><g s:type="nand" transform="translate(412,441.5)" s:width="30" s:height="25" id="cell_$abc$223$auto$blifparse.cc:396:parse_blif$230"><s:alias val="$nand"/><s:alias val="$logic_nand"/><s:alias val="$_NAND_"/><path d="M0,0 L0,25 L15,25 A15 12.5 0 0 0 15,0 Z" class="cell_$abc$223$auto$blifparse.cc:396:parse_blif$230"/><circle cx="34" cy="12.5" r="3" class="cell_$abc$223$auto$blifparse.cc:396:parse_blif$230"/><g s:x="0" s:y="5" s:pid="A"/><g s:x="0" s:y="20" s:pid="B"/><g s:x="36" s:y="12.5" s:pid="Y"/></g><g s:type="nand" transform="translate(488,513.5)" s:width="30" s:height="25" id="cell_$abc$223$auto$blifparse.cc:396:parse_blif$231"><s:alias val="$nand"/><s:alias val="$logic_nand"/><s:alias val="$_NAND_"/><path d="M0,0 L0,25 L15,25 A15 12.5 0 0 0 15,0 Z" class="cell_$abc$223$auto$blifparse.cc:396:parse_blif$231"/><circle cx="34" cy="12.5" r="3" class="cell_$abc$223$auto$blifparse.cc:396:parse_blif$231"/><g s:x="0" s:y="5" s:pid="A"/><g s:x="0" s:y="20" s:pid="B"/><g s:x="36" s:y="12.5" s:pid="Y"/></g><g s:type="reduce_xor" transform="translate(413,581)" s:width="33" s:height="25" id="cell_$abc$223$auto$blifparse.cc:396:parse_blif$232"><s:alias val="$xor"/><s:alias val="$reduce_xor"/><s:alias val="$_XOR_"/><path d="M3,0 A30 25 0 0 1 3,25 A30 25 0 0 0 33,12.5 A30 25 0 0 0 3,0" class="cell_$abc$223$auto$blifparse.cc:396:parse_blif$232"/><path d="M0,0 A30 25 0 0 1 0,25" class="cell_$abc$223$auto$blifparse.cc:396:parse_blif$232"/><g s:x="2" s:y="5" s:pid="A"/><g s:x="2" s:y="20" s:pid="B"/><g s:x="33" s:y="12.5" s:pid="Y"/></g><g s:type="nand" transform="translate(488,573.5)" s:width="30" s:height="25" id="cell_$abc$223$auto$blifparse.cc:396:parse_blif$233"><s:alias val="$nand"/><s:alias val="$logic_nand"/><s:alias val="$_NAND_"/><path d="M0,0 L0,25 L15,25 A15 12.5 0 0 0 15,0 Z" class="cell_$abc$223$auto$blifparse.cc:396:parse_blif$233"/><circle cx="34" cy="12.5" r="3" class="cell_$abc$223$auto$blifparse.cc:396:parse_blif$233"/><g s:x="0" s:y="5" s:pid="A"/><g s:x="0" s:y="20" s:pid="B"/><g s:x="36" s:y="12.5" s:pid="Y"/></g><g s:type="reduce_xor" transform="translate(1236.6666666666667,132)" s:width="33" s:height="25" id="cell_$abc$223$auto$blifparse.cc:396:parse_blif$234"><s:alias val="$xor"/><s:alias val="$reduce_xor"/><s:alias val="$_XOR_"/><path d="M3,0 A30 25 0 0 1 3,25 A30 25 0 0 0 33,12.5 A30 25 0 0 0 3,0" class="cell_$abc$223$auto$blifparse.cc:396:parse_blif$234"/><path d="M0,0 A30 25 0 0 1 0,25" class="cell_$abc$223$auto$blifparse.cc:396:parse_blif$234"/><g s:x="2" s:y="5" s:pid="A"/><g s:x="2" s:y="20" s:pid="B"/><g s:x="33" s:y="12.5" s:pid="Y"/></g><g s:type="nand" transform="translate(559,566)" s:width="30" s:height="25" id="cell_$abc$223$auto$blifparse.cc:396:parse_blif$235"><s:alias val="$nand"/><s:alias val="$logic_nand"/><s:alias val="$_NAND_"/><path d="M0,0 L0,25 L15,25 A15 12.5 0 0 0 15,0 Z" class="cell_$abc$223$auto$blifparse.cc:396:parse_blif$235"/><circle cx="34" cy="12.5" r="3" class="cell_$abc$223$auto$blifparse.cc:396:parse_blif$235"/><g s:x="0" s:y="5" s:pid="A"/><g s:x="0" s:y="20" s:pid="B"/><g s:x="36" s:y="12.5" s:pid="Y"/></g><g s:type="nand" transform="translate(645,558.5)" s:width="30" s:height="25" id="cell_$abc$223$auto$blifparse.cc:396:parse_blif$236"><s:alias val="$nand"/><s:alias val="$logic_nand"/><s:alias val="$_NAND_"/><path d="M0,0 L0,25 L15,25 A15 12.5 0 0 0 15,0 Z" class="cell_$abc$223$auto$blifparse.cc:396:parse_blif$236"/><circle cx="34" cy="12.5" r="3" class="cell_$abc$223$auto$blifparse.cc:396:parse_blif$236"/><g s:x="0" s:y="5" s:pid="A"/><g s:x="0" s:y="20" s:pid="B"/><g s:x="36" s:y="12.5" s:pid="Y"/></g><g s:type="reduce_xor" transform="translate(560,626)" s:width="33" s:height="25" id="cell_$abc$223$auto$blifparse.cc:396:parse_blif$237"><s:alias val="$xor"/><s:alias val="$reduce_xor"/><s:alias val="$_XOR_"/><path d="M3,0 A30 25 0 0 1 3,25 A30 25 0 0 0 33,12.5 A30 25 0 0 0 3,0" class="cell_$abc$223$auto$blifparse.cc:396:parse_blif$237"/><path d="M0,0 A30 25 0 0 1 0,25" class="cell_$abc$223$auto$blifparse.cc:396:parse_blif$237"/><g s:x="2" s:y="5" s:pid="A"/><g s:x="2" s:y="20" s:pid="B"/><g s:x="33" s:y="12.5" s:pid="Y"/></g><g s:type="nand" transform="translate(645,618.5)" s:width="30" s:height="25" id="cell_$abc$223$auto$blifparse.cc:396:parse_blif$238"><s:alias val="$nand"/><s:alias val="$logic_nand"/><s:alias val="$_NAND_"/><path d="M0,0 L0,25 L15,25 A15 12.5 0 0 0 15,0 Z" class="cell_$abc$223$auto$blifparse.cc:396:parse_blif$238"/><circle cx="34" cy="12.5" r="3" class="cell_$abc$223$auto$blifparse.cc:396:parse_blif$238"/><g s:x="0" s:y="5" s:pid="A"/><g s:x="0" s:y="20" s:pid="B"/><g s:x="36" s:y="12.5" s:pid="Y"/></g><g s:type="reduce_xor" transform="translate(1236.6666666666667,192)" s:width="33" s:height="25" id="cell_$abc$223$auto$blifparse.cc:396:parse_blif$239"><s:alias val="$xor"/><s:alias val="$reduce_xor"/><s:alias val="$_XOR_"/><path d="M3,0 A30 25 0 0 1 3,25 A30 25 0 0 0 33,12.5 A30 25 0 0 0 3,0" class="cell_$abc$223$auto$blifparse.cc:396:parse_blif$239"/><path d="M0,0 A30 25 0 0 1 0,25" class="cell_$abc$223$auto$blifparse.cc:396:parse_blif$239"/><g s:x="2" s:y="5" s:pid="A"/><g s:x="2" s:y="20" s:pid="B"/><g s:x="33" s:y="12.5" s:pid="Y"/></g><g s:type="and" transform="translate(718,611)" s:width="30" s:height="25" id="cell_$abc$223$auto$blifparse.cc:396:parse_blif$240"><s:alias val="$and"/><s:alias val="$logic_and"/><s:alias val="$_AND_"/><s:alias val="$reduce_and"/><path d="M0,0 L0,25 L15,25 A15 12.5 0 0 0 15,0 Z" class="cell_$abc$223$auto$blifparse.cc:396:parse_blif$240"/><g s:x="0" s:y="5" s:pid="A"/><g s:x="0" s:y="20" s:pid="B"/><g s:x="30" s:y="12.5" s:pid="Y"/></g><g s:type="or" transform="translate(804,663)" s:width="30" s:height="25" id="cell_$abc$223$auto$blifparse.cc:396:parse_blif$241"><s:alias val="$or"/><s:alias val="$logic_or"/><s:alias val="$_OR_"/><s:alias val="$reduce_or"/><s:alias val="$reduce_bool"/><path d="M0,0 A30 25 0 0 1 0,25 A30 25 0 0 0 30,12.5 A30 25 0 0 0 0,0" class="cell_$abc$223$auto$blifparse.cc:396:parse_blif$241"/><g s:x="2" s:y="5" s:pid="A"/><g s:x="2" s:y="20" s:pid="B"/><g s:x="30" s:y="12.5" s:pid="Y"/></g><g s:type="nand" transform="translate(716,694)" s:width="30" s:height="25" id="cell_$abc$223$auto$blifparse.cc:396:parse_blif$242"><s:alias val="$nand"/><s:alias val="$logic_nand"/><s:alias val="$_NAND_"/><path d="M0,0 L0,25 L15,25 A15 12.5 0 0 0 15,0 Z" class="cell_$abc$223$auto$blifparse.cc:396:parse_blif$242"/><circle cx="34" cy="12.5" r="3" class="cell_$abc$223$auto$blifparse.cc:396:parse_blif$242"/><g s:x="0" s:y="5" s:pid="A"/><g s:x="0" s:y="20" s:pid="B"/><g s:x="36" s:y="12.5" s:pid="Y"/></g><g s:type="and" transform="translate(1166,259.5)" s:width="30" s:height="25" id="cell_$abc$223$auto$blifparse.cc:396:parse_blif$243"><s:alias val="$and"/><s:alias val="$logic_and"/><s:alias val="$_AND_"/><s:alias val="$reduce_and"/><path d="M0,0 L0,25 L15,25 A15 12.5 0 0 0 15,0 Z" class="cell_$abc$223$auto$blifparse.cc:396:parse_blif$243"/><g s:x="0" s:y="5" s:pid="A"/><g s:x="0" s:y="20" s:pid="B"/><g s:x="30" s:y="12.5" s:pid="Y"/></g><g s:type="reduce_nxor" transform="translate(1235,252)" s:width="33" s:height="25" id="cell_$abc$223$auto$blifparse.cc:396:parse_blif$244"><s:alias val="$xnor"/><s:alias val="$reduce_xnor"/><s:alias val="$_XNOR_"/><path d="M3,0 A30 25 0 0 1 3,25 A30 25 0 0 0 33,12.5 A30 25 0 0 0 3,0" class="cell_$abc$223$auto$blifparse.cc:396:parse_blif$244"/><path d="M0,0 A30 25 0 0 1 0,25" class="cell_$abc$223$auto$blifparse.cc:396:parse_blif$244"/><circle cx="36" cy="12.5" r="3" class="cell_$abc$223$auto$blifparse.cc:396:parse_blif$244"/><g s:x="2" s:y="5" s:pid="A"/><g s:x="2" s:y="20" s:pid="B"/><g s:x="38" s:y="12.5" s:pid="Y"/></g><g s:type="nand" transform="translate(946,343)" s:width="30" s:height="25" id="cell_$abc$223$auto$blifparse.cc:396:parse_blif$245"><s:alias val="$nand"/><s:alias val="$logic_nand"/><s:alias val="$_NAND_"/><path d="M0,0 L0,25 L15,25 A15 12.5 0 0 0 15,0 Z" class="cell_$abc$223$auto$blifparse.cc:396:parse_blif$245"/><circle cx="34" cy="12.5" r="3" class="cell_$abc$223$auto$blifparse.cc:396:parse_blif$245"/><g s:x="0" s:y="5" s:pid="A"/><g s:x="0" s:y="20" s:pid="B"/><g s:x="36" s:y="12.5" s:pid="Y"/></g><g s:type="reduce_xor" transform="translate(873,720)" s:width="33" s:height="25" id="cell_$abc$223$auto$blifparse.cc:396:parse_blif$246"><s:alias val="$xor"/><s:alias val="$reduce_xor"/><s:alias val="$_XOR_"/><path d="M3,0 A30 25 0 0 1 3,25 A30 25 0 0 0 33,12.5 A30 25 0 0 0 3,0" class="cell_$abc$223$auto$blifparse.cc:396:parse_blif$246"/><path d="M0,0 A30 25 0 0 1 0,25" class="cell_$abc$223$auto$blifparse.cc:396:parse_blif$246"/><g s:x="2" s:y="5" s:pid="A"/><g s:x="2" s:y="20" s:pid="B"/><g s:x="33" s:y="12.5" s:pid="Y"/></g><g s:type="nand" transform="translate(802,787.5)" s:width="30" s:height="25" id="cell_$abc$223$auto$blifparse.cc:396:parse_blif$247"><s:alias val="$nand"/><s:alias val="$logic_nand"/><s:alias val="$_NAND_"/><path d="M0,0 L0,25 L15,25 A15 12.5 0 0 0 15,0 Z" class="cell_$abc$223$auto$blifparse.cc:396:parse_blif$247"/><circle cx="34" cy="12.5" r="3" class="cell_$abc$223$auto$blifparse.cc:396:parse_blif$247"/><g s:x="0" s:y="5" s:pid="A"/><g s:x="0" s:y="20" s:pid="B"/><g s:x="36" s:y="12.5" s:pid="Y"/></g><g s:type="and" transform="translate(874,780)" s:width="30" s:height="25" id="cell_$abc$223$auto$blifparse.cc:396:parse_blif$248"><s:alias val="$and"/><s:alias val="$logic_and"/><s:alias val="$_AND_"/><s:alias val="$reduce_and"/><path d="M0,0 L0,25 L15,25 A15 12.5 0 0 0 15,0 Z" class="cell_$abc$223$auto$blifparse.cc:396:parse_blif$248"/><g s:x="0" s:y="5" s:pid="A"/><g s:x="0" s:y="20" s:pid="B"/><g s:x="30" s:y="12.5" s:pid="Y"/></g><g s:type="nand" transform="translate(946,772.5)" s:width="30" s:height="25" id="cell_$abc$223$auto$blifparse.cc:396:parse_blif$249"><s:alias val="$nand"/><s:alias val="$logic_nand"/><s:alias val="$_NAND_"/><path d="M0,0 L0,25 L15,25 A15 12.5 0 0 0 15,0 Z" class="cell_$abc$223$auto$blifparse.cc:396:parse_blif$249"/><circle cx="34" cy="12.5" r="3" class="cell_$abc$223$auto$blifparse.cc:396:parse_blif$249"/><g s:x="0" s:y="5" s:pid="A"/><g s:x="0" s:y="20" s:pid="B"/><g s:x="36" s:y="12.5" s:pid="Y"/></g><g s:type="reduce_xor" transform="translate(1236.6666666666667,312)" s:width="33" s:height="25" id="cell_$abc$223$auto$blifparse.cc:396:parse_blif$250"><s:alias val="$xor"/><s:alias val="$reduce_xor"/><s:alias val="$_XOR_"/><path d="M3,0 A30 25 0 0 1 3,25 A30 25 0 0 0 33,12.5 A30 25 0 0 0 3,0" class="cell_$abc$223$auto$blifparse.cc:396:parse_blif$250"/><path d="M0,0 A30 25 0 0 1 0,25" class="cell_$abc$223$auto$blifparse.cc:396:parse_blif$250"/><g s:x="2" s:y="5" s:pid="A"/><g s:x="2" s:y="20" s:pid="B"/><g s:x="33" s:y="12.5" s:pid="Y"/></g><g s:type="and" transform="translate(1019,765)" s:width="30" s:height="25" id="cell_$abc$223$auto$blifparse.cc:396:parse_blif$251"><s:alias val="$and"/><s:alias val="$logic_and"/><s:alias val="$_AND_"/><s:alias val="$reduce_and"/><path d="M0,0 L0,25 L15,25 A15 12.5 0 0 0 15,0 Z" class="cell_$abc$223$auto$blifparse.cc:396:parse_blif$251"/><g s:x="0" s:y="5" s:pid="A"/><g s:x="0" s:y="20" s:pid="B"/><g s:x="30" s:y="12.5" s:pid="Y"/></g><g s:type="or" transform="translate(1095,799.5)" s:width="30" s:height="25" id="cell_$abc$223$auto$blifparse.cc:396:parse_blif$252"><s:alias val="$or"/><s:alias val="$logic_or"/><s:alias val="$_OR_"/><s:alias val="$reduce_or"/><s:alias val="$reduce_bool"/><path d="M0,0 A30 25 0 0 1 0,25 A30 25 0 0 0 30,12.5 A30 25 0 0 0 0,0" class="cell_$abc$223$auto$blifparse.cc:396:parse_blif$252"/><g s:x="2" s:y="5" s:pid="A"/><g s:x="2" s:y="20" s:pid="B"/><g s:x="30" s:y="12.5" s:pid="Y"/></g><g s:type="nand" transform="translate(1017,882)" s:width="30" s:height="25" id="cell_$abc$223$auto$blifparse.cc:396:parse_blif$253"><s:alias val="$nand"/><s:alias val="$logic_nand"/><s:alias val="$_NAND_"/><path d="M0,0 L0,25 L15,25 A15 12.5 0 0 0 15,0 Z" class="cell_$abc$223$auto$blifparse.cc:396:parse_blif$253"/><circle cx="34" cy="12.5" r="3" class="cell_$abc$223$auto$blifparse.cc:396:parse_blif$253"/><g s:x="0" s:y="5" s:pid="A"/><g s:x="0" s:y="20" s:pid="B"/><g s:x="36" s:y="12.5" s:pid="Y"/></g><g s:type="and" transform="translate(1166,807)" s:width="30" s:height="25" id="cell_$abc$223$auto$blifparse.cc:396:parse_blif$254"><s:alias val="$and"/><s:alias val="$logic_and"/><s:alias val="$_AND_"/><s:alias val="$reduce_and"/><path d="M0,0 L0,25 L15,25 A15 12.5 0 0 0 15,0 Z" class="cell_$abc$223$auto$blifparse.cc:396:parse_blif$254"/><g s:x="0" s:y="5" s:pid="A"/><g s:x="0" s:y="20" s:pid="B"/><g s:x="30" s:y="12.5" s:pid="Y"/></g><g s:type="reduce_nxor" transform="translate(1235,799.5)" s:width="33" s:height="25" id="cell_$abc$223$auto$blifparse.cc:396:parse_blif$255"><s:alias val="$xnor"/><s:alias val="$reduce_xnor"/><s:alias val="$_XNOR_"/><path d="M3,0 A30 25 0 0 1 3,25 A30 25 0 0 0 33,12.5 A30 25 0 0 0 3,0" class="cell_$abc$223$auto$blifparse.cc:396:parse_blif$255"/><path d="M0,0 A30 25 0 0 1 0,25" class="cell_$abc$223$auto$blifparse.cc:396:parse_blif$255"/><circle cx="36" cy="12.5" r="3" class="cell_$abc$223$auto$blifparse.cc:396:parse_blif$255"/><g s:x="2" s:y="5" s:pid="A"/><g s:x="2" s:y="20" s:pid="B"/><g s:x="38" s:y="12.5" s:pid="Y"/></g><g s:type="nand" transform="translate(1093,874.5)" s:width="30" s:height="25" id="cell_$abc$223$auto$blifparse.cc:396:parse_blif$256"><s:alias val="$nand"/><s:alias val="$logic_nand"/><s:alias val="$_NAND_"/><path d="M0,0 L0,25 L15,25 A15 12.5 0 0 0 15,0 Z" class="cell_$abc$223$auto$blifparse.cc:396:parse_blif$256"/><circle cx="34" cy="12.5" r="3" class="cell_$abc$223$auto$blifparse.cc:396:parse_blif$256"/><g s:x="0" s:y="5" s:pid="A"/><g s:x="0" s:y="20" s:pid="B"/><g s:x="36" s:y="12.5" s:pid="Y"/></g><g s:type="nand" transform="translate(1164,867)" s:width="30" s:height="25" id="cell_$abc$223$auto$blifparse.cc:396:parse_blif$257"><s:alias val="$nand"/><s:alias val="$logic_nand"/><s:alias val="$_NAND_"/><path d="M0,0 L0,25 L15,25 A15 12.5 0 0 0 15,0 Z" class="cell_$abc$223$auto$blifparse.cc:396:parse_blif$257"/><circle cx="34" cy="12.5" r="3" class="cell_$abc$223$auto$blifparse.cc:396:parse_blif$257"/><g s:x="0" s:y="5" s:pid="A"/><g s:x="0" s:y="20" s:pid="B"/><g s:x="36" s:y="12.5" s:pid="Y"/></g><g s:type="reduce_xor" transform="translate(1165,1100)" s:width="33" s:height="25" id="cell_$abc$223$auto$blifparse.cc:396:parse_blif$258"><s:alias val="$xor"/><s:alias val="$reduce_xor"/><s:alias val="$_XOR_"/><path d="M3,0 A30 25 0 0 1 3,25 A30 25 0 0 0 33,12.5 A30 25 0 0 0 3,0" class="cell_$abc$223$auto$blifparse.cc:396:parse_blif$258"/><path d="M0,0 A30 25 0 0 1 0,25" class="cell_$abc$223$auto$blifparse.cc:396:parse_blif$258"/><g s:x="2" s:y="5" s:pid="A"/><g s:x="2" s:y="20" s:pid="B"/><g s:x="33" s:y="12.5" s:pid="Y"/></g><g s:type="reduce_nxor" transform="translate(1235,1092.5)" s:width="33" s:height="25" id="cell_$abc$223$auto$blifparse.cc:396:parse_blif$259"><s:alias val="$xnor"/><s:alias val="$reduce_xnor"/><s:alias val="$_XNOR_"/><path d="M3,0 A30 25 0 0 1 3,25 A30 25 0 0 0 33,12.5 A30 25 0 0 0 3,0" class="cell_$abc$223$auto$blifparse.cc:396:parse_blif$259"/><path d="M0,0 A30 25 0 0 1 0,25" class="cell_$abc$223$auto$blifparse.cc:396:parse_blif$259"/><circle cx="36" cy="12.5" r="3" class="cell_$abc$223$auto$blifparse.cc:396:parse_blif$259"/><g s:x="2" s:y="5" s:pid="A"/><g s:x="2" s:y="20" s:pid="B"/><g s:x="38" s:y="12.5" s:pid="Y"/></g><g s:type="inputExt" transform="translate(12,960.5)" s:width="30" s:height="20" id="cell_A"><text x="15" y="-4" class="nodelabel cell_A" s:attribute="ref">A</text><s:alias val="$_inputExt_"/><path d="M0,0 L0,20 L15,20 L30,10 L15,0 Z" class="cell_A"/><g s:x="30" s:y="10" s:pid="Y"/></g><g s:type="inputExt" transform="translate(12,767)" s:width="30" s:height="20" id="cell_B"><text x="15" y="-4" class="nodelabel cell_B" s:attribute="ref">B</text><s:alias val="$_inputExt_"/><path d="M0,0 L0,20 L15,20 L30,10 L15,0 Z" class="cell_B"/><g s:x="30" s:y="10" s:pid="Y"/></g><g s:type="outputExt" transform="translate(1395,184.5)" s:width="30" s:height="20" id="cell_O"><text x="15" y="-4" class="nodelabel cell_O" s:attribute="ref">O</text><s:alias val="$_outputExt_"/><path d="M30,0 L30,20 L15,20 L0,10 L15,0 Z" class="cell_O"/><g s:x="0" s:y="10" s:pid="A"/></g><g s:type="join" transform="translate(1313,174)" s:width="4" s:height="40" id="cell_$join$,18,19,20,21,22,23,24,25,"><rect width="5" height="160" class="splitjoinBody" s:generic="body"/><s:alias val="$_join_"/><g s:x="5" s:y="20" s:pid="out"/><g transform="translate(0,10)" s:x="0" s:y="10" s:pid="in0"><text x="-3" y="-4" class="inputPortLabel">0</text></g><g transform="translate(0,30)" s:x="0" s:y="10" s:pid="in0"><text x="-3" y="-4" class="inputPortLabel">1</text></g><g transform="translate(0,50)" s:x="0" s:y="10" s:pid="in0"><text x="-3" y="-4" class="inputPortLabel">2</text></g><g transform="translate(0,70)" s:x="0" s:y="10" s:pid="in0"><text x="-3" y="-4" class="inputPortLabel">3</text></g><g transform="translate(0,90)" s:x="0" s:y="10" s:pid="in0"><text x="-3" y="-4" class="inputPortLabel">4</text></g><g transform="translate(0,110)" s:x="0" s:y="10" s:pid="in0"><text x="-3" y="-4" class="inputPortLabel">5</text></g><g transform="translate(0,130)" s:x="0" s:y="10" s:pid="in0"><text x="-3" y="-4" class="inputPortLabel">6</text></g><g transform="translate(0,150)" s:x="0" s:y="10" s:pid="in0"><text x="-3" y="-4" class="inputPortLabel">7</text></g></g><g s:type="split" transform="translate(116,756.5)" s:width="5" s:height="40" id="cell_$split$,10,11,12,13,14,15,16,17,"><rect width="5" height="160" class="splitjoinBody" s:generic="body"/><s:alias val="$_split_"/><g s:x="0" s:y="20" s:pid="in"/><g transform="translate(4,10)" s:x="4" s:y="10" s:pid="out0"><text x="5" y="-4">0</text></g><g transform="translate(4,30)" s:x="4" s:y="10" s:pid="out0"><text x="5" y="-4">1</text></g><g transform="translate(4,50)" s:x="4" s:y="10" s:pid="out0"><text x="5" y="-4">2</text></g><g transform="translate(4,70)" s:x="4" s:y="10" s:pid="out0"><text x="5" y="-4">3</text></g><g transform="translate(4,90)" s:x="4" s:y="10" s:pid="out0"><text x="5" y="-4">4</text></g><g transform="translate(4,110)" s:x="4" s:y="10" s:pid="out0"><text x="5" y="-4">5</text></g><g transform="translate(4,130)" s:x="4" s:y="10" s:pid="out0"><text x="5" y="-4">6</text></g><g transform="translate(4,150)" s:x="4" s:y="10" s:pid="out0"><text x="5" y="-4">7</text></g></g><g s:type="split" transform="translate(116,950)" s:width="5" s:height="40" id="cell_$split$,2,3,4,5,6,7,8,9,"><rect width="5" height="160" class="splitjoinBody" s:generic="body"/><s:alias val="$_split_"/><g s:x="0" s:y="20" s:pid="in"/><g transform="translate(4,10)" s:x="4" s:y="10" s:pid="out0"><text x="5" y="-4">0</text></g><g transform="translate(4,30)" s:x="4" s:y="10" s:pid="out0"><text x="5" y="-4">1</text></g><g transform="translate(4,50)" s:x="4" s:y="10" s:pid="out0"><text x="5" y="-4">2</text></g><g transform="translate(4,70)" s:x="4" s:y="10" s:pid="out0"><text x="5" y="-4">3</text></g><g transform="translate(4,90)" s:x="4" s:y="10" s:pid="out0"><text x="5" y="-4">4</text></g><g transform="translate(4,110)" s:x="4" s:y="10" s:pid="out0"><text x="5" y="-4">5</text></g><g transform="translate(4,130)" s:x="4" s:y="10" s:pid="out0"><text x="5" y="-4">6</text></g><g transform="translate(4,150)" s:x="4" s:y="10" s:pid="out0"><text x="5" y="-4">7</text></g></g><line x1="120.5" x2="120.5" y1="766.5" y2="364" class="net_10 width_1" style="stroke-width: 1"/><line x1="120.5" x2="269" y1="364" y2="364" class="net_10 width_1" style="stroke-width: 1"/><line x1="120.5" x2="120.5" y1="766.5" y2="364" class="net_10 width_1" style="stroke-width: 1"/><line x1="120.5" x2="138" y1="364" y2="364" class="net_10 width_1" style="stroke-width: 1"/><line x1="138" x2="138" y1="364" y2="21" class="net_10 width_1" style="stroke-width: 1"/><line x1="138" x2="1210" y1="21" y2="21" class="net_10 width_1" style="stroke-width: 1"/><line x1="1210" x2="1210" y1="21" y2="17" class="net_10 width_1" style="stroke-width: 1"/><circle cx="138" cy="364" r="2" style="fill:#000" class="net_10 width_1"/><line x1="1210" x2="1238.6666666666667" y1="17" y2="17" class="net_10 width_1" style="stroke-width: 1"/><line x1="120.5" x2="120.5" y1="960" y2="938" class="net_2 width_1" style="stroke-width: 1"/><line x1="120.5" x2="148" y1="938" y2="938" class="net_2 width_1" style="stroke-width: 1"/><line x1="148" x2="148" y1="938" y2="379" class="net_2 width_1" style="stroke-width: 1"/><circle cx="148" cy="379" r="2" style="fill:#000" class="net_2 width_1"/><line x1="148" x2="269" y1="379" y2="379" class="net_2 width_1" style="stroke-width: 1"/><line x1="120.5" x2="120.5" y1="960" y2="938" class="net_2 width_1" style="stroke-width: 1"/><line x1="120.5" x2="148" y1="938" y2="938" class="net_2 width_1" style="stroke-width: 1"/><line x1="148" x2="148" y1="938" y2="32" class="net_2 width_1" style="stroke-width: 1"/><line x1="148" x2="1238.6666666666667" y1="32" y2="32" class="net_2 width_1" style="stroke-width: 1"/><line x1="121" x2="158" y1="787" y2="787" class="net_11 width_1" style="stroke-width: 1"/><line x1="158" x2="158" y1="787" y2="394" class="net_11 width_1" style="stroke-width: 1"/><line x1="158" x2="341" y1="394" y2="394" class="net_11 width_1" style="stroke-width: 1"/><line x1="121" x2="158" y1="787" y2="787" class="net_11 width_1" style="stroke-width: 1"/><line x1="158" x2="158" y1="787" y2="461.5" class="net_11 width_1" style="stroke-width: 1"/><circle cx="158" cy="461.5" r="2" style="fill:#000" class="net_11 width_1"/><line x1="158" x2="270" y1="461.5" y2="461.5" class="net_11 width_1" style="stroke-width: 1"/><line x1="121" x2="188" y1="980.5" y2="980.5" class="net_3 width_1" style="stroke-width: 1"/><line x1="188" x2="188" y1="980.5" y2="491.5" class="net_3 width_1" style="stroke-width: 1"/><line x1="188" x2="331" y1="491.5" y2="491.5" class="net_3 width_1" style="stroke-width: 1"/><line x1="331" x2="331" y1="491.5" y2="409" class="net_3 width_1" style="stroke-width: 1"/><circle cx="188" cy="491.5" r="2" style="fill:#000" class="net_3 width_1"/><line x1="331" x2="341" y1="409" y2="409" class="net_3 width_1" style="stroke-width: 1"/><line x1="121" x2="188" y1="980.5" y2="980.5" class="net_3 width_1" style="stroke-width: 1"/><line x1="188" x2="188" y1="980.5" y2="476.5" class="net_3 width_1" style="stroke-width: 1"/><line x1="188" x2="270" y1="476.5" y2="476.5" class="net_3 width_1" style="stroke-width: 1"/><line x1="299" x2="311" y1="371.5" y2="371.5" class="net_26 width_1" style="stroke-width: 1"/><line x1="311" x2="311" y1="371.5" y2="454" class="net_26 width_1" style="stroke-width: 1"/><circle cx="311" cy="371.5" r="2" style="fill:#000" class="net_26 width_1"/><line x1="311" x2="341" y1="454" y2="454" class="net_26 width_1" style="stroke-width: 1"/><line x1="299" x2="311" y1="371.5" y2="371.5" class="net_26 width_1" style="stroke-width: 1"/><line x1="311" x2="311" y1="371.5" y2="81" class="net_26 width_1" style="stroke-width: 1"/><line x1="311" x2="1210" y1="81" y2="81" class="net_26 width_1" style="stroke-width: 1"/><line x1="1210" x2="1210" y1="81" y2="77" class="net_26 width_1" style="stroke-width: 1"/><line x1="1210" x2="1238.6666666666667" y1="77" y2="77" class="net_26 width_1" style="stroke-width: 1"/><line x1="301" x2="341" y1="469" y2="469" class="net_28 width_1" style="stroke-width: 1"/><line x1="301" x2="321" y1="469" y2="469" class="net_28 width_1" style="stroke-width: 1"/><line x1="321" x2="321" y1="469" y2="92" class="net_28 width_1" style="stroke-width: 1"/><circle cx="321" cy="469" r="2" style="fill:#000" class="net_28 width_1"/><line x1="321" x2="1238.6666666666667" y1="92" y2="92" class="net_28 width_1" style="stroke-width: 1"/><line x1="377" x2="387" y1="401.5" y2="401.5" class="net_27 width_1" style="stroke-width: 1"/><line x1="387" x2="387" y1="401.5" y2="446.5" class="net_27 width_1" style="stroke-width: 1"/><line x1="387" x2="412" y1="446.5" y2="446.5" class="net_27 width_1" style="stroke-width: 1"/><line x1="377" x2="412" y1="461.5" y2="461.5" class="net_29 width_1" style="stroke-width: 1"/><line x1="121" x2="168" y1="807" y2="807" class="net_12 width_1" style="stroke-width: 1"/><line x1="168" x2="168" y1="807" y2="586" class="net_12 width_1" style="stroke-width: 1"/><line x1="168" x2="387" y1="586" y2="586" class="net_12 width_1" style="stroke-width: 1"/><line x1="387" x2="387" y1="586" y2="518.5" class="net_12 width_1" style="stroke-width: 1"/><circle cx="387" cy="586" r="2" style="fill:#000" class="net_12 width_1"/><line x1="387" x2="488" y1="518.5" y2="518.5" class="net_12 width_1" style="stroke-width: 1"/><line x1="121" x2="168" y1="807" y2="807" class="net_12 width_1" style="stroke-width: 1"/><line x1="168" x2="168" y1="807" y2="586" class="net_12 width_1" style="stroke-width: 1"/><line x1="168" x2="415" y1="586" y2="586" class="net_12 width_1" style="stroke-width: 1"/><line x1="121" x2="208" y1="1000.5" y2="1000.5" class="net_4 width_1" style="stroke-width: 1"/><line x1="208" x2="208" y1="1000.5" y2="624" class="net_4 width_1" style="stroke-width: 1"/><line x1="208" x2="478" y1="624" y2="624" class="net_4 width_1" style="stroke-width: 1"/><line x1="478" x2="478" y1="624" y2="533.5" class="net_4 width_1" style="stroke-width: 1"/><line x1="478" x2="488" y1="533.5" y2="533.5" class="net_4 width_1" style="stroke-width: 1"/><line x1="121" x2="208" y1="1000.5" y2="1000.5" class="net_4 width_1" style="stroke-width: 1"/><line x1="208" x2="208" y1="1000.5" y2="624" class="net_4 width_1" style="stroke-width: 1"/><line x1="208" x2="387" y1="624" y2="624" class="net_4 width_1" style="stroke-width: 1"/><line x1="387" x2="387" y1="624" y2="601" class="net_4 width_1" style="stroke-width: 1"/><circle cx="387" cy="624" r="2" style="fill:#000" class="net_4 width_1"/><line x1="387" x2="415" y1="601" y2="601" class="net_4 width_1" style="stroke-width: 1"/><line x1="448" x2="458" y1="454" y2="454" class="net_30 width_1" style="stroke-width: 1"/><line x1="458" x2="458" y1="454" y2="578.5" class="net_30 width_1" style="stroke-width: 1"/><circle cx="458" cy="454" r="2" style="fill:#000" class="net_30 width_1"/><line x1="458" x2="488" y1="578.5" y2="578.5" class="net_30 width_1" style="stroke-width: 1"/><line x1="448" x2="458" y1="454" y2="454" class="net_30 width_1" style="stroke-width: 1"/><line x1="458" x2="458" y1="454" y2="141" class="net_30 width_1" style="stroke-width: 1"/><line x1="458" x2="1210" y1="141" y2="141" class="net_30 width_1" style="stroke-width: 1"/><line x1="1210" x2="1210" y1="141" y2="137" class="net_30 width_1" style="stroke-width: 1"/><line x1="1210" x2="1238.6666666666667" y1="137" y2="137" class="net_30 width_1" style="stroke-width: 1"/><line x1="446" x2="488" y1="593.5" y2="593.5" class="net_32 width_1" style="stroke-width: 1"/><line x1="446" x2="468" y1="593.5" y2="593.5" class="net_32 width_1" style="stroke-width: 1"/><line x1="468" x2="468" y1="593.5" y2="152" class="net_32 width_1" style="stroke-width: 1"/><circle cx="468" cy="593.5" r="2" style="fill:#000" class="net_32 width_1"/><line x1="468" x2="1238.6666666666667" y1="152" y2="152" class="net_32 width_1" style="stroke-width: 1"/><line x1="524" x2="534" y1="526" y2="526" class="net_31 width_1" style="stroke-width: 1"/><line x1="534" x2="534" y1="526" y2="571" class="net_31 width_1" style="stroke-width: 1"/><line x1="534" x2="559" y1="571" y2="571" class="net_31 width_1" style="stroke-width: 1"/><line x1="524" x2="559" y1="586" y2="586" class="net_33 width_1" style="stroke-width: 1"/><line x1="121" x2="218" y1="827" y2="827" class="net_13 width_1" style="stroke-width: 1"/><line x1="218" x2="218" y1="827" y2="661" class="net_13 width_1" style="stroke-width: 1"/><line x1="218" x2="625" y1="661" y2="661" class="net_13 width_1" style="stroke-width: 1"/><line x1="625" x2="625" y1="661" y2="563.5" class="net_13 width_1" style="stroke-width: 1"/><circle cx="218" cy="661" r="2" style="fill:#000" class="net_13 width_1"/><line x1="625" x2="645" y1="563.5" y2="563.5" class="net_13 width_1" style="stroke-width: 1"/><line x1="121" x2="218" y1="827" y2="827" class="net_13 width_1" style="stroke-width: 1"/><line x1="218" x2="218" y1="827" y2="635" class="net_13 width_1" style="stroke-width: 1"/><line x1="218" x2="534" y1="635" y2="635" class="net_13 width_1" style="stroke-width: 1"/><line x1="534" x2="534" y1="635" y2="631" class="net_13 width_1" style="stroke-width: 1"/><line x1="534" x2="562" y1="631" y2="631" class="net_13 width_1" style="stroke-width: 1"/><line x1="121" x2="228" y1="1020.5" y2="1020.5" class="net_5 width_1" style="stroke-width: 1"/><line x1="228" x2="228" y1="1020.5" y2="672" class="net_5 width_1" style="stroke-width: 1"/><line x1="228" x2="635" y1="672" y2="672" class="net_5 width_1" style="stroke-width: 1"/><line x1="635" x2="635" y1="672" y2="578.5" class="net_5 width_1" style="stroke-width: 1"/><circle cx="228" cy="672" r="2" style="fill:#000" class="net_5 width_1"/><line x1="635" x2="645" y1="578.5" y2="578.5" class="net_5 width_1" style="stroke-width: 1"/><line x1="121" x2="228" y1="1020.5" y2="1020.5" class="net_5 width_1" style="stroke-width: 1"/><line x1="228" x2="228" y1="1020.5" y2="646" class="net_5 width_1" style="stroke-width: 1"/><line x1="228" x2="562" y1="646" y2="646" class="net_5 width_1" style="stroke-width: 1"/><line x1="595" x2="605" y1="578.5" y2="578.5" class="net_34 width_1" style="stroke-width: 1"/><line x1="605" x2="605" y1="578.5" y2="623.5" class="net_34 width_1" style="stroke-width: 1"/><circle cx="605" cy="578.5" r="2" style="fill:#000" class="net_34 width_1"/><line x1="605" x2="645" y1="623.5" y2="623.5" class="net_34 width_1" style="stroke-width: 1"/><line x1="595" x2="605" y1="578.5" y2="578.5" class="net_34 width_1" style="stroke-width: 1"/><line x1="605" x2="605" y1="578.5" y2="201" class="net_34 width_1" style="stroke-width: 1"/><line x1="605" x2="1210" y1="201" y2="201" class="net_34 width_1" style="stroke-width: 1"/><line x1="1210" x2="1210" y1="201" y2="197" class="net_34 width_1" style="stroke-width: 1"/><line x1="1210" x2="1238.6666666666667" y1="197" y2="197" class="net_34 width_1" style="stroke-width: 1"/><line x1="593" x2="645" y1="638.5" y2="638.5" class="net_36 width_1" style="stroke-width: 1"/><line x1="593" x2="615" y1="638.5" y2="638.5" class="net_36 width_1" style="stroke-width: 1"/><line x1="615" x2="615" y1="638.5" y2="212" class="net_36 width_1" style="stroke-width: 1"/><circle cx="615" cy="638.5" r="2" style="fill:#000" class="net_36 width_1"/><line x1="615" x2="1238.6666666666667" y1="212" y2="212" class="net_36 width_1" style="stroke-width: 1"/><line x1="681" x2="691" y1="571" y2="571" class="net_35 width_1" style="stroke-width: 1"/><line x1="691" x2="691" y1="571" y2="616" class="net_35 width_1" style="stroke-width: 1"/><line x1="691" x2="718" y1="616" y2="616" class="net_35 width_1" style="stroke-width: 1"/><line x1="681" x2="718" y1="631" y2="631" class="net_37 width_1" style="stroke-width: 1"/><line x1="121" x2="198" y1="847" y2="847" class="net_14 width_1" style="stroke-width: 1"/><line x1="198" x2="198" y1="847" y2="502.5" class="net_14 width_1" style="stroke-width: 1"/><line x1="198" x2="792" y1="502.5" y2="502.5" class="net_14 width_1" style="stroke-width: 1"/><line x1="792" x2="792" y1="502.5" y2="668" class="net_14 width_1" style="stroke-width: 1"/><line x1="792" x2="806" y1="668" y2="668" class="net_14 width_1" style="stroke-width: 1"/><line x1="121" x2="198" y1="847" y2="847" class="net_14 width_1" style="stroke-width: 1"/><line x1="198" x2="198" y1="847" y2="703" class="net_14 width_1" style="stroke-width: 1"/><line x1="198" x2="691" y1="703" y2="703" class="net_14 width_1" style="stroke-width: 1"/><line x1="691" x2="691" y1="703" y2="699" class="net_14 width_1" style="stroke-width: 1"/><circle cx="198" cy="703" r="2" style="fill:#000" class="net_14 width_1"/><line x1="691" x2="716" y1="699" y2="699" class="net_14 width_1" style="stroke-width: 1"/><line x1="121" x2="238" y1="1040.5" y2="1040.5" class="net_6 width_1" style="stroke-width: 1"/><line x1="238" x2="238" y1="1040.5" y2="683" class="net_6 width_1" style="stroke-width: 1"/><line x1="238" x2="806" y1="683" y2="683" class="net_6 width_1" style="stroke-width: 1"/><line x1="121" x2="238" y1="1040.5" y2="1040.5" class="net_6 width_1" style="stroke-width: 1"/><line x1="238" x2="238" y1="1040.5" y2="714" class="net_6 width_1" style="stroke-width: 1"/><circle cx="238" cy="714" r="2" style="fill:#000" class="net_6 width_1"/><line x1="238" x2="716" y1="714" y2="714" class="net_6 width_1" style="stroke-width: 1"/><line x1="834" x2="858" y1="675.5" y2="675.5" class="net_39 width_1" style="stroke-width: 1"/><line x1="858" x2="858" y1="675.5" y2="268.5" class="net_39 width_1" style="stroke-width: 1"/><line x1="858" x2="1139" y1="268.5" y2="268.5" class="net_39 width_1" style="stroke-width: 1"/><line x1="1139" x2="1139" y1="268.5" y2="264.5" class="net_39 width_1" style="stroke-width: 1"/><circle cx="858" cy="675.5" r="2" style="fill:#000" class="net_39 width_1"/><line x1="1139" x2="1166" y1="264.5" y2="264.5" class="net_39 width_1" style="stroke-width: 1"/><line x1="834" x2="858" y1="675.5" y2="675.5" class="net_39 width_1" style="stroke-width: 1"/><line x1="858" x2="858" y1="675.5" y2="785" class="net_39 width_1" style="stroke-width: 1"/><line x1="858" x2="874" y1="785" y2="785" class="net_39 width_1" style="stroke-width: 1"/><line x1="752" x2="782" y1="706.5" y2="706.5" class="net_40 width_1" style="stroke-width: 1"/><line x1="782" x2="782" y1="706.5" y2="279.5" class="net_40 width_1" style="stroke-width: 1"/><circle cx="782" cy="706.5" r="2" style="fill:#000" class="net_40 width_1"/><line x1="782" x2="1166" y1="279.5" y2="279.5" class="net_40 width_1" style="stroke-width: 1"/><line x1="752" x2="782" y1="706.5" y2="706.5" class="net_40 width_1" style="stroke-width: 1"/><line x1="782" x2="782" y1="706.5" y2="807.5" class="net_40 width_1" style="stroke-width: 1"/><line x1="782" x2="802" y1="807.5" y2="807.5" class="net_40 width_1" style="stroke-width: 1"/><line x1="748" x2="762" y1="623.5" y2="623.5" class="net_38 width_1" style="stroke-width: 1"/><line x1="762" x2="762" y1="623.5" y2="248.5" class="net_38 width_1" style="stroke-width: 1"/><line x1="762" x2="1210" y1="248.5" y2="248.5" class="net_38 width_1" style="stroke-width: 1"/><line x1="1210" x2="1210" y1="248.5" y2="257" class="net_38 width_1" style="stroke-width: 1"/><circle cx="762" cy="623.5" r="2" style="fill:#000" class="net_38 width_1"/><line x1="1210" x2="1237" y1="257" y2="257" class="net_38 width_1" style="stroke-width: 1"/><line x1="748" x2="762" y1="623.5" y2="623.5" class="net_38 width_1" style="stroke-width: 1"/><line x1="762" x2="762" y1="623.5" y2="792.5" class="net_38 width_1" style="stroke-width: 1"/><line x1="762" x2="802" y1="792.5" y2="792.5" class="net_38 width_1" style="stroke-width: 1"/><line x1="1196" x2="1237" y1="272" y2="272" class="net_41 width_1" style="stroke-width: 1"/><line x1="121" x2="178" y1="867" y2="867" class="net_15 width_1" style="stroke-width: 1"/><line x1="178" x2="178" y1="867" y2="348" class="net_15 width_1" style="stroke-width: 1"/><line x1="178" x2="946" y1="348" y2="348" class="net_15 width_1" style="stroke-width: 1"/><line x1="121" x2="178" y1="867" y2="867" class="net_15 width_1" style="stroke-width: 1"/><line x1="178" x2="178" y1="867" y2="729" class="net_15 width_1" style="stroke-width: 1"/><line x1="178" x2="848" y1="729" y2="729" class="net_15 width_1" style="stroke-width: 1"/><line x1="848" x2="848" y1="729" y2="725" class="net_15 width_1" style="stroke-width: 1"/><circle cx="178" cy="729" r="2" style="fill:#000" class="net_15 width_1"/><line x1="848" x2="875" y1="725" y2="725" class="net_15 width_1" style="stroke-width: 1"/><line x1="121" x2="248" y1="1060.5" y2="1060.5" class="net_7 width_1" style="stroke-width: 1"/><line x1="248" x2="248" y1="1060.5" y2="876" class="net_7 width_1" style="stroke-width: 1"/><line x1="248" x2="936" y1="876" y2="876" class="net_7 width_1" style="stroke-width: 1"/><line x1="936" x2="936" y1="876" y2="363" class="net_7 width_1" style="stroke-width: 1"/><line x1="936" x2="946" y1="363" y2="363" class="net_7 width_1" style="stroke-width: 1"/><line x1="121" x2="248" y1="1060.5" y2="1060.5" class="net_7 width_1" style="stroke-width: 1"/><line x1="248" x2="248" y1="1060.5" y2="876" class="net_7 width_1" style="stroke-width: 1"/><line x1="248" x2="772" y1="876" y2="876" class="net_7 width_1" style="stroke-width: 1"/><line x1="772" x2="772" y1="876" y2="740" class="net_7 width_1" style="stroke-width: 1"/><circle cx="772" cy="876" r="2" style="fill:#000" class="net_7 width_1"/><line x1="772" x2="875" y1="740" y2="740" class="net_7 width_1" style="stroke-width: 1"/><line x1="838" x2="874" y1="800" y2="800" class="net_44 width_1" style="stroke-width: 1"/><line x1="906" x2="916" y1="732.5" y2="732.5" class="net_43 width_1" style="stroke-width: 1"/><line x1="916" x2="916" y1="732.5" y2="777.5" class="net_43 width_1" style="stroke-width: 1"/><circle cx="916" cy="732.5" r="2" style="fill:#000" class="net_43 width_1"/><line x1="916" x2="946" y1="777.5" y2="777.5" class="net_43 width_1" style="stroke-width: 1"/><line x1="906" x2="916" y1="732.5" y2="732.5" class="net_43 width_1" style="stroke-width: 1"/><line x1="916" x2="916" y1="732.5" y2="321" class="net_43 width_1" style="stroke-width: 1"/><line x1="916" x2="1210" y1="321" y2="321" class="net_43 width_1" style="stroke-width: 1"/><line x1="1210" x2="1210" y1="321" y2="317" class="net_43 width_1" style="stroke-width: 1"/><line x1="1210" x2="1238.6666666666667" y1="317" y2="317" class="net_43 width_1" style="stroke-width: 1"/><line x1="904" x2="946" y1="792.5" y2="792.5" class="net_45 width_1" style="stroke-width: 1"/><line x1="904" x2="926" y1="792.5" y2="792.5" class="net_45 width_1" style="stroke-width: 1"/><line x1="926" x2="926" y1="792.5" y2="332" class="net_45 width_1" style="stroke-width: 1"/><circle cx="926" cy="792.5" r="2" style="fill:#000" class="net_45 width_1"/><line x1="926" x2="1238.6666666666667" y1="332" y2="332" class="net_45 width_1" style="stroke-width: 1"/><line x1="982" x2="992" y1="355.5" y2="355.5" class="net_42 width_1" style="stroke-width: 1"/><line x1="992" x2="992" y1="355.5" y2="770" class="net_42 width_1" style="stroke-width: 1"/><line x1="992" x2="1019" y1="770" y2="770" class="net_42 width_1" style="stroke-width: 1"/><line x1="982" x2="1019" y1="785" y2="785" class="net_46 width_1" style="stroke-width: 1"/><line x1="121" x2="992" y1="887" y2="887" class="net_16 width_1" style="stroke-width: 1"/><line x1="992" x2="992" y1="887" y2="804.5" class="net_16 width_1" style="stroke-width: 1"/><circle cx="992" cy="887" r="2" style="fill:#000" class="net_16 width_1"/><line x1="992" x2="1097" y1="804.5" y2="804.5" class="net_16 width_1" style="stroke-width: 1"/><line x1="121" x2="1017" y1="887" y2="887" class="net_16 width_1" style="stroke-width: 1"/><line x1="121" x2="258" y1="1080.5" y2="1080.5" class="net_8 width_1" style="stroke-width: 1"/><line x1="258" x2="258" y1="1080.5" y2="917" class="net_8 width_1" style="stroke-width: 1"/><line x1="258" x2="1073" y1="917" y2="917" class="net_8 width_1" style="stroke-width: 1"/><line x1="1073" x2="1073" y1="917" y2="819.5" class="net_8 width_1" style="stroke-width: 1"/><line x1="1073" x2="1097" y1="819.5" y2="819.5" class="net_8 width_1" style="stroke-width: 1"/><line x1="121" x2="258" y1="1080.5" y2="1080.5" class="net_8 width_1" style="stroke-width: 1"/><line x1="258" x2="258" y1="1080.5" y2="917" class="net_8 width_1" style="stroke-width: 1"/><line x1="258" x2="992" y1="917" y2="917" class="net_8 width_1" style="stroke-width: 1"/><line x1="992" x2="992" y1="917" y2="902" class="net_8 width_1" style="stroke-width: 1"/><circle cx="992" cy="917" r="2" style="fill:#000" class="net_8 width_1"/><line x1="992" x2="1017" y1="902" y2="902" class="net_8 width_1" style="stroke-width: 1"/><line x1="1125" x2="1166" y1="812" y2="812" class="net_48 width_1" style="stroke-width: 1"/><line x1="1125" x2="1139" y1="812" y2="812" class="net_48 width_1" style="stroke-width: 1"/><line x1="1139" x2="1139" y1="812" y2="872" class="net_48 width_1" style="stroke-width: 1"/><circle cx="1139" cy="812" r="2" style="fill:#000" class="net_48 width_1"/><line x1="1139" x2="1164" y1="872" y2="872" class="net_48 width_1" style="stroke-width: 1"/><line x1="1053" x2="1063" y1="894.5" y2="894.5" class="net_49 width_1" style="stroke-width: 1"/><line x1="1063" x2="1063" y1="894.5" y2="788.5" class="net_49 width_1" style="stroke-width: 1"/><line x1="1063" x2="1149" y1="788.5" y2="788.5" class="net_49 width_1" style="stroke-width: 1"/><line x1="1149" x2="1149" y1="788.5" y2="827" class="net_49 width_1" style="stroke-width: 1"/><circle cx="1063" cy="894.5" r="2" style="fill:#000" class="net_49 width_1"/><line x1="1149" x2="1166" y1="827" y2="827" class="net_49 width_1" style="stroke-width: 1"/><line x1="1053" x2="1093" y1="894.5" y2="894.5" class="net_49 width_1" style="stroke-width: 1"/><line x1="1049" x2="1210" y1="777.5" y2="777.5" class="net_47 width_1" style="stroke-width: 1"/><line x1="1210" x2="1210" y1="777.5" y2="804.5" class="net_47 width_1" style="stroke-width: 1"/><line x1="1210" x2="1237" y1="804.5" y2="804.5" class="net_47 width_1" style="stroke-width: 1"/><line x1="1049" x2="1083" y1="777.5" y2="777.5" class="net_47 width_1" style="stroke-width: 1"/><line x1="1083" x2="1083" y1="777.5" y2="879.5" class="net_47 width_1" style="stroke-width: 1"/><circle cx="1083" cy="777.5" r="2" style="fill:#000" class="net_47 width_1"/><line x1="1083" x2="1093" y1="879.5" y2="879.5" class="net_47 width_1" style="stroke-width: 1"/><line x1="1196" x2="1237" y1="819.5" y2="819.5" class="net_50 width_1" style="stroke-width: 1"/><line x1="1129" x2="1164" y1="887" y2="887" class="net_51 width_1" style="stroke-width: 1"/><line x1="120.5" x2="120.5" y1="907.5" y2="928" class="net_17 width_1" style="stroke-width: 1"/><line x1="120.5" x2="1139" y1="928" y2="928" class="net_17 width_1" style="stroke-width: 1"/><line x1="1139" x2="1139" y1="928" y2="1105" class="net_17 width_1" style="stroke-width: 1"/><line x1="1139" x2="1167" y1="1105" y2="1105" class="net_17 width_1" style="stroke-width: 1"/><line x1="120.5" x2="120.5" y1="1101" y2="1120" class="net_9 width_1" style="stroke-width: 1"/><line x1="120.5" x2="1167" y1="1120" y2="1120" class="net_9 width_1" style="stroke-width: 1"/><line x1="1200" x2="1210" y1="879.5" y2="879.5" class="net_52 width_1" style="stroke-width: 1"/><line x1="1210" x2="1210" y1="879.5" y2="1097.5" class="net_52 width_1" style="stroke-width: 1"/><line x1="1210" x2="1237" y1="1097.5" y2="1097.5" class="net_52 width_1" style="stroke-width: 1"/><line x1="1198" x2="1237" y1="1112.5" y2="1112.5" class="net_53 width_1" style="stroke-width: 1"/><line x1="1319" x2="1395" y1="194.5" y2="194.5" class="net_18,19,20,21,22,23,24,25 width_8" style="stroke-width: 2"/><line x1="1269.6666666666667" x2="1313.5" y1="24.5" y2="24.5" class="net_18 width_1" style="stroke-width: 1"/><line x1="1313.5" x2="1313.5" y1="24.5" y2="184" class="net_18 width_1" style="stroke-width: 1"/><line x1="1269.6666666666667" x2="1303" y1="84.5" y2="84.5" class="net_19 width_1" style="stroke-width: 1"/><line x1="1303" x2="1303" y1="84.5" y2="204.5" class="net_19 width_1" style="stroke-width: 1"/><line x1="1303" x2="1313" y1="204.5" y2="204.5" class="net_19 width_1" style="stroke-width: 1"/><line x1="1269.6666666666667" x2="1293" y1="144.5" y2="144.5" class="net_20 width_1" style="stroke-width: 1"/><line x1="1293" x2="1293" y1="144.5" y2="224.5" class="net_20 width_1" style="stroke-width: 1"/><line x1="1293" x2="1313" y1="224.5" y2="224.5" class="net_20 width_1" style="stroke-width: 1"/><line x1="1269.6666666666667" x2="1283" y1="204.5" y2="204.5" class="net_21 width_1" style="stroke-width: 1"/><line x1="1283" x2="1283" y1="204.5" y2="244.5" class="net_21 width_1" style="stroke-width: 1"/><line x1="1283" x2="1313" y1="244.5" y2="244.5" class="net_21 width_1" style="stroke-width: 1"/><line x1="1273" x2="1313" y1="264.5" y2="264.5" class="net_22 width_1" style="stroke-width: 1"/><line x1="1269.6666666666667" x2="1283" y1="324.5" y2="324.5" class="net_23 width_1" style="stroke-width: 1"/><line x1="1283" x2="1283" y1="324.5" y2="284.5" class="net_23 width_1" style="stroke-width: 1"/><line x1="1283" x2="1313" y1="284.5" y2="284.5" class="net_23 width_1" style="stroke-width: 1"/><line x1="1273" x2="1293" y1="812" y2="812" class="net_24 width_1" style="stroke-width: 1"/><line x1="1293" x2="1293" y1="812" y2="304.5" class="net_24 width_1" style="stroke-width: 1"/><line x1="1293" x2="1313" y1="304.5" y2="304.5" class="net_24 width_1" style="stroke-width: 1"/><line x1="1273" x2="1313.5" y1="1105" y2="1105" class="net_25 width_1" style="stroke-width: 1"/><line x1="1313.5" x2="1313.5" y1="1105" y2="325" class="net_25 width_1" style="stroke-width: 1"/><line x1="42" x2="116" y1="777" y2="777" class="net_10,11,12,13,14,15,16,17 width_8" style="stroke-width: 2"/><line x1="42" x2="116" y1="970.5" y2="970.5" class="net_2,3,4,5,6,7,8,9 width_8" style="stroke-width: 2"/><rect x="1357" y="189.5" width="16" height="9" class="net_18,19,20,21,22,23,24,25 width_8 busLabel_8" style="fill: white; stroke: none"/><text x="1356" y="197.5" class="net_18,19,20,21,22,23,24,25 width_8 busLabel_8">/8/</text><rect x="78" y="772" width="16" height="9" class="net_10,11,12,13,14,15,16,17 width_8 busLabel_8" style="fill: white; stroke: none"/><text x="77" y="780" class="net_10,11,12,13,14,15,16,17 width_8 busLabel_8">/8/</text><rect x="78" y="965.5" width="16" height="9" class="net_2,3,4,5,6,7,8,9 width_8 busLabel_8" style="fill: white; stroke: none"/><text x="77" y="973.5" class="net_2,3,4,5,6,7,8,9 width_8 busLabel_8">/8/</text></svg>