<svg xmlns="http://www.w3.org/2000/svg" xmlns:xlink="http://www.w3.org/1999/xlink" xmlns:s="https://github.com/nturley/netlistsvg" width="1336" height="885">
  <style>svg {
    stroke:#000;
    fill:none;
  }
  text {
    fill:#000;
    stroke:none;
    font-size:10px;
    font-weight: bold;
    font-family: "Courier New", monospace;
  }
  .nodelabel {
    text-anchor: middle;
  }
  .inputPortLabel {
    text-anchor: end;
  }
  .splitjoinBody {
    fill:#000;
  }</style>
  <g s:type="and" transform="translate(220,184)" s:width="30" s:height="25" id="cell_$abc$188$auto$blifparse.cc:371:parse_blif$189">
    <s:alias val="$and"/>
    <s:alias val="$logic_and"/>
    <s:alias val="$_AND_"/>
    <path d="M0,0 L0,25 L15,25 A15 12.5 0 0 0 15,0 Z" class="cell_$abc$188$auto$blifparse.cc:371:parse_blif$189"/>
    <g s:x="0" s:y="5" s:pid="A"/>
    <g s:x="0" s:y="20" s:pid="B"/>
    <g s:x="30" s:y="12.5" s:pid="Y"/>
  </g>
  <g s:type="nand" transform="translate(292,245)" s:width="30" s:height="25" id="cell_$abc$188$auto$blifparse.cc:371:parse_blif$190">
    <s:alias val="$nand"/>
    <s:alias val="$logic_nand"/>
    <s:alias val="$_NAND_"/>
    <s:alias val="$_ANDNOT_"/>
    <path d="M0,0 L0,25 L15,25 A15 12.5 0 0 0 15,0 Z" class="cell_$abc$188$auto$blifparse.cc:371:parse_blif$190"/>
    <circle cx="34" cy="12.5" r="3" class="cell_$abc$188$auto$blifparse.cc:371:parse_blif$190"/>
    <g s:x="0" s:y="5" s:pid="A"/>
    <g s:x="0" s:y="20" s:pid="B"/>
    <g s:x="36" s:y="12.5" s:pid="Y"/>
  </g>
  <g s:type="reduce_xor" transform="translate(219,230)" s:width="33" s:height="25" id="cell_$abc$188$auto$blifparse.cc:371:parse_blif$191">
    <s:alias val="$xor"/>
    <s:alias val="$reduce_xor"/>
    <s:alias val="$_XOR_"/>
    <path d="M3,0 A30 25 0 0 1 3,25 A30 25 0 0 0 33,12.5 A30 25 0 0 0 3,0" class="cell_$abc$188$auto$blifparse.cc:371:parse_blif$191"/>
    <path d="M0,0 A30 25 0 0 1 0,25" class="cell_$abc$188$auto$blifparse.cc:371:parse_blif$191"/>
    <g s:x="3" s:y="5" s:pid="A"/>
    <g s:x="3" s:y="20" s:pid="B"/>
    <g s:x="33" s:y="12.5" s:pid="Y"/>
  </g>
  <g s:type="nand" transform="translate(292,305)" s:width="30" s:height="25" id="cell_$abc$188$auto$blifparse.cc:371:parse_blif$192">
    <s:alias val="$nand"/>
    <s:alias val="$logic_nand"/>
    <s:alias val="$_NAND_"/>
    <s:alias val="$_ANDNOT_"/>
    <path d="M0,0 L0,25 L15,25 A15 12.5 0 0 0 15,0 Z" class="cell_$abc$188$auto$blifparse.cc:371:parse_blif$192"/>
    <circle cx="34" cy="12.5" r="3" class="cell_$abc$188$auto$blifparse.cc:371:parse_blif$192"/>
    <g s:x="0" s:y="5" s:pid="A"/>
    <g s:x="0" s:y="20" s:pid="B"/>
    <g s:x="36" s:y="12.5" s:pid="Y"/>
  </g>
  <g s:type="reduce_xor" transform="translate(1154.6666666666667,82)" s:width="33" s:height="25" id="cell_$abc$188$auto$blifparse.cc:371:parse_blif$193">
    <s:alias val="$xor"/>
    <s:alias val="$reduce_xor"/>
    <s:alias val="$_XOR_"/>
    <path d="M3,0 A30 25 0 0 1 3,25 A30 25 0 0 0 33,12.5 A30 25 0 0 0 3,0" class="cell_$abc$188$auto$blifparse.cc:371:parse_blif$193"/>
    <path d="M0,0 A30 25 0 0 1 0,25" class="cell_$abc$188$auto$blifparse.cc:371:parse_blif$193"/>
    <g s:x="3" s:y="5" s:pid="A"/>
    <g s:x="3" s:y="20" s:pid="B"/>
    <g s:x="33" s:y="12.5" s:pid="Y"/>
  </g>
  <g s:type="nand" transform="translate(363,297.5)" s:width="30" s:height="25" id="cell_$abc$188$auto$blifparse.cc:371:parse_blif$194">
    <s:alias val="$nand"/>
    <s:alias val="$logic_nand"/>
    <s:alias val="$_NAND_"/>
    <s:alias val="$_ANDNOT_"/>
    <path d="M0,0 L0,25 L15,25 A15 12.5 0 0 0 15,0 Z" class="cell_$abc$188$auto$blifparse.cc:371:parse_blif$194"/>
    <circle cx="34" cy="12.5" r="3" class="cell_$abc$188$auto$blifparse.cc:371:parse_blif$194"/>
    <g s:x="0" s:y="5" s:pid="A"/>
    <g s:x="0" s:y="20" s:pid="B"/>
    <g s:x="36" s:y="12.5" s:pid="Y"/>
  </g>
  <g s:type="nand" transform="translate(439,358.5)" s:width="30" s:height="25" id="cell_$abc$188$auto$blifparse.cc:371:parse_blif$195">
    <s:alias val="$nand"/>
    <s:alias val="$logic_nand"/>
    <s:alias val="$_NAND_"/>
    <s:alias val="$_ANDNOT_"/>
    <path d="M0,0 L0,25 L15,25 A15 12.5 0 0 0 15,0 Z" class="cell_$abc$188$auto$blifparse.cc:371:parse_blif$195"/>
    <circle cx="34" cy="12.5" r="3" class="cell_$abc$188$auto$blifparse.cc:371:parse_blif$195"/>
    <g s:x="0" s:y="5" s:pid="A"/>
    <g s:x="0" s:y="20" s:pid="B"/>
    <g s:x="36" s:y="12.5" s:pid="Y"/>
  </g>
  <g s:type="reduce_xor" transform="translate(364,343.5)" s:width="33" s:height="25" id="cell_$abc$188$auto$blifparse.cc:371:parse_blif$196">
    <s:alias val="$xor"/>
    <s:alias val="$reduce_xor"/>
    <s:alias val="$_XOR_"/>
    <path d="M3,0 A30 25 0 0 1 3,25 A30 25 0 0 0 33,12.5 A30 25 0 0 0 3,0" class="cell_$abc$188$auto$blifparse.cc:371:parse_blif$196"/>
    <path d="M0,0 A30 25 0 0 1 0,25" class="cell_$abc$188$auto$blifparse.cc:371:parse_blif$196"/>
    <g s:x="3" s:y="5" s:pid="A"/>
    <g s:x="3" s:y="20" s:pid="B"/>
    <g s:x="33" s:y="12.5" s:pid="Y"/>
  </g>
  <g s:type="nand" transform="translate(439,418.5)" s:width="30" s:height="25" id="cell_$abc$188$auto$blifparse.cc:371:parse_blif$197">
    <s:alias val="$nand"/>
    <s:alias val="$logic_nand"/>
    <s:alias val="$_NAND_"/>
    <s:alias val="$_ANDNOT_"/>
    <path d="M0,0 L0,25 L15,25 A15 12.5 0 0 0 15,0 Z" class="cell_$abc$188$auto$blifparse.cc:371:parse_blif$197"/>
    <circle cx="34" cy="12.5" r="3" class="cell_$abc$188$auto$blifparse.cc:371:parse_blif$197"/>
    <g s:x="0" s:y="5" s:pid="A"/>
    <g s:x="0" s:y="20" s:pid="B"/>
    <g s:x="36" s:y="12.5" s:pid="Y"/>
  </g>
  <g s:type="reduce_xor" transform="translate(1154.6666666666667,142)" s:width="33" s:height="25" id="cell_$abc$188$auto$blifparse.cc:371:parse_blif$198">
    <s:alias val="$xor"/>
    <s:alias val="$reduce_xor"/>
    <s:alias val="$_XOR_"/>
    <path d="M3,0 A30 25 0 0 1 3,25 A30 25 0 0 0 33,12.5 A30 25 0 0 0 3,0" class="cell_$abc$188$auto$blifparse.cc:371:parse_blif$198"/>
    <path d="M0,0 A30 25 0 0 1 0,25" class="cell_$abc$188$auto$blifparse.cc:371:parse_blif$198"/>
    <g s:x="3" s:y="5" s:pid="A"/>
    <g s:x="3" s:y="20" s:pid="B"/>
    <g s:x="33" s:y="12.5" s:pid="Y"/>
  </g>
  <g s:type="nand" transform="translate(510,411)" s:width="30" s:height="25" id="cell_$abc$188$auto$blifparse.cc:371:parse_blif$199">
    <s:alias val="$nand"/>
    <s:alias val="$logic_nand"/>
    <s:alias val="$_NAND_"/>
    <s:alias val="$_ANDNOT_"/>
    <path d="M0,0 L0,25 L15,25 A15 12.5 0 0 0 15,0 Z" class="cell_$abc$188$auto$blifparse.cc:371:parse_blif$199"/>
    <circle cx="34" cy="12.5" r="3" class="cell_$abc$188$auto$blifparse.cc:371:parse_blif$199"/>
    <g s:x="0" s:y="5" s:pid="A"/>
    <g s:x="0" s:y="20" s:pid="B"/>
    <g s:x="36" s:y="12.5" s:pid="Y"/>
  </g>
  <g s:type="nand" transform="translate(586,494.5)" s:width="30" s:height="25" id="cell_$abc$188$auto$blifparse.cc:371:parse_blif$200">
    <s:alias val="$nand"/>
    <s:alias val="$logic_nand"/>
    <s:alias val="$_NAND_"/>
    <s:alias val="$_ANDNOT_"/>
    <path d="M0,0 L0,25 L15,25 A15 12.5 0 0 0 15,0 Z" class="cell_$abc$188$auto$blifparse.cc:371:parse_blif$200"/>
    <circle cx="34" cy="12.5" r="3" class="cell_$abc$188$auto$blifparse.cc:371:parse_blif$200"/>
    <g s:x="0" s:y="5" s:pid="A"/>
    <g s:x="0" s:y="20" s:pid="B"/>
    <g s:x="36" s:y="12.5" s:pid="Y"/>
  </g>
  <g s:type="reduce_xor" transform="translate(511,464.5)" s:width="33" s:height="25" id="cell_$abc$188$auto$blifparse.cc:371:parse_blif$201">
    <s:alias val="$xor"/>
    <s:alias val="$reduce_xor"/>
    <s:alias val="$_XOR_"/>
    <path d="M3,0 A30 25 0 0 1 3,25 A30 25 0 0 0 33,12.5 A30 25 0 0 0 3,0" class="cell_$abc$188$auto$blifparse.cc:371:parse_blif$201"/>
    <path d="M0,0 A30 25 0 0 1 0,25" class="cell_$abc$188$auto$blifparse.cc:371:parse_blif$201"/>
    <g s:x="3" s:y="5" s:pid="A"/>
    <g s:x="3" s:y="20" s:pid="B"/>
    <g s:x="33" s:y="12.5" s:pid="Y"/>
  </g>
  <g s:type="nand" transform="translate(586,554.5)" s:width="30" s:height="25" id="cell_$abc$188$auto$blifparse.cc:371:parse_blif$202">
    <s:alias val="$nand"/>
    <s:alias val="$logic_nand"/>
    <s:alias val="$_NAND_"/>
    <s:alias val="$_ANDNOT_"/>
    <path d="M0,0 L0,25 L15,25 A15 12.5 0 0 0 15,0 Z" class="cell_$abc$188$auto$blifparse.cc:371:parse_blif$202"/>
    <circle cx="34" cy="12.5" r="3" class="cell_$abc$188$auto$blifparse.cc:371:parse_blif$202"/>
    <g s:x="0" s:y="5" s:pid="A"/>
    <g s:x="0" s:y="20" s:pid="B"/>
    <g s:x="36" s:y="12.5" s:pid="Y"/>
  </g>
  <g s:type="reduce_xor" transform="translate(1154.6666666666667,339)" s:width="33" s:height="25" id="cell_$abc$188$auto$blifparse.cc:371:parse_blif$203">
    <s:alias val="$xor"/>
    <s:alias val="$reduce_xor"/>
    <s:alias val="$_XOR_"/>
    <path d="M3,0 A30 25 0 0 1 3,25 A30 25 0 0 0 33,12.5 A30 25 0 0 0 3,0" class="cell_$abc$188$auto$blifparse.cc:371:parse_blif$203"/>
    <path d="M0,0 A30 25 0 0 1 0,25" class="cell_$abc$188$auto$blifparse.cc:371:parse_blif$203"/>
    <g s:x="3" s:y="5" s:pid="A"/>
    <g s:x="3" s:y="20" s:pid="B"/>
    <g s:x="33" s:y="12.5" s:pid="Y"/>
  </g>
  <g s:type="and" transform="translate(659,547)" s:width="30" s:height="25" id="cell_$abc$188$auto$blifparse.cc:371:parse_blif$204">
    <s:alias val="$and"/>
    <s:alias val="$logic_and"/>
    <s:alias val="$_AND_"/>
    <path d="M0,0 L0,25 L15,25 A15 12.5 0 0 0 15,0 Z" class="cell_$abc$188$auto$blifparse.cc:371:parse_blif$204"/>
    <g s:x="0" s:y="5" s:pid="A"/>
    <g s:x="0" s:y="20" s:pid="B"/>
    <g s:x="30" s:y="12.5" s:pid="Y"/>
  </g>
  <g s:type="nand" transform="translate(657,615.5)" s:width="30" s:height="25" id="cell_$abc$188$auto$blifparse.cc:371:parse_blif$205">
    <s:alias val="$nand"/>
    <s:alias val="$logic_nand"/>
    <s:alias val="$_NAND_"/>
    <s:alias val="$_ANDNOT_"/>
    <path d="M0,0 L0,25 L15,25 A15 12.5 0 0 0 15,0 Z" class="cell_$abc$188$auto$blifparse.cc:371:parse_blif$205"/>
    <circle cx="34" cy="12.5" r="3" class="cell_$abc$188$auto$blifparse.cc:371:parse_blif$205"/>
    <g s:x="0" s:y="5" s:pid="A"/>
    <g s:x="0" s:y="20" s:pid="B"/>
    <g s:x="36" s:y="12.5" s:pid="Y"/>
  </g>
  <g s:type="or" transform="translate(730,584.5)" s:width="30" s:height="25" id="cell_$abc$188$auto$blifparse.cc:371:parse_blif$206">
    <s:alias val="$or"/>
    <s:alias val="$logic_or"/>
    <s:alias val="$_OR_"/>
    <path d="M0,25 L0,25 L15,25 A15 12.5 0 0 0 15,0 L0,0" class="cell_$abc$188$auto$blifparse.cc:371:parse_blif$206"/>
    <path d="M0,0 A30 25 0 0 1 0,25" class="cell_$abc$188$auto$blifparse.cc:371:parse_blif$206"/>
    <g s:x="3" s:y="5" s:pid="A"/>
    <g s:x="3" s:y="20" s:pid="B"/>
    <g s:x="30" s:y="12.5" s:pid="Y"/>
  </g>
  <g s:type="and" transform="translate(1086,406.5)" s:width="30" s:height="25" id="cell_$abc$188$auto$blifparse.cc:371:parse_blif$207">
    <s:alias val="$and"/>
    <s:alias val="$logic_and"/>
    <s:alias val="$_AND_"/>
    <path d="M0,0 L0,25 L15,25 A15 12.5 0 0 0 15,0 Z" class="cell_$abc$188$auto$blifparse.cc:371:parse_blif$207"/>
    <g s:x="0" s:y="5" s:pid="A"/>
    <g s:x="0" s:y="20" s:pid="B"/>
    <g s:x="30" s:y="12.5" s:pid="Y"/>
  </g>
  <g s:type="reduce_nxor" transform="translate(1153,399)" s:width="33" s:height="25" id="cell_$abc$188$auto$blifparse.cc:371:parse_blif$208">
    <s:alias val="$xnor"/>
    <s:alias val="$reduce_xnor"/>
    <s:alias val="$_XNOR_"/>
    <path d="M3,0 A30 25 0 0 1 3,25 A30 25 0 0 0 33,12.5 A30 25 0 0 0 3,0" class="cell_$abc$188$auto$blifparse.cc:371:parse_blif$208"/>
    <path d="M0,0 A30 25 0 0 1 0,25" class="cell_$abc$188$auto$blifparse.cc:371:parse_blif$208"/>
    <circle cx="35" cy="12.5" r="3" class="cell_$abc$188$auto$blifparse.cc:371:parse_blif$208"/>
    <g s:x="3" s:y="5" s:pid="A"/>
    <g s:x="3" s:y="20" s:pid="B"/>
    <g s:x="38" s:y="12.5" s:pid="Y"/>
  </g>
  <g s:type="nand" transform="translate(872,630.5)" s:width="30" s:height="25" id="cell_$abc$188$auto$blifparse.cc:371:parse_blif$209">
    <s:alias val="$nand"/>
    <s:alias val="$logic_nand"/>
    <s:alias val="$_NAND_"/>
    <s:alias val="$_ANDNOT_"/>
    <path d="M0,0 L0,25 L15,25 A15 12.5 0 0 0 15,0 Z" class="cell_$abc$188$auto$blifparse.cc:371:parse_blif$209"/>
    <circle cx="34" cy="12.5" r="3" class="cell_$abc$188$auto$blifparse.cc:371:parse_blif$209"/>
    <g s:x="0" s:y="5" s:pid="A"/>
    <g s:x="0" s:y="20" s:pid="B"/>
    <g s:x="36" s:y="12.5" s:pid="Y"/>
  </g>
  <g s:type="reduce_xor" transform="translate(799,448.5)" s:width="33" s:height="25" id="cell_$abc$188$auto$blifparse.cc:371:parse_blif$210">
    <s:alias val="$xor"/>
    <s:alias val="$reduce_xor"/>
    <s:alias val="$_XOR_"/>
    <path d="M3,0 A30 25 0 0 1 3,25 A30 25 0 0 0 33,12.5 A30 25 0 0 0 3,0" class="cell_$abc$188$auto$blifparse.cc:371:parse_blif$210"/>
    <path d="M0,0 A30 25 0 0 1 0,25" class="cell_$abc$188$auto$blifparse.cc:371:parse_blif$210"/>
    <g s:x="3" s:y="5" s:pid="A"/>
    <g s:x="3" s:y="20" s:pid="B"/>
    <g s:x="33" s:y="12.5" s:pid="Y"/>
  </g>
  <g s:type="nand" transform="translate(728,705.5)" s:width="30" s:height="25" id="cell_$abc$188$auto$blifparse.cc:371:parse_blif$211">
    <s:alias val="$nand"/>
    <s:alias val="$logic_nand"/>
    <s:alias val="$_NAND_"/>
    <s:alias val="$_ANDNOT_"/>
    <path d="M0,0 L0,25 L15,25 A15 12.5 0 0 0 15,0 Z" class="cell_$abc$188$auto$blifparse.cc:371:parse_blif$211"/>
    <circle cx="34" cy="12.5" r="3" class="cell_$abc$188$auto$blifparse.cc:371:parse_blif$211"/>
    <g s:x="0" s:y="5" s:pid="A"/>
    <g s:x="0" s:y="20" s:pid="B"/>
    <g s:x="36" s:y="12.5" s:pid="Y"/>
  </g>
  <g s:type="and" transform="translate(800,698)" s:width="30" s:height="25" id="cell_$abc$188$auto$blifparse.cc:371:parse_blif$212">
    <s:alias val="$and"/>
    <s:alias val="$logic_and"/>
    <s:alias val="$_AND_"/>
    <path d="M0,0 L0,25 L15,25 A15 12.5 0 0 0 15,0 Z" class="cell_$abc$188$auto$blifparse.cc:371:parse_blif$212"/>
    <g s:x="0" s:y="5" s:pid="A"/>
    <g s:x="0" s:y="20" s:pid="B"/>
    <g s:x="30" s:y="12.5" s:pid="Y"/>
  </g>
  <g s:type="nand" transform="translate(872,690.5)" s:width="30" s:height="25" id="cell_$abc$188$auto$blifparse.cc:371:parse_blif$213">
    <s:alias val="$nand"/>
    <s:alias val="$logic_nand"/>
    <s:alias val="$_NAND_"/>
    <s:alias val="$_ANDNOT_"/>
    <path d="M0,0 L0,25 L15,25 A15 12.5 0 0 0 15,0 Z" class="cell_$abc$188$auto$blifparse.cc:371:parse_blif$213"/>
    <circle cx="34" cy="12.5" r="3" class="cell_$abc$188$auto$blifparse.cc:371:parse_blif$213"/>
    <g s:x="0" s:y="5" s:pid="A"/>
    <g s:x="0" s:y="20" s:pid="B"/>
    <g s:x="36" s:y="12.5" s:pid="Y"/>
  </g>
  <g s:type="reduce_xor" transform="translate(1154.6666666666667,599.5)" s:width="33" s:height="25" id="cell_$abc$188$auto$blifparse.cc:371:parse_blif$214">
    <s:alias val="$xor"/>
    <s:alias val="$reduce_xor"/>
    <s:alias val="$_XOR_"/>
    <path d="M3,0 A30 25 0 0 1 3,25 A30 25 0 0 0 33,12.5 A30 25 0 0 0 3,0" class="cell_$abc$188$auto$blifparse.cc:371:parse_blif$214"/>
    <path d="M0,0 A30 25 0 0 1 0,25" class="cell_$abc$188$auto$blifparse.cc:371:parse_blif$214"/>
    <g s:x="3" s:y="5" s:pid="A"/>
    <g s:x="3" s:y="20" s:pid="B"/>
    <g s:x="33" s:y="12.5" s:pid="Y"/>
  </g>
  <g s:type="nand" transform="translate(943,683)" s:width="30" s:height="25" id="cell_$abc$188$auto$blifparse.cc:371:parse_blif$215">
    <s:alias val="$nand"/>
    <s:alias val="$logic_nand"/>
    <s:alias val="$_NAND_"/>
    <s:alias val="$_ANDNOT_"/>
    <path d="M0,0 L0,25 L15,25 A15 12.5 0 0 0 15,0 Z" class="cell_$abc$188$auto$blifparse.cc:371:parse_blif$215"/>
    <circle cx="34" cy="12.5" r="3" class="cell_$abc$188$auto$blifparse.cc:371:parse_blif$215"/>
    <g s:x="0" s:y="5" s:pid="A"/>
    <g s:x="0" s:y="20" s:pid="B"/>
    <g s:x="36" s:y="12.5" s:pid="Y"/>
  </g>
  <g s:type="nand" transform="translate(1014,735.5)" s:width="30" s:height="25" id="cell_$abc$188$auto$blifparse.cc:371:parse_blif$216">
    <s:alias val="$nand"/>
    <s:alias val="$logic_nand"/>
    <s:alias val="$_NAND_"/>
    <s:alias val="$_ANDNOT_"/>
    <path d="M0,0 L0,25 L15,25 A15 12.5 0 0 0 15,0 Z" class="cell_$abc$188$auto$blifparse.cc:371:parse_blif$216"/>
    <circle cx="34" cy="12.5" r="3" class="cell_$abc$188$auto$blifparse.cc:371:parse_blif$216"/>
    <g s:x="0" s:y="5" s:pid="A"/>
    <g s:x="0" s:y="20" s:pid="B"/>
    <g s:x="36" s:y="12.5" s:pid="Y"/>
  </g>
  <g s:type="reduce_xor" transform="translate(944,803)" s:width="33" s:height="25" id="cell_$abc$188$auto$blifparse.cc:371:parse_blif$217">
    <s:alias val="$xor"/>
    <s:alias val="$reduce_xor"/>
    <s:alias val="$_XOR_"/>
    <path d="M3,0 A30 25 0 0 1 3,25 A30 25 0 0 0 33,12.5 A30 25 0 0 0 3,0" class="cell_$abc$188$auto$blifparse.cc:371:parse_blif$217"/>
    <path d="M0,0 A30 25 0 0 1 0,25" class="cell_$abc$188$auto$blifparse.cc:371:parse_blif$217"/>
    <g s:x="3" s:y="5" s:pid="A"/>
    <g s:x="3" s:y="20" s:pid="B"/>
    <g s:x="33" s:y="12.5" s:pid="Y"/>
  </g>
  <g s:type="nand" transform="translate(1014,795.5)" s:width="30" s:height="25" id="cell_$abc$188$auto$blifparse.cc:371:parse_blif$218">
    <s:alias val="$nand"/>
    <s:alias val="$logic_nand"/>
    <s:alias val="$_NAND_"/>
    <s:alias val="$_ANDNOT_"/>
    <path d="M0,0 L0,25 L15,25 A15 12.5 0 0 0 15,0 Z" class="cell_$abc$188$auto$blifparse.cc:371:parse_blif$218"/>
    <circle cx="34" cy="12.5" r="3" class="cell_$abc$188$auto$blifparse.cc:371:parse_blif$218"/>
    <g s:x="0" s:y="5" s:pid="A"/>
    <g s:x="0" s:y="20" s:pid="B"/>
    <g s:x="36" s:y="12.5" s:pid="Y"/>
  </g>
  <g s:type="reduce_xor" transform="translate(1154.6666666666667,704.5)" s:width="33" s:height="25" id="cell_$abc$188$auto$blifparse.cc:371:parse_blif$219">
    <s:alias val="$xor"/>
    <s:alias val="$reduce_xor"/>
    <s:alias val="$_XOR_"/>
    <path d="M3,0 A30 25 0 0 1 3,25 A30 25 0 0 0 33,12.5 A30 25 0 0 0 3,0" class="cell_$abc$188$auto$blifparse.cc:371:parse_blif$219"/>
    <path d="M0,0 A30 25 0 0 1 0,25" class="cell_$abc$188$auto$blifparse.cc:371:parse_blif$219"/>
    <g s:x="3" s:y="5" s:pid="A"/>
    <g s:x="3" s:y="20" s:pid="B"/>
    <g s:x="33" s:y="12.5" s:pid="Y"/>
  </g>
  <g s:type="and" transform="translate(1086,788)" s:width="30" s:height="25" id="cell_$abc$188$auto$blifparse.cc:371:parse_blif$220">
    <s:alias val="$and"/>
    <s:alias val="$logic_and"/>
    <s:alias val="$_AND_"/>
    <path d="M0,0 L0,25 L15,25 A15 12.5 0 0 0 15,0 Z" class="cell_$abc$188$auto$blifparse.cc:371:parse_blif$220"/>
    <g s:x="0" s:y="5" s:pid="A"/>
    <g s:x="0" s:y="20" s:pid="B"/>
    <g s:x="30" s:y="12.5" s:pid="Y"/>
  </g>
  <g s:type="reduce_xor" transform="translate(1085,848)" s:width="33" s:height="25" id="cell_$abc$188$auto$blifparse.cc:371:parse_blif$221">
    <s:alias val="$xor"/>
    <s:alias val="$reduce_xor"/>
    <s:alias val="$_XOR_"/>
    <path d="M3,0 A30 25 0 0 1 3,25 A30 25 0 0 0 33,12.5 A30 25 0 0 0 3,0" class="cell_$abc$188$auto$blifparse.cc:371:parse_blif$221"/>
    <path d="M0,0 A30 25 0 0 1 0,25" class="cell_$abc$188$auto$blifparse.cc:371:parse_blif$221"/>
    <g s:x="3" s:y="5" s:pid="A"/>
    <g s:x="3" s:y="20" s:pid="B"/>
    <g s:x="33" s:y="12.5" s:pid="Y"/>
  </g>
  <g s:type="reduce_nxor" transform="translate(1153,840.5)" s:width="33" s:height="25" id="cell_$abc$188$auto$blifparse.cc:371:parse_blif$222">
    <s:alias val="$xnor"/>
    <s:alias val="$reduce_xnor"/>
    <s:alias val="$_XNOR_"/>
    <path d="M3,0 A30 25 0 0 1 3,25 A30 25 0 0 0 33,12.5 A30 25 0 0 0 3,0" class="cell_$abc$188$auto$blifparse.cc:371:parse_blif$222"/>
    <path d="M0,0 A30 25 0 0 1 0,25" class="cell_$abc$188$auto$blifparse.cc:371:parse_blif$222"/>
    <circle cx="35" cy="12.5" r="3" class="cell_$abc$188$auto$blifparse.cc:371:parse_blif$222"/>
    <g s:x="3" s:y="5" s:pid="A"/>
    <g s:x="3" s:y="20" s:pid="B"/>
    <g s:x="38" s:y="12.5" s:pid="Y"/>
  </g>
  <g s:type="reduce_xor" transform="translate(1154.6666666666667,22)" s:width="33" s:height="25" id="cell_$abc$188$auto$blifparse.cc:371:parse_blif$223">
    <s:alias val="$xor"/>
    <s:alias val="$reduce_xor"/>
    <s:alias val="$_XOR_"/>
    <path d="M3,0 A30 25 0 0 1 3,25 A30 25 0 0 0 33,12.5 A30 25 0 0 0 3,0" class="cell_$abc$188$auto$blifparse.cc:371:parse_blif$223"/>
    <path d="M0,0 A30 25 0 0 1 0,25" class="cell_$abc$188$auto$blifparse.cc:371:parse_blif$223"/>
    <g s:x="3" s:y="5" s:pid="A"/>
    <g s:x="3" s:y="20" s:pid="B"/>
    <g s:x="33" s:y="12.5" s:pid="Y"/>
  </g>
  <g s:type="inputExt" transform="translate(12,524.5)" s:width="30" s:height="20" id="cell_A">
    <text x="15" y="-4" class="nodelabel cell_A" s:attribute="ref">A</text>
    <s:alias val="$_inputExt_"/>
    <path d="M0,0 L0,20 L15,20 L30,10 L15,0 Z" class="cell_A"/>
    <g s:x="28" s:y="10" s:pid="Y"/>
  </g>
  <g s:type="inputExt" transform="translate(12,34.5)" s:width="30" s:height="20" id="cell_B">
    <text x="15" y="-4" class="nodelabel cell_B" s:attribute="ref">B</text>
    <s:alias val="$_inputExt_"/>
    <path d="M0,0 L0,20 L15,20 L30,10 L15,0 Z" class="cell_B"/>
    <g s:x="28" s:y="10" s:pid="Y"/>
  </g>
  <g s:type="outputExt" transform="translate(1294,597)" s:width="30" s:height="20" id="cell_O">
    <text x="15" y="-4" class="nodelabel cell_O" s:attribute="ref">O</text>
    <s:alias val="$_outputExt_"/>
    <path d="M30,0 L30,20 L15,20 L0,10 L15,0 Z" class="cell_O"/>
    <g s:x="0" s:y="10" s:pid="A"/>
  </g>
  <g s:type="join" transform="translate(1251,586.5)" s:width="4" s:height="40" id="cell_$join$,18,19,20,21,22,23,24,25,">
    <rect width="5" height="160" class="splitjoinBody" s:generic="body"/>
    <s:alias val="$_join_"/>
    <g s:x="5" s:y="20" s:pid="out"/>
    <g transform="translate(0,10)" s:x="0" s:y="10" s:pid="in0">
      <text x="-3" y="-4" class="inputPortLabel">0</text>
    </g>
    <g transform="translate(0,30)" s:x="0" s:y="10" s:pid="in0">
      <text x="-3" y="-4" class="inputPortLabel">1</text>
    </g>
    <g transform="translate(0,50)" s:x="0" s:y="10" s:pid="in0">
      <text x="-3" y="-4" class="inputPortLabel">2</text>
    </g>
    <g transform="translate(0,70)" s:x="0" s:y="10" s:pid="in0">
      <text x="-3" y="-4" class="inputPortLabel">3</text>
    </g>
    <g transform="translate(0,90)" s:x="0" s:y="10" s:pid="in0">
      <text x="-3" y="-4" class="inputPortLabel">4</text>
    </g>
    <g transform="translate(0,110)" s:x="0" s:y="10" s:pid="in0">
      <text x="-3" y="-4" class="inputPortLabel">5</text>
    </g>
    <g transform="translate(0,130)" s:x="0" s:y="10" s:pid="in0">
      <text x="-3" y="-4" class="inputPortLabel">6</text>
    </g>
    <g transform="translate(0,150)" s:x="0" s:y="10" s:pid="in0">
      <text x="-3" y="-4" class="inputPortLabel">7</text>
    </g>
  </g>
  <g s:type="split" transform="translate(77,24)" s:width="5" s:height="40" id="cell_$split$,10,11,12,13,14,15,16,17,">
    <rect width="5" height="160" class="splitjoinBody" s:generic="body"/>
    <s:alias val="$_split_"/>
    <g s:x="0" s:y="20" s:pid="in"/>
    <g transform="translate(4,10)" s:x="4" s:y="10" s:pid="out0">
      <text x="5" y="-4">0</text>
    </g>
    <g transform="translate(4,30)" s:x="4" s:y="10" s:pid="out0">
      <text x="5" y="-4">1</text>
    </g>
    <g transform="translate(4,50)" s:x="4" s:y="10" s:pid="out0">
      <text x="5" y="-4">2</text>
    </g>
    <g transform="translate(4,70)" s:x="4" s:y="10" s:pid="out0">
      <text x="5" y="-4">3</text>
    </g>
    <g transform="translate(4,90)" s:x="4" s:y="10" s:pid="out0">
      <text x="5" y="-4">4</text>
    </g>
    <g transform="translate(4,110)" s:x="4" s:y="10" s:pid="out0">
      <text x="5" y="-4">5</text>
    </g>
    <g transform="translate(4,130)" s:x="4" s:y="10" s:pid="out0">
      <text x="5" y="-4">6</text>
    </g>
    <g transform="translate(4,150)" s:x="4" s:y="10" s:pid="out0">
      <text x="5" y="-4">7</text>
    </g>
  </g>
  <g s:type="split" transform="translate(77,514)" s:width="5" s:height="40" id="cell_$split$,2,3,4,5,6,7,8,9,">
    <rect width="5" height="160" class="splitjoinBody" s:generic="body"/>
    <s:alias val="$_split_"/>
    <g s:x="0" s:y="20" s:pid="in"/>
    <g transform="translate(4,10)" s:x="4" s:y="10" s:pid="out0">
      <text x="5" y="-4">0</text>
    </g>
    <g transform="translate(4,30)" s:x="4" s:y="10" s:pid="out0">
      <text x="5" y="-4">1</text>
    </g>
    <g transform="translate(4,50)" s:x="4" s:y="10" s:pid="out0">
      <text x="5" y="-4">2</text>
    </g>
    <g transform="translate(4,70)" s:x="4" s:y="10" s:pid="out0">
      <text x="5" y="-4">3</text>
    </g>
    <g transform="translate(4,90)" s:x="4" s:y="10" s:pid="out0">
      <text x="5" y="-4">4</text>
    </g>
    <g transform="translate(4,110)" s:x="4" s:y="10" s:pid="out0">
      <text x="5" y="-4">5</text>
    </g>
    <g transform="translate(4,130)" s:x="4" s:y="10" s:pid="out0">
      <text x="5" y="-4">6</text>
    </g>
    <g transform="translate(4,150)" s:x="4" s:y="10" s:pid="out0">
      <text x="5" y="-4">7</text>
    </g>
  </g>
  <line x1="81.5" x2="81.5" y1="34" y2="12" class="net_10"/>
  <line x1="81.5" x2="209" y1="12" y2="12" class="net_10"/>
  <line x1="209" x2="209" y1="12" y2="189" class="net_10"/>
  <circle cx="209" cy="12" r="2" style="fill:#000" class="net_10"/>
  <line x1="209" x2="220" y1="189" y2="189" class="net_10"/>
  <line x1="81.5" x2="81.5" y1="34" y2="12" class="net_10"/>
  <line x1="81.5" x2="1128" y1="12" y2="12" class="net_10"/>
  <line x1="1128" x2="1128" y1="12" y2="27" class="net_10"/>
  <line x1="1128" x2="1157.6666666666667" y1="27" y2="27" class="net_10"/>
  <line x1="81.5" x2="81.5" y1="524" y2="204" class="net_2"/>
  <line x1="81.5" x2="220" y1="204" y2="204" class="net_2"/>
  <line x1="81.5" x2="81.5" y1="524" y2="204" class="net_2"/>
  <line x1="81.5" x2="199" y1="204" y2="204" class="net_2"/>
  <line x1="199" x2="199" y1="204" y2="42" class="net_2"/>
  <circle cx="199" cy="204" r="2" style="fill:#000" class="net_2"/>
  <line x1="199" x2="1157.6666666666667" y1="42" y2="42" class="net_2"/>
  <line x1="82" x2="189" y1="54.5" y2="54.5" class="net_11"/>
  <line x1="189" x2="189" y1="54.5" y2="219" class="net_11"/>
  <line x1="189" x2="272" y1="219" y2="219" class="net_11"/>
  <line x1="272" x2="272" y1="219" y2="250" class="net_11"/>
  <circle cx="189" cy="219" r="2" style="fill:#000" class="net_11"/>
  <line x1="272" x2="292" y1="250" y2="250" class="net_11"/>
  <line x1="82" x2="189" y1="54.5" y2="54.5" class="net_11"/>
  <line x1="189" x2="189" y1="54.5" y2="235" class="net_11"/>
  <line x1="189" x2="222" y1="235" y2="235" class="net_11"/>
  <line x1="82" x2="189" y1="544.5" y2="544.5" class="net_3"/>
  <line x1="189" x2="189" y1="544.5" y2="265" class="net_3"/>
  <circle cx="189" cy="265" r="2" style="fill:#000" class="net_3"/>
  <line x1="189" x2="292" y1="265" y2="265" class="net_3"/>
  <line x1="82" x2="189" y1="544.5" y2="544.5" class="net_3"/>
  <line x1="189" x2="189" y1="544.5" y2="250" class="net_3"/>
  <line x1="189" x2="222" y1="250" y2="250" class="net_3"/>
  <line x1="250" x2="282" y1="196.5" y2="196.5" class="net_26"/>
  <line x1="282" x2="282" y1="196.5" y2="310" class="net_26"/>
  <circle cx="282" cy="196.5" r="2" style="fill:#000" class="net_26"/>
  <line x1="282" x2="292" y1="310" y2="310" class="net_26"/>
  <line x1="250" x2="282" y1="196.5" y2="196.5" class="net_26"/>
  <line x1="282" x2="282" y1="196.5" y2="87" class="net_26"/>
  <line x1="282" x2="1157.6666666666667" y1="87" y2="87" class="net_26"/>
  <line x1="252" x2="262" y1="242.5" y2="242.5" class="net_28"/>
  <line x1="262" x2="262" y1="242.5" y2="325" class="net_28"/>
  <circle cx="262" cy="242.5" r="2" style="fill:#000" class="net_28"/>
  <line x1="262" x2="292" y1="325" y2="325" class="net_28"/>
  <line x1="252" x2="262" y1="242.5" y2="242.5" class="net_28"/>
  <line x1="262" x2="262" y1="242.5" y2="102" class="net_28"/>
  <line x1="262" x2="1157.6666666666667" y1="102" y2="102" class="net_28"/>
  <line x1="328" x2="338" y1="257.5" y2="257.5" class="net_27"/>
  <line x1="338" x2="338" y1="257.5" y2="302.5" class="net_27"/>
  <line x1="338" x2="363" y1="302.5" y2="302.5" class="net_27"/>
  <line x1="328" x2="363" y1="317.5" y2="317.5" class="net_29"/>
  <line x1="82" x2="179" y1="74.5" y2="74.5" class="net_12"/>
  <line x1="179" x2="179" y1="74.5" y2="348.5" class="net_12"/>
  <line x1="179" x2="338" y1="348.5" y2="348.5" class="net_12"/>
  <line x1="338" x2="338" y1="348.5" y2="332.5" class="net_12"/>
  <line x1="338" x2="419" y1="332.5" y2="332.5" class="net_12"/>
  <line x1="419" x2="419" y1="332.5" y2="363.5" class="net_12"/>
  <circle cx="338" cy="348.5" r="2" style="fill:#000" class="net_12"/>
  <line x1="419" x2="439" y1="363.5" y2="363.5" class="net_12"/>
  <line x1="82" x2="179" y1="74.5" y2="74.5" class="net_12"/>
  <line x1="179" x2="179" y1="74.5" y2="348.5" class="net_12"/>
  <line x1="179" x2="367" y1="348.5" y2="348.5" class="net_12"/>
  <line x1="82" x2="199" y1="564.5" y2="564.5" class="net_4"/>
  <line x1="199" x2="199" y1="564.5" y2="378.5" class="net_4"/>
  <line x1="199" x2="439" y1="378.5" y2="378.5" class="net_4"/>
  <line x1="82" x2="199" y1="564.5" y2="564.5" class="net_4"/>
  <line x1="199" x2="199" y1="564.5" y2="378.5" class="net_4"/>
  <line x1="199" x2="338" y1="378.5" y2="378.5" class="net_4"/>
  <line x1="338" x2="338" y1="378.5" y2="363.5" class="net_4"/>
  <circle cx="338" cy="378.5" r="2" style="fill:#000" class="net_4"/>
  <line x1="338" x2="367" y1="363.5" y2="363.5" class="net_4"/>
  <line x1="399" x2="429" y1="310" y2="310" class="net_30"/>
  <line x1="429" x2="429" y1="310" y2="423.5" class="net_30"/>
  <circle cx="429" cy="310" r="2" style="fill:#000" class="net_30"/>
  <line x1="429" x2="439" y1="423.5" y2="423.5" class="net_30"/>
  <line x1="399" x2="429" y1="310" y2="310" class="net_30"/>
  <line x1="429" x2="429" y1="310" y2="147" class="net_30"/>
  <line x1="429" x2="1157.6666666666667" y1="147" y2="147" class="net_30"/>
  <line x1="397" x2="409" y1="356" y2="356" class="net_32"/>
  <line x1="409" x2="409" y1="356" y2="438.5" class="net_32"/>
  <circle cx="409" cy="356" r="2" style="fill:#000" class="net_32"/>
  <line x1="409" x2="439" y1="438.5" y2="438.5" class="net_32"/>
  <line x1="397" x2="409" y1="356" y2="356" class="net_32"/>
  <line x1="409" x2="409" y1="356" y2="162" class="net_32"/>
  <line x1="409" x2="1157.6666666666667" y1="162" y2="162" class="net_32"/>
  <line x1="475" x2="485" y1="371" y2="371" class="net_31"/>
  <line x1="485" x2="485" y1="371" y2="416" class="net_31"/>
  <line x1="485" x2="510" y1="416" y2="416" class="net_31"/>
  <line x1="475" x2="510" y1="431" y2="431" class="net_33"/>
  <line x1="82" x2="159" y1="94.5" y2="94.5" class="net_13"/>
  <line x1="159" x2="159" y1="94.5" y2="499.5" class="net_13"/>
  <line x1="159" x2="586" y1="499.5" y2="499.5" class="net_13"/>
  <line x1="82" x2="159" y1="94.5" y2="94.5" class="net_13"/>
  <line x1="159" x2="159" y1="94.5" y2="469.5" class="net_13"/>
  <circle cx="159" cy="469.5" r="2" style="fill:#000" class="net_13"/>
  <line x1="159" x2="514" y1="469.5" y2="469.5" class="net_13"/>
  <line x1="82" x2="209" y1="584.5" y2="584.5" class="net_5"/>
  <line x1="209" x2="209" y1="584.5" y2="514.5" class="net_5"/>
  <circle cx="209" cy="514.5" r="2" style="fill:#000" class="net_5"/>
  <line x1="209" x2="586" y1="514.5" y2="514.5" class="net_5"/>
  <line x1="82" x2="209" y1="584.5" y2="584.5" class="net_5"/>
  <line x1="209" x2="209" y1="584.5" y2="484.5" class="net_5"/>
  <line x1="209" x2="514" y1="484.5" y2="484.5" class="net_5"/>
  <line x1="546" x2="576" y1="423.5" y2="423.5" class="net_34"/>
  <line x1="576" x2="576" y1="423.5" y2="559.5" class="net_34"/>
  <circle cx="576" cy="423.5" r="2" style="fill:#000" class="net_34"/>
  <line x1="576" x2="586" y1="559.5" y2="559.5" class="net_34"/>
  <line x1="546" x2="576" y1="423.5" y2="423.5" class="net_34"/>
  <line x1="576" x2="576" y1="423.5" y2="344" class="net_34"/>
  <line x1="576" x2="1157.6666666666667" y1="344" y2="344" class="net_34"/>
  <line x1="544" x2="566" y1="477" y2="477" class="net_36"/>
  <line x1="566" x2="566" y1="477" y2="574.5" class="net_36"/>
  <circle cx="566" cy="477" r="2" style="fill:#000" class="net_36"/>
  <line x1="566" x2="586" y1="574.5" y2="574.5" class="net_36"/>
  <line x1="544" x2="566" y1="477" y2="477" class="net_36"/>
  <line x1="566" x2="566" y1="477" y2="359" class="net_36"/>
  <line x1="566" x2="1157.6666666666667" y1="359" y2="359" class="net_36"/>
  <line x1="622" x2="632" y1="507" y2="507" class="net_35"/>
  <line x1="632" x2="632" y1="507" y2="552" class="net_35"/>
  <line x1="632" x2="659" y1="552" y2="552" class="net_35"/>
  <line x1="622" x2="659" y1="567" y2="567" class="net_37"/>
  <line x1="82" x2="149" y1="114.5" y2="114.5" class="net_14"/>
  <line x1="149" x2="149" y1="114.5" y2="620.5" class="net_14"/>
  <line x1="149" x2="657" y1="620.5" y2="620.5" class="net_14"/>
  <line x1="82" x2="149" y1="114.5" y2="114.5" class="net_14"/>
  <line x1="149" x2="149" y1="114.5" y2="589.5" class="net_14"/>
  <circle cx="149" cy="589.5" r="2" style="fill:#000" class="net_14"/>
  <line x1="149" x2="733" y1="589.5" y2="589.5" class="net_14"/>
  <line x1="82" x2="139" y1="604.5" y2="604.5" class="net_6"/>
  <line x1="139" x2="139" y1="604.5" y2="635.5" class="net_6"/>
  <circle cx="139" cy="604.5" r="2" style="fill:#000" class="net_6"/>
  <line x1="139" x2="657" y1="635.5" y2="635.5" class="net_6"/>
  <line x1="82" x2="733" y1="604.5" y2="604.5" class="net_6"/>
  <line x1="693" x2="703" y1="628" y2="628" class="net_39"/>
  <line x1="703" x2="703" y1="628" y2="411.5" class="net_39"/>
  <circle cx="703" cy="628" r="2" style="fill:#000" class="net_39"/>
  <line x1="703" x2="1086" y1="411.5" y2="411.5" class="net_39"/>
  <line x1="693" x2="703" y1="628" y2="628" class="net_39"/>
  <line x1="703" x2="703" y1="628" y2="725.5" class="net_39"/>
  <line x1="703" x2="728" y1="725.5" y2="725.5" class="net_39"/>
  <line x1="760" x2="774" y1="597" y2="597" class="net_40"/>
  <line x1="774" x2="774" y1="597" y2="426.5" class="net_40"/>
  <circle cx="774" cy="597" r="2" style="fill:#000" class="net_40"/>
  <line x1="774" x2="1086" y1="426.5" y2="426.5" class="net_40"/>
  <line x1="760" x2="774" y1="597" y2="597" class="net_40"/>
  <line x1="774" x2="774" y1="597" y2="703" class="net_40"/>
  <line x1="774" x2="800" y1="703" y2="703" class="net_40"/>
  <line x1="689" x2="713" y1="559.5" y2="559.5" class="net_38"/>
  <line x1="713" x2="713" y1="559.5" y2="395.5" class="net_38"/>
  <line x1="713" x2="1128" y1="395.5" y2="395.5" class="net_38"/>
  <line x1="1128" x2="1128" y1="395.5" y2="404" class="net_38"/>
  <circle cx="713" cy="559.5" r="2" style="fill:#000" class="net_38"/>
  <line x1="1128" x2="1156" y1="404" y2="404" class="net_38"/>
  <line x1="689" x2="713" y1="559.5" y2="559.5" class="net_38"/>
  <line x1="713" x2="713" y1="559.5" y2="710.5" class="net_38"/>
  <line x1="713" x2="728" y1="710.5" y2="710.5" class="net_38"/>
  <line x1="1116" x2="1156" y1="419" y2="419" class="net_41"/>
  <line x1="82" x2="169" y1="134.5" y2="134.5" class="net_15"/>
  <line x1="169" x2="169" y1="134.5" y2="173" class="net_15"/>
  <line x1="169" x2="556" y1="173" y2="173" class="net_15"/>
  <line x1="556" x2="556" y1="173" y2="453.5" class="net_15"/>
  <line x1="556" x2="784" y1="453.5" y2="453.5" class="net_15"/>
  <line x1="784" x2="784" y1="453.5" y2="437.5" class="net_15"/>
  <line x1="784" x2="862" y1="437.5" y2="437.5" class="net_15"/>
  <line x1="862" x2="862" y1="437.5" y2="635.5" class="net_15"/>
  <circle cx="169" cy="173" r="2" style="fill:#000" class="net_15"/>
  <circle cx="556" cy="453.5" r="2" style="fill:#000" class="net_15"/>
  <circle cx="784" cy="453.5" r="2" style="fill:#000" class="net_15"/>
  <line x1="862" x2="872" y1="635.5" y2="635.5" class="net_15"/>
  <line x1="82" x2="169" y1="134.5" y2="134.5" class="net_15"/>
  <line x1="169" x2="169" y1="134.5" y2="453.5" class="net_15"/>
  <line x1="169" x2="802" y1="453.5" y2="453.5" class="net_15"/>
  <line x1="82" x2="129" y1="624.5" y2="624.5" class="net_7"/>
  <line x1="129" x2="129" y1="624.5" y2="650.5" class="net_7"/>
  <line x1="129" x2="872" y1="650.5" y2="650.5" class="net_7"/>
  <line x1="82" x2="129" y1="624.5" y2="624.5" class="net_7"/>
  <line x1="129" x2="129" y1="624.5" y2="650.5" class="net_7"/>
  <line x1="129" x2="784" y1="650.5" y2="650.5" class="net_7"/>
  <line x1="784" x2="784" y1="650.5" y2="468.5" class="net_7"/>
  <circle cx="784" cy="650.5" r="2" style="fill:#000" class="net_7"/>
  <line x1="784" x2="802" y1="468.5" y2="468.5" class="net_7"/>
  <line x1="764" x2="800" y1="718" y2="718" class="net_44"/>
  <line x1="832" x2="842" y1="461" y2="461" class="net_43"/>
  <line x1="842" x2="842" y1="461" y2="695.5" class="net_43"/>
  <circle cx="842" cy="461" r="2" style="fill:#000" class="net_43"/>
  <line x1="842" x2="872" y1="695.5" y2="695.5" class="net_43"/>
  <line x1="832" x2="1128" y1="461" y2="461" class="net_43"/>
  <line x1="1128" x2="1128" y1="461" y2="604.5" class="net_43"/>
  <line x1="1128" x2="1157.6666666666667" y1="604.5" y2="604.5" class="net_43"/>
  <line x1="830" x2="872" y1="710.5" y2="710.5" class="net_45"/>
  <line x1="830" x2="852" y1="710.5" y2="710.5" class="net_45"/>
  <line x1="852" x2="852" y1="710.5" y2="619.5" class="net_45"/>
  <circle cx="852" cy="710.5" r="2" style="fill:#000" class="net_45"/>
  <line x1="852" x2="1157.6666666666667" y1="619.5" y2="619.5" class="net_45"/>
  <line x1="908" x2="918" y1="643" y2="643" class="net_42"/>
  <line x1="918" x2="918" y1="643" y2="688" class="net_42"/>
  <line x1="918" x2="943" y1="688" y2="688" class="net_42"/>
  <line x1="908" x2="943" y1="703" y2="703" class="net_46"/>
  <line x1="82" x2="119" y1="154.5" y2="154.5" class="net_16"/>
  <line x1="119" x2="119" y1="154.5" y2="740.5" class="net_16"/>
  <circle cx="119" cy="740.5" r="2" style="fill:#000" class="net_16"/>
  <line x1="119" x2="1014" y1="740.5" y2="740.5" class="net_16"/>
  <line x1="82" x2="119" y1="154.5" y2="154.5" class="net_16"/>
  <line x1="119" x2="119" y1="154.5" y2="808" class="net_16"/>
  <line x1="119" x2="947" y1="808" y2="808" class="net_16"/>
  <line x1="82" x2="109" y1="644.5" y2="644.5" class="net_8"/>
  <line x1="109" x2="109" y1="644.5" y2="755.5" class="net_8"/>
  <circle cx="109" cy="755.5" r="2" style="fill:#000" class="net_8"/>
  <line x1="109" x2="1014" y1="755.5" y2="755.5" class="net_8"/>
  <line x1="82" x2="109" y1="644.5" y2="644.5" class="net_8"/>
  <line x1="109" x2="109" y1="644.5" y2="823" class="net_8"/>
  <line x1="109" x2="947" y1="823" y2="823" class="net_8"/>
  <line x1="979" x2="999" y1="695.5" y2="695.5" class="net_47"/>
  <line x1="999" x2="999" y1="695.5" y2="800.5" class="net_47"/>
  <circle cx="999" cy="695.5" r="2" style="fill:#000" class="net_47"/>
  <line x1="999" x2="1014" y1="800.5" y2="800.5" class="net_47"/>
  <line x1="979" x2="1128" y1="695.5" y2="695.5" class="net_47"/>
  <line x1="1128" x2="1128" y1="695.5" y2="709.5" class="net_47"/>
  <line x1="1128" x2="1157.6666666666667" y1="709.5" y2="709.5" class="net_47"/>
  <line x1="977" x2="1014" y1="815.5" y2="815.5" class="net_49"/>
  <line x1="977" x2="989" y1="815.5" y2="815.5" class="net_49"/>
  <line x1="989" x2="989" y1="815.5" y2="724.5" class="net_49"/>
  <circle cx="989" cy="815.5" r="2" style="fill:#000" class="net_49"/>
  <line x1="989" x2="1157.6666666666667" y1="724.5" y2="724.5" class="net_49"/>
  <line x1="1050" x2="1060" y1="748" y2="748" class="net_48"/>
  <line x1="1060" x2="1060" y1="748" y2="793" class="net_48"/>
  <line x1="1060" x2="1086" y1="793" y2="793" class="net_48"/>
  <line x1="1050" x2="1086" y1="808" y2="808" class="net_50"/>
  <line x1="81.5" x2="81.5" y1="175" y2="194" class="net_17"/>
  <line x1="81.5" x2="99" y1="194" y2="194" class="net_17"/>
  <line x1="99" x2="99" y1="194" y2="853" class="net_17"/>
  <line x1="99" x2="1088" y1="853" y2="853" class="net_17"/>
  <line x1="81.5" x2="81.5" y1="665" y2="868" class="net_9"/>
  <line x1="81.5" x2="1088" y1="868" y2="868" class="net_9"/>
  <line x1="1116" x2="1128" y1="800.5" y2="800.5" class="net_51"/>
  <line x1="1128" x2="1128" y1="800.5" y2="845.5" class="net_51"/>
  <line x1="1128" x2="1156" y1="845.5" y2="845.5" class="net_51"/>
  <line x1="1118" x2="1156" y1="860.5" y2="860.5" class="net_52"/>
  <line x1="1257" x2="1294" y1="607" y2="607" class="net_18,19,20,21,22,23,24,25"/>
  <line x1="1187.6666666666667" x2="1251.5" y1="34.5" y2="34.5" class="net_18"/>
  <line x1="1251.5" x2="1251.5" y1="34.5" y2="596.5" class="net_18"/>
  <line x1="1187.6666666666667" x2="1241" y1="94.5" y2="94.5" class="net_19"/>
  <line x1="1241" x2="1241" y1="94.5" y2="617" class="net_19"/>
  <line x1="1241" x2="1251" y1="617" y2="617" class="net_19"/>
  <line x1="1187.6666666666667" x2="1231" y1="154.5" y2="154.5" class="net_20"/>
  <line x1="1231" x2="1231" y1="154.5" y2="637" class="net_20"/>
  <line x1="1231" x2="1251" y1="637" y2="637" class="net_20"/>
  <line x1="1187.6666666666667" x2="1221" y1="351.5" y2="351.5" class="net_21"/>
  <line x1="1221" x2="1221" y1="351.5" y2="657" class="net_21"/>
  <line x1="1221" x2="1251" y1="657" y2="657" class="net_21"/>
  <line x1="1191" x2="1211" y1="411.5" y2="411.5" class="net_22"/>
  <line x1="1211" x2="1211" y1="411.5" y2="677" class="net_22"/>
  <line x1="1211" x2="1251" y1="677" y2="677" class="net_22"/>
  <line x1="1187.6666666666667" x2="1201" y1="612" y2="612" class="net_23"/>
  <line x1="1201" x2="1201" y1="612" y2="697" class="net_23"/>
  <line x1="1201" x2="1251" y1="697" y2="697" class="net_23"/>
  <line x1="1187.6666666666667" x2="1251" y1="717" y2="717" class="net_24"/>
  <line x1="1191" x2="1251.5" y1="853" y2="853" class="net_25"/>
  <line x1="1251.5" x2="1251.5" y1="853" y2="737.5" class="net_25"/>
  <line x1="40" x2="77" y1="44.5" y2="44.5" class="net_10,11,12,13,14,15,16,17"/>
  <line x1="40" x2="77" y1="534.5" y2="534.5" class="net_2,3,4,5,6,7,8,9"/>
</svg>
