<svg xmlns="http://www.w3.org/2000/svg" xmlns:xlink="http://www.w3.org/1999/xlink" xmlns:s="https://github.com/nturley/netlistsvg" width="1298" height="880.5">
  <style>svg {
    stroke:#000;
    fill:none;
  }
  text {
    fill:#000;
    stroke:none;
    font-size:10px;
    font-weight: bold;
    font-family: "Courier New", monospace;
  }
  .nodelabel {
    text-anchor: middle;
  }
  .inputPortLabel {
    text-anchor: end;
  }
  .splitjoinBody {
    fill:#000;
  }</style>
  <g s:type="and" transform="translate(230,234)" s:width="30" s:height="25" id="cell_$abc$194$auto$blifparse.cc:371:parse_blif$195">
    <s:alias val="$and"/>
    <s:alias val="$logic_and"/>
    <s:alias val="$_AND_"/>
    <path d="M0,0 L0,25 L15,25 A15 12.5 0 0 0 15,0 Z" class="cell_$abc$194$auto$blifparse.cc:371:parse_blif$195"/>
    <g s:x="0" s:y="5" s:pid="A"/>
    <g s:x="0" s:y="20" s:pid="B"/>
    <g s:x="30" s:y="12.5" s:pid="Y"/>
  </g>
  <g s:type="nand" transform="translate(297,340)" s:width="30" s:height="25" id="cell_$abc$194$auto$blifparse.cc:371:parse_blif$196">
    <s:alias val="$nand"/>
    <s:alias val="$logic_nand"/>
    <s:alias val="$_NAND_"/>
    <s:alias val="$_ANDNOT_"/>
    <path d="M0,0 L0,25 L15,25 A15 12.5 0 0 0 15,0 Z" class="cell_$abc$194$auto$blifparse.cc:371:parse_blif$196"/>
    <circle cx="34" cy="12.5" r="3" class="cell_$abc$194$auto$blifparse.cc:371:parse_blif$196"/>
    <g s:x="0" s:y="5" s:pid="A"/>
    <g s:x="0" s:y="20" s:pid="B"/>
    <g s:x="36" s:y="12.5" s:pid="Y"/>
  </g>
  <g s:type="reduce_xor" transform="translate(229,294)" s:width="33" s:height="25" id="cell_$abc$194$auto$blifparse.cc:371:parse_blif$197">
    <s:alias val="$xor"/>
    <s:alias val="$reduce_xor"/>
    <s:alias val="$_XOR_"/>
    <path d="M3,0 A30 25 0 0 1 3,25 A30 25 0 0 0 33,12.5 A30 25 0 0 0 3,0" class="cell_$abc$194$auto$blifparse.cc:371:parse_blif$197"/>
    <path d="M0,0 A30 25 0 0 1 0,25" class="cell_$abc$194$auto$blifparse.cc:371:parse_blif$197"/>
    <g s:x="3" s:y="5" s:pid="A"/>
    <g s:x="3" s:y="20" s:pid="B"/>
    <g s:x="33" s:y="12.5" s:pid="Y"/>
  </g>
  <g s:type="nand" transform="translate(297,286.5)" s:width="30" s:height="25" id="cell_$abc$194$auto$blifparse.cc:371:parse_blif$198">
    <s:alias val="$nand"/>
    <s:alias val="$logic_nand"/>
    <s:alias val="$_NAND_"/>
    <s:alias val="$_ANDNOT_"/>
    <path d="M0,0 L0,25 L15,25 A15 12.5 0 0 0 15,0 Z" class="cell_$abc$194$auto$blifparse.cc:371:parse_blif$198"/>
    <circle cx="34" cy="12.5" r="3" class="cell_$abc$194$auto$blifparse.cc:371:parse_blif$198"/>
    <g s:x="0" s:y="5" s:pid="A"/>
    <g s:x="0" s:y="20" s:pid="B"/>
    <g s:x="36" s:y="12.5" s:pid="Y"/>
  </g>
  <g s:type="reduce_xor" transform="translate(1096.6666666666667,72)" s:width="33" s:height="25" id="cell_$abc$194$auto$blifparse.cc:371:parse_blif$199">
    <s:alias val="$xor"/>
    <s:alias val="$reduce_xor"/>
    <s:alias val="$_XOR_"/>
    <path d="M3,0 A30 25 0 0 1 3,25 A30 25 0 0 0 33,12.5 A30 25 0 0 0 3,0" class="cell_$abc$194$auto$blifparse.cc:371:parse_blif$199"/>
    <path d="M0,0 A30 25 0 0 1 0,25" class="cell_$abc$194$auto$blifparse.cc:371:parse_blif$199"/>
    <g s:x="3" s:y="5" s:pid="A"/>
    <g s:x="3" s:y="20" s:pid="B"/>
    <g s:x="33" s:y="12.5" s:pid="Y"/>
  </g>
  <g s:type="nand" transform="translate(368,347.5)" s:width="30" s:height="25" id="cell_$abc$194$auto$blifparse.cc:371:parse_blif$200">
    <s:alias val="$nand"/>
    <s:alias val="$logic_nand"/>
    <s:alias val="$_NAND_"/>
    <s:alias val="$_ANDNOT_"/>
    <path d="M0,0 L0,25 L15,25 A15 12.5 0 0 0 15,0 Z" class="cell_$abc$194$auto$blifparse.cc:371:parse_blif$200"/>
    <circle cx="34" cy="12.5" r="3" class="cell_$abc$194$auto$blifparse.cc:371:parse_blif$200"/>
    <g s:x="0" s:y="5" s:pid="A"/>
    <g s:x="0" s:y="20" s:pid="B"/>
    <g s:x="36" s:y="12.5" s:pid="Y"/>
  </g>
  <g s:type="nand" transform="translate(439,453.5)" s:width="30" s:height="25" id="cell_$abc$194$auto$blifparse.cc:371:parse_blif$201">
    <s:alias val="$nand"/>
    <s:alias val="$logic_nand"/>
    <s:alias val="$_NAND_"/>
    <s:alias val="$_ANDNOT_"/>
    <path d="M0,0 L0,25 L15,25 A15 12.5 0 0 0 15,0 Z" class="cell_$abc$194$auto$blifparse.cc:371:parse_blif$201"/>
    <circle cx="34" cy="12.5" r="3" class="cell_$abc$194$auto$blifparse.cc:371:parse_blif$201"/>
    <g s:x="0" s:y="5" s:pid="A"/>
    <g s:x="0" s:y="20" s:pid="B"/>
    <g s:x="36" s:y="12.5" s:pid="Y"/>
  </g>
  <g s:type="reduce_xor" transform="translate(369,401)" s:width="33" s:height="25" id="cell_$abc$194$auto$blifparse.cc:371:parse_blif$202">
    <s:alias val="$xor"/>
    <s:alias val="$reduce_xor"/>
    <s:alias val="$_XOR_"/>
    <path d="M3,0 A30 25 0 0 1 3,25 A30 25 0 0 0 33,12.5 A30 25 0 0 0 3,0" class="cell_$abc$194$auto$blifparse.cc:371:parse_blif$202"/>
    <path d="M0,0 A30 25 0 0 1 0,25" class="cell_$abc$194$auto$blifparse.cc:371:parse_blif$202"/>
    <g s:x="3" s:y="5" s:pid="A"/>
    <g s:x="3" s:y="20" s:pid="B"/>
    <g s:x="33" s:y="12.5" s:pid="Y"/>
  </g>
  <g s:type="nand" transform="translate(439,393.5)" s:width="30" s:height="25" id="cell_$abc$194$auto$blifparse.cc:371:parse_blif$203">
    <s:alias val="$nand"/>
    <s:alias val="$logic_nand"/>
    <s:alias val="$_NAND_"/>
    <s:alias val="$_ANDNOT_"/>
    <path d="M0,0 L0,25 L15,25 A15 12.5 0 0 0 15,0 Z" class="cell_$abc$194$auto$blifparse.cc:371:parse_blif$203"/>
    <circle cx="34" cy="12.5" r="3" class="cell_$abc$194$auto$blifparse.cc:371:parse_blif$203"/>
    <g s:x="0" s:y="5" s:pid="A"/>
    <g s:x="0" s:y="20" s:pid="B"/>
    <g s:x="36" s:y="12.5" s:pid="Y"/>
  </g>
  <g s:type="reduce_xor" transform="translate(1096.6666666666667,132)" s:width="33" s:height="25" id="cell_$abc$194$auto$blifparse.cc:371:parse_blif$204">
    <s:alias val="$xor"/>
    <s:alias val="$reduce_xor"/>
    <s:alias val="$_XOR_"/>
    <path d="M3,0 A30 25 0 0 1 3,25 A30 25 0 0 0 33,12.5 A30 25 0 0 0 3,0" class="cell_$abc$194$auto$blifparse.cc:371:parse_blif$204"/>
    <path d="M0,0 A30 25 0 0 1 0,25" class="cell_$abc$194$auto$blifparse.cc:371:parse_blif$204"/>
    <g s:x="3" s:y="5" s:pid="A"/>
    <g s:x="3" s:y="20" s:pid="B"/>
    <g s:x="33" s:y="12.5" s:pid="Y"/>
  </g>
  <g s:type="nand" transform="translate(510,461)" s:width="30" s:height="25" id="cell_$abc$194$auto$blifparse.cc:371:parse_blif$205">
    <s:alias val="$nand"/>
    <s:alias val="$logic_nand"/>
    <s:alias val="$_NAND_"/>
    <s:alias val="$_ANDNOT_"/>
    <path d="M0,0 L0,25 L15,25 A15 12.5 0 0 0 15,0 Z" class="cell_$abc$194$auto$blifparse.cc:371:parse_blif$205"/>
    <circle cx="34" cy="12.5" r="3" class="cell_$abc$194$auto$blifparse.cc:371:parse_blif$205"/>
    <g s:x="0" s:y="5" s:pid="A"/>
    <g s:x="0" s:y="20" s:pid="B"/>
    <g s:x="36" s:y="12.5" s:pid="Y"/>
  </g>
  <g s:type="nand" transform="translate(581,567)" s:width="30" s:height="25" id="cell_$abc$194$auto$blifparse.cc:371:parse_blif$206">
    <s:alias val="$nand"/>
    <s:alias val="$logic_nand"/>
    <s:alias val="$_NAND_"/>
    <s:alias val="$_ANDNOT_"/>
    <path d="M0,0 L0,25 L15,25 A15 12.5 0 0 0 15,0 Z" class="cell_$abc$194$auto$blifparse.cc:371:parse_blif$206"/>
    <circle cx="34" cy="12.5" r="3" class="cell_$abc$194$auto$blifparse.cc:371:parse_blif$206"/>
    <g s:x="0" s:y="5" s:pid="A"/>
    <g s:x="0" s:y="20" s:pid="B"/>
    <g s:x="36" s:y="12.5" s:pid="Y"/>
  </g>
  <g s:type="reduce_xor" transform="translate(511,521)" s:width="33" s:height="25" id="cell_$abc$194$auto$blifparse.cc:371:parse_blif$207">
    <s:alias val="$xor"/>
    <s:alias val="$reduce_xor"/>
    <s:alias val="$_XOR_"/>
    <path d="M3,0 A30 25 0 0 1 3,25 A30 25 0 0 0 33,12.5 A30 25 0 0 0 3,0" class="cell_$abc$194$auto$blifparse.cc:371:parse_blif$207"/>
    <path d="M0,0 A30 25 0 0 1 0,25" class="cell_$abc$194$auto$blifparse.cc:371:parse_blif$207"/>
    <g s:x="3" s:y="5" s:pid="A"/>
    <g s:x="3" s:y="20" s:pid="B"/>
    <g s:x="33" s:y="12.5" s:pid="Y"/>
  </g>
  <g s:type="nand" transform="translate(581,513.5)" s:width="30" s:height="25" id="cell_$abc$194$auto$blifparse.cc:371:parse_blif$208">
    <s:alias val="$nand"/>
    <s:alias val="$logic_nand"/>
    <s:alias val="$_NAND_"/>
    <s:alias val="$_ANDNOT_"/>
    <path d="M0,0 L0,25 L15,25 A15 12.5 0 0 0 15,0 Z" class="cell_$abc$194$auto$blifparse.cc:371:parse_blif$208"/>
    <circle cx="34" cy="12.5" r="3" class="cell_$abc$194$auto$blifparse.cc:371:parse_blif$208"/>
    <g s:x="0" s:y="5" s:pid="A"/>
    <g s:x="0" s:y="20" s:pid="B"/>
    <g s:x="36" s:y="12.5" s:pid="Y"/>
  </g>
  <g s:type="reduce_xor" transform="translate(1096.6666666666667,192)" s:width="33" s:height="25" id="cell_$abc$194$auto$blifparse.cc:371:parse_blif$209">
    <s:alias val="$xor"/>
    <s:alias val="$reduce_xor"/>
    <s:alias val="$_XOR_"/>
    <path d="M3,0 A30 25 0 0 1 3,25 A30 25 0 0 0 33,12.5 A30 25 0 0 0 3,0" class="cell_$abc$194$auto$blifparse.cc:371:parse_blif$209"/>
    <path d="M0,0 A30 25 0 0 1 0,25" class="cell_$abc$194$auto$blifparse.cc:371:parse_blif$209"/>
    <g s:x="3" s:y="5" s:pid="A"/>
    <g s:x="3" s:y="20" s:pid="B"/>
    <g s:x="33" s:y="12.5" s:pid="Y"/>
  </g>
  <g s:type="nand" transform="translate(652,574.5)" s:width="30" s:height="25" id="cell_$abc$194$auto$blifparse.cc:371:parse_blif$210">
    <s:alias val="$nand"/>
    <s:alias val="$logic_nand"/>
    <s:alias val="$_NAND_"/>
    <s:alias val="$_ANDNOT_"/>
    <path d="M0,0 L0,25 L15,25 A15 12.5 0 0 0 15,0 Z" class="cell_$abc$194$auto$blifparse.cc:371:parse_blif$210"/>
    <circle cx="34" cy="12.5" r="3" class="cell_$abc$194$auto$blifparse.cc:371:parse_blif$210"/>
    <g s:x="0" s:y="5" s:pid="A"/>
    <g s:x="0" s:y="20" s:pid="B"/>
    <g s:x="36" s:y="12.5" s:pid="Y"/>
  </g>
  <g s:type="nand" transform="translate(728,673)" s:width="30" s:height="25" id="cell_$abc$194$auto$blifparse.cc:371:parse_blif$211">
    <s:alias val="$nand"/>
    <s:alias val="$logic_nand"/>
    <s:alias val="$_NAND_"/>
    <s:alias val="$_ANDNOT_"/>
    <path d="M0,0 L0,25 L15,25 A15 12.5 0 0 0 15,0 Z" class="cell_$abc$194$auto$blifparse.cc:371:parse_blif$211"/>
    <circle cx="34" cy="12.5" r="3" class="cell_$abc$194$auto$blifparse.cc:371:parse_blif$211"/>
    <g s:x="0" s:y="5" s:pid="A"/>
    <g s:x="0" s:y="20" s:pid="B"/>
    <g s:x="36" s:y="12.5" s:pid="Y"/>
  </g>
  <g s:type="reduce_xor" transform="translate(653,620.5)" s:width="33" s:height="25" id="cell_$abc$194$auto$blifparse.cc:371:parse_blif$212">
    <s:alias val="$xor"/>
    <s:alias val="$reduce_xor"/>
    <s:alias val="$_XOR_"/>
    <path d="M3,0 A30 25 0 0 1 3,25 A30 25 0 0 0 33,12.5 A30 25 0 0 0 3,0" class="cell_$abc$194$auto$blifparse.cc:371:parse_blif$212"/>
    <path d="M0,0 A30 25 0 0 1 0,25" class="cell_$abc$194$auto$blifparse.cc:371:parse_blif$212"/>
    <g s:x="3" s:y="5" s:pid="A"/>
    <g s:x="3" s:y="20" s:pid="B"/>
    <g s:x="33" s:y="12.5" s:pid="Y"/>
  </g>
  <g s:type="nand" transform="translate(728,613)" s:width="30" s:height="25" id="cell_$abc$194$auto$blifparse.cc:371:parse_blif$213">
    <s:alias val="$nand"/>
    <s:alias val="$logic_nand"/>
    <s:alias val="$_NAND_"/>
    <s:alias val="$_ANDNOT_"/>
    <path d="M0,0 L0,25 L15,25 A15 12.5 0 0 0 15,0 Z" class="cell_$abc$194$auto$blifparse.cc:371:parse_blif$213"/>
    <circle cx="34" cy="12.5" r="3" class="cell_$abc$194$auto$blifparse.cc:371:parse_blif$213"/>
    <g s:x="0" s:y="5" s:pid="A"/>
    <g s:x="0" s:y="20" s:pid="B"/>
    <g s:x="36" s:y="12.5" s:pid="Y"/>
  </g>
  <g s:type="reduce_xor" transform="translate(1096.6666666666667,696.5)" s:width="33" s:height="25" id="cell_$abc$194$auto$blifparse.cc:371:parse_blif$214">
    <s:alias val="$xor"/>
    <s:alias val="$reduce_xor"/>
    <s:alias val="$_XOR_"/>
    <path d="M3,0 A30 25 0 0 1 3,25 A30 25 0 0 0 33,12.5 A30 25 0 0 0 3,0" class="cell_$abc$194$auto$blifparse.cc:371:parse_blif$214"/>
    <path d="M0,0 A30 25 0 0 1 0,25" class="cell_$abc$194$auto$blifparse.cc:371:parse_blif$214"/>
    <g s:x="3" s:y="5" s:pid="A"/>
    <g s:x="3" s:y="20" s:pid="B"/>
    <g s:x="33" s:y="12.5" s:pid="Y"/>
  </g>
  <g s:type="nand" transform="translate(799,680.5)" s:width="30" s:height="25" id="cell_$abc$194$auto$blifparse.cc:371:parse_blif$215">
    <s:alias val="$nand"/>
    <s:alias val="$logic_nand"/>
    <s:alias val="$_NAND_"/>
    <s:alias val="$_ANDNOT_"/>
    <path d="M0,0 L0,25 L15,25 A15 12.5 0 0 0 15,0 Z" class="cell_$abc$194$auto$blifparse.cc:371:parse_blif$215"/>
    <circle cx="34" cy="12.5" r="3" class="cell_$abc$194$auto$blifparse.cc:371:parse_blif$215"/>
    <g s:x="0" s:y="5" s:pid="A"/>
    <g s:x="0" s:y="20" s:pid="B"/>
    <g s:x="36" s:y="12.5" s:pid="Y"/>
  </g>
  <g s:type="nand" transform="translate(870,536)" s:width="30" s:height="25" id="cell_$abc$194$auto$blifparse.cc:371:parse_blif$216">
    <s:alias val="$nand"/>
    <s:alias val="$logic_nand"/>
    <s:alias val="$_NAND_"/>
    <s:alias val="$_ANDNOT_"/>
    <path d="M0,0 L0,25 L15,25 A15 12.5 0 0 0 15,0 Z" class="cell_$abc$194$auto$blifparse.cc:371:parse_blif$216"/>
    <circle cx="34" cy="12.5" r="3" class="cell_$abc$194$auto$blifparse.cc:371:parse_blif$216"/>
    <g s:x="0" s:y="5" s:pid="A"/>
    <g s:x="0" s:y="20" s:pid="B"/>
    <g s:x="36" s:y="12.5" s:pid="Y"/>
  </g>
  <g s:type="reduce_xor" transform="translate(800,726.5)" s:width="33" s:height="25" id="cell_$abc$194$auto$blifparse.cc:371:parse_blif$217">
    <s:alias val="$xor"/>
    <s:alias val="$reduce_xor"/>
    <s:alias val="$_XOR_"/>
    <path d="M3,0 A30 25 0 0 1 3,25 A30 25 0 0 0 33,12.5 A30 25 0 0 0 3,0" class="cell_$abc$194$auto$blifparse.cc:371:parse_blif$217"/>
    <path d="M0,0 A30 25 0 0 1 0,25" class="cell_$abc$194$auto$blifparse.cc:371:parse_blif$217"/>
    <g s:x="3" s:y="5" s:pid="A"/>
    <g s:x="3" s:y="20" s:pid="B"/>
    <g s:x="33" s:y="12.5" s:pid="Y"/>
  </g>
  <g s:type="nand" transform="translate(870,644)" s:width="30" s:height="25" id="cell_$abc$194$auto$blifparse.cc:371:parse_blif$218">
    <s:alias val="$nand"/>
    <s:alias val="$logic_nand"/>
    <s:alias val="$_NAND_"/>
    <s:alias val="$_ANDNOT_"/>
    <path d="M0,0 L0,25 L15,25 A15 12.5 0 0 0 15,0 Z" class="cell_$abc$194$auto$blifparse.cc:371:parse_blif$218"/>
    <circle cx="34" cy="12.5" r="3" class="cell_$abc$194$auto$blifparse.cc:371:parse_blif$218"/>
    <g s:x="0" s:y="5" s:pid="A"/>
    <g s:x="0" s:y="20" s:pid="B"/>
    <g s:x="36" s:y="12.5" s:pid="Y"/>
  </g>
  <g s:type="reduce_xor" transform="translate(1096.6666666666667,756.5)" s:width="33" s:height="25" id="cell_$abc$194$auto$blifparse.cc:371:parse_blif$219">
    <s:alias val="$xor"/>
    <s:alias val="$reduce_xor"/>
    <s:alias val="$_XOR_"/>
    <path d="M3,0 A30 25 0 0 1 3,25 A30 25 0 0 0 33,12.5 A30 25 0 0 0 3,0" class="cell_$abc$194$auto$blifparse.cc:371:parse_blif$219"/>
    <path d="M0,0 A30 25 0 0 1 0,25" class="cell_$abc$194$auto$blifparse.cc:371:parse_blif$219"/>
    <g s:x="3" s:y="5" s:pid="A"/>
    <g s:x="3" s:y="20" s:pid="B"/>
    <g s:x="33" s:y="12.5" s:pid="Y"/>
  </g>
  <g s:type="and" transform="translate(942,636.5)" s:width="30" s:height="25" id="cell_$abc$194$auto$blifparse.cc:371:parse_blif$220">
    <s:alias val="$and"/>
    <s:alias val="$logic_and"/>
    <s:alias val="$_AND_"/>
    <path d="M0,0 L0,25 L15,25 A15 12.5 0 0 0 15,0 Z" class="cell_$abc$194$auto$blifparse.cc:371:parse_blif$220"/>
    <g s:x="0" s:y="5" s:pid="A"/>
    <g s:x="0" s:y="20" s:pid="B"/>
    <g s:x="30" s:y="12.5" s:pid="Y"/>
  </g>
  <g s:type="nand" transform="translate(1009,309)" s:width="30" s:height="25" id="cell_$abc$194$auto$blifparse.cc:371:parse_blif$221">
    <s:alias val="$nand"/>
    <s:alias val="$logic_nand"/>
    <s:alias val="$_NAND_"/>
    <s:alias val="$_ANDNOT_"/>
    <path d="M0,0 L0,25 L15,25 A15 12.5 0 0 0 15,0 Z" class="cell_$abc$194$auto$blifparse.cc:371:parse_blif$221"/>
    <circle cx="34" cy="12.5" r="3" class="cell_$abc$194$auto$blifparse.cc:371:parse_blif$221"/>
    <g s:x="0" s:y="5" s:pid="A"/>
    <g s:x="0" s:y="20" s:pid="B"/>
    <g s:x="36" s:y="12.5" s:pid="Y"/>
  </g>
  <g s:type="reduce_xor" transform="translate(941,741.5)" s:width="33" s:height="25" id="cell_$abc$194$auto$blifparse.cc:371:parse_blif$222">
    <s:alias val="$xor"/>
    <s:alias val="$reduce_xor"/>
    <s:alias val="$_XOR_"/>
    <path d="M3,0 A30 25 0 0 1 3,25 A30 25 0 0 0 33,12.5 A30 25 0 0 0 3,0" class="cell_$abc$194$auto$blifparse.cc:371:parse_blif$222"/>
    <path d="M0,0 A30 25 0 0 1 0,25" class="cell_$abc$194$auto$blifparse.cc:371:parse_blif$222"/>
    <g s:x="3" s:y="5" s:pid="A"/>
    <g s:x="3" s:y="20" s:pid="B"/>
    <g s:x="33" s:y="12.5" s:pid="Y"/>
  </g>
  <g s:type="nand" transform="translate(1009,644)" s:width="30" s:height="25" id="cell_$abc$194$auto$blifparse.cc:371:parse_blif$223">
    <s:alias val="$nand"/>
    <s:alias val="$logic_nand"/>
    <s:alias val="$_NAND_"/>
    <s:alias val="$_ANDNOT_"/>
    <path d="M0,0 L0,25 L15,25 A15 12.5 0 0 0 15,0 Z" class="cell_$abc$194$auto$blifparse.cc:371:parse_blif$223"/>
    <circle cx="34" cy="12.5" r="3" class="cell_$abc$194$auto$blifparse.cc:371:parse_blif$223"/>
    <g s:x="0" s:y="5" s:pid="A"/>
    <g s:x="0" s:y="20" s:pid="B"/>
    <g s:x="36" s:y="12.5" s:pid="Y"/>
  </g>
  <g s:type="reduce_nxor" transform="translate(1095,816.5)" s:width="33" s:height="25" id="cell_$abc$194$auto$blifparse.cc:371:parse_blif$224">
    <s:alias val="$xnor"/>
    <s:alias val="$reduce_xnor"/>
    <s:alias val="$_XNOR_"/>
    <path d="M3,0 A30 25 0 0 1 3,25 A30 25 0 0 0 33,12.5 A30 25 0 0 0 3,0" class="cell_$abc$194$auto$blifparse.cc:371:parse_blif$224"/>
    <path d="M0,0 A30 25 0 0 1 0,25" class="cell_$abc$194$auto$blifparse.cc:371:parse_blif$224"/>
    <circle cx="35" cy="12.5" r="3" class="cell_$abc$194$auto$blifparse.cc:371:parse_blif$224"/>
    <g s:x="3" s:y="5" s:pid="A"/>
    <g s:x="3" s:y="20" s:pid="B"/>
    <g s:x="38" s:y="12.5" s:pid="Y"/>
  </g>
  <g s:type="nand" transform="translate(1097,636.5)" s:width="30" s:height="25" id="cell_$abc$194$auto$blifparse.cc:371:parse_blif$225">
    <s:alias val="$nand"/>
    <s:alias val="$logic_nand"/>
    <s:alias val="$_NAND_"/>
    <s:alias val="$_ANDNOT_"/>
    <path d="M0,0 L0,25 L15,25 A15 12.5 0 0 0 15,0 Z" class="cell_$abc$194$auto$blifparse.cc:371:parse_blif$225"/>
    <circle cx="34" cy="12.5" r="3" class="cell_$abc$194$auto$blifparse.cc:371:parse_blif$225"/>
    <g s:x="0" s:y="5" s:pid="A"/>
    <g s:x="0" s:y="20" s:pid="B"/>
    <g s:x="36" s:y="12.5" s:pid="Y"/>
  </g>
  <g s:type="reduce_xor" transform="translate(1096.6666666666667,12)" s:width="33" s:height="25" id="cell_$abc$194$auto$blifparse.cc:371:parse_blif$226">
    <s:alias val="$xor"/>
    <s:alias val="$reduce_xor"/>
    <s:alias val="$_XOR_"/>
    <path d="M3,0 A30 25 0 0 1 3,25 A30 25 0 0 0 33,12.5 A30 25 0 0 0 3,0" class="cell_$abc$194$auto$blifparse.cc:371:parse_blif$226"/>
    <path d="M0,0 A30 25 0 0 1 0,25" class="cell_$abc$194$auto$blifparse.cc:371:parse_blif$226"/>
    <g s:x="3" s:y="5" s:pid="A"/>
    <g s:x="3" s:y="20" s:pid="B"/>
    <g s:x="33" s:y="12.5" s:pid="Y"/>
  </g>
  <g s:type="inputExt" transform="translate(12,456)" s:width="30" s:height="20" id="cell_A">
    <text x="15" y="-4" class="nodelabel cell_A" s:attribute="ref">A</text>
    <s:alias val="$_inputExt_"/>
    <path d="M0,0 L0,20 L15,20 L30,10 L15,0 Z" class="cell_A"/>
    <g s:x="28" s:y="10" s:pid="Y"/>
  </g>
  <g s:type="inputExt" transform="translate(12,83.5)" s:width="30" s:height="20" id="cell_B">
    <text x="15" y="-4" class="nodelabel cell_B" s:attribute="ref">B</text>
    <s:alias val="$_inputExt_"/>
    <path d="M0,0 L0,20 L15,20 L30,10 L15,0 Z" class="cell_B"/>
    <g s:x="28" s:y="10" s:pid="Y"/>
  </g>
  <g s:type="outputExt" transform="translate(1256,689)" s:width="30" s:height="20" id="cell_O">
    <text x="15" y="-4" class="nodelabel cell_O" s:attribute="ref">O</text>
    <s:alias val="$_outputExt_"/>
    <path d="M30,0 L30,20 L15,20 L0,10 L15,0 Z" class="cell_O"/>
    <g s:x="0" s:y="10" s:pid="A"/>
  </g>
  <g s:type="join" transform="translate(1213,678.5)" s:width="4" s:height="40" id="cell_$join$,18,19,20,21,22,23,24,25,18,">
    <rect width="5" height="180" class="splitjoinBody" s:generic="body"/>
    <s:alias val="$_join_"/>
    <g s:x="5" s:y="20" s:pid="out"/>
    <g transform="translate(0,10)" s:x="0" s:y="10" s:pid="in0">
      <text x="-3" y="-4" class="inputPortLabel">0</text>
    </g>
    <g transform="translate(0,30)" s:x="0" s:y="10" s:pid="in0">
      <text x="-3" y="-4" class="inputPortLabel">1</text>
    </g>
    <g transform="translate(0,50)" s:x="0" s:y="10" s:pid="in0">
      <text x="-3" y="-4" class="inputPortLabel">2</text>
    </g>
    <g transform="translate(0,70)" s:x="0" s:y="10" s:pid="in0">
      <text x="-3" y="-4" class="inputPortLabel">3</text>
    </g>
    <g transform="translate(0,90)" s:x="0" s:y="10" s:pid="in0">
      <text x="-3" y="-4" class="inputPortLabel">4</text>
    </g>
    <g transform="translate(0,110)" s:x="0" s:y="10" s:pid="in0">
      <text x="-3" y="-4" class="inputPortLabel">5</text>
    </g>
    <g transform="translate(0,130)" s:x="0" s:y="10" s:pid="in0">
      <text x="-3" y="-4" class="inputPortLabel">6</text>
    </g>
    <g transform="translate(0,150)" s:x="0" s:y="10" s:pid="in0">
      <text x="-3" y="-4" class="inputPortLabel">7</text>
    </g>
    <g transform="translate(0,170)" s:x="0" s:y="10" s:pid="in0">
      <text x="-3" y="-4" class="inputPortLabel">8</text>
    </g>
  </g>
  <g s:type="split" transform="translate(77,73)" s:width="5" s:height="40" id="cell_$split$,10,11,12,13,14,15,16,17,">
    <rect width="5" height="140" class="splitjoinBody" s:generic="body"/>
    <s:alias val="$_split_"/>
    <g s:x="0" s:y="20" s:pid="in"/>
    <g transform="translate(4,10)" s:x="4" s:y="10" s:pid="out0">
      <text x="5" y="-4">1</text>
    </g>
    <g transform="translate(4,30)" s:x="4" s:y="10" s:pid="out0">
      <text x="5" y="-4">2</text>
    </g>
    <g transform="translate(4,50)" s:x="4" s:y="10" s:pid="out0">
      <text x="5" y="-4">3</text>
    </g>
    <g transform="translate(4,70)" s:x="4" s:y="10" s:pid="out0">
      <text x="5" y="-4">4</text>
    </g>
    <g transform="translate(4,90)" s:x="4" s:y="10" s:pid="out0">
      <text x="5" y="-4">5</text>
    </g>
    <g transform="translate(4,110)" s:x="4" s:y="10" s:pid="out0">
      <text x="5" y="-4">6</text>
    </g>
    <g transform="translate(4,130)" s:x="4" s:y="10" s:pid="out0">
      <text x="5" y="-4">7</text>
    </g>
  </g>
  <g s:type="split" transform="translate(77,445.5)" s:width="5" s:height="40" id="cell_$split$,2,3,4,5,6,7,8,9,">
    <rect width="5" height="140" class="splitjoinBody" s:generic="body"/>
    <s:alias val="$_split_"/>
    <g s:x="0" s:y="20" s:pid="in"/>
    <g transform="translate(4,10)" s:x="4" s:y="10" s:pid="out0">
      <text x="5" y="-4">1</text>
    </g>
    <g transform="translate(4,30)" s:x="4" s:y="10" s:pid="out0">
      <text x="5" y="-4">2</text>
    </g>
    <g transform="translate(4,50)" s:x="4" s:y="10" s:pid="out0">
      <text x="5" y="-4">3</text>
    </g>
    <g transform="translate(4,70)" s:x="4" s:y="10" s:pid="out0">
      <text x="5" y="-4">4</text>
    </g>
    <g transform="translate(4,90)" s:x="4" s:y="10" s:pid="out0">
      <text x="5" y="-4">5</text>
    </g>
    <g transform="translate(4,110)" s:x="4" s:y="10" s:pid="out0">
      <text x="5" y="-4">6</text>
    </g>
    <g transform="translate(4,130)" s:x="4" s:y="10" s:pid="out0">
      <text x="5" y="-4">7</text>
    </g>
  </g>
  <line x1="81.5" x2="81.5" y1="83" y2="17" class="net_11"/>
  <line x1="81.5" x2="219" y1="17" y2="17" class="net_11"/>
  <line x1="219" x2="219" y1="17" y2="239" class="net_11"/>
  <circle cx="219" cy="17" r="2" style="fill:#000" class="net_11"/>
  <line x1="219" x2="230" y1="239" y2="239" class="net_11"/>
  <line x1="81.5" x2="81.5" y1="83" y2="17" class="net_11"/>
  <line x1="81.5" x2="1099.6666666666667" y1="17" y2="17" class="net_11"/>
  <line x1="81.5" x2="81.5" y1="455.5" y2="254" class="net_3"/>
  <line x1="81.5" x2="230" y1="254" y2="254" class="net_3"/>
  <line x1="81.5" x2="81.5" y1="455.5" y2="254" class="net_3"/>
  <line x1="81.5" x2="209" y1="254" y2="254" class="net_3"/>
  <line x1="209" x2="209" y1="254" y2="32" class="net_3"/>
  <circle cx="209" cy="254" r="2" style="fill:#000" class="net_3"/>
  <line x1="209" x2="1099.6666666666667" y1="32" y2="32" class="net_3"/>
  <line x1="82" x2="199" y1="103.5" y2="103.5" class="net_12"/>
  <line x1="199" x2="199" y1="103.5" y2="345" class="net_12"/>
  <line x1="199" x2="297" y1="345" y2="345" class="net_12"/>
  <line x1="82" x2="199" y1="103.5" y2="103.5" class="net_12"/>
  <line x1="199" x2="199" y1="103.5" y2="299" class="net_12"/>
  <circle cx="199" cy="299" r="2" style="fill:#000" class="net_12"/>
  <line x1="199" x2="232" y1="299" y2="299" class="net_12"/>
  <line x1="82" x2="179" y1="476" y2="476" class="net_4"/>
  <line x1="179" x2="179" y1="476" y2="360" class="net_4"/>
  <circle cx="179" cy="360" r="2" style="fill:#000" class="net_4"/>
  <line x1="179" x2="297" y1="360" y2="360" class="net_4"/>
  <line x1="82" x2="179" y1="476" y2="476" class="net_4"/>
  <line x1="179" x2="179" y1="476" y2="314" class="net_4"/>
  <line x1="179" x2="232" y1="314" y2="314" class="net_4"/>
  <line x1="260" x2="272" y1="246.5" y2="246.5" class="net_26"/>
  <line x1="272" x2="272" y1="246.5" y2="291.5" class="net_26"/>
  <circle cx="272" cy="246.5" r="2" style="fill:#000" class="net_26"/>
  <line x1="272" x2="297" y1="291.5" y2="291.5" class="net_26"/>
  <line x1="260" x2="272" y1="246.5" y2="246.5" class="net_26"/>
  <line x1="272" x2="272" y1="246.5" y2="77" class="net_26"/>
  <line x1="272" x2="1099.6666666666667" y1="77" y2="77" class="net_26"/>
  <line x1="262" x2="297" y1="306.5" y2="306.5" class="net_28"/>
  <line x1="262" x2="282" y1="306.5" y2="306.5" class="net_28"/>
  <line x1="282" x2="282" y1="306.5" y2="92" class="net_28"/>
  <circle cx="282" cy="306.5" r="2" style="fill:#000" class="net_28"/>
  <line x1="282" x2="1099.6666666666667" y1="92" y2="92" class="net_28"/>
  <line x1="333" x2="368" y1="352.5" y2="352.5" class="net_27"/>
  <line x1="333" x2="343" y1="299" y2="299" class="net_29"/>
  <line x1="343" x2="343" y1="299" y2="367.5" class="net_29"/>
  <line x1="343" x2="368" y1="367.5" y2="367.5" class="net_29"/>
  <line x1="82" x2="189" y1="123.5" y2="123.5" class="net_13"/>
  <line x1="189" x2="189" y1="123.5" y2="458.5" class="net_13"/>
  <line x1="189" x2="439" y1="458.5" y2="458.5" class="net_13"/>
  <line x1="82" x2="189" y1="123.5" y2="123.5" class="net_13"/>
  <line x1="189" x2="189" y1="123.5" y2="406" class="net_13"/>
  <circle cx="189" cy="406" r="2" style="fill:#000" class="net_13"/>
  <line x1="189" x2="372" y1="406" y2="406" class="net_13"/>
  <line x1="82" x2="199" y1="496" y2="496" class="net_5"/>
  <line x1="199" x2="199" y1="496" y2="473.5" class="net_5"/>
  <circle cx="199" cy="473.5" r="2" style="fill:#000" class="net_5"/>
  <line x1="199" x2="439" y1="473.5" y2="473.5" class="net_5"/>
  <line x1="82" x2="199" y1="496" y2="496" class="net_5"/>
  <line x1="199" x2="199" y1="496" y2="421" class="net_5"/>
  <line x1="199" x2="372" y1="421" y2="421" class="net_5"/>
  <line x1="404" x2="414" y1="360" y2="360" class="net_30"/>
  <line x1="414" x2="414" y1="360" y2="398.5" class="net_30"/>
  <circle cx="414" cy="360" r="2" style="fill:#000" class="net_30"/>
  <line x1="414" x2="439" y1="398.5" y2="398.5" class="net_30"/>
  <line x1="404" x2="414" y1="360" y2="360" class="net_30"/>
  <line x1="414" x2="414" y1="360" y2="137" class="net_30"/>
  <line x1="414" x2="1099.6666666666667" y1="137" y2="137" class="net_30"/>
  <line x1="402" x2="439" y1="413.5" y2="413.5" class="net_32"/>
  <line x1="402" x2="424" y1="413.5" y2="413.5" class="net_32"/>
  <line x1="424" x2="424" y1="413.5" y2="152" class="net_32"/>
  <circle cx="424" cy="413.5" r="2" style="fill:#000" class="net_32"/>
  <line x1="424" x2="1099.6666666666667" y1="152" y2="152" class="net_32"/>
  <line x1="475" x2="510" y1="466" y2="466" class="net_31"/>
  <line x1="475" x2="485" y1="406" y2="406" class="net_33"/>
  <line x1="485" x2="485" y1="406" y2="481" class="net_33"/>
  <line x1="485" x2="510" y1="481" y2="481" class="net_33"/>
  <line x1="82" x2="169" y1="143.5" y2="143.5" class="net_14"/>
  <line x1="169" x2="169" y1="143.5" y2="572" class="net_14"/>
  <line x1="169" x2="581" y1="572" y2="572" class="net_14"/>
  <line x1="82" x2="169" y1="143.5" y2="143.5" class="net_14"/>
  <line x1="169" x2="169" y1="143.5" y2="526" class="net_14"/>
  <circle cx="169" cy="526" r="2" style="fill:#000" class="net_14"/>
  <line x1="169" x2="514" y1="526" y2="526" class="net_14"/>
  <line x1="82" x2="159" y1="516" y2="516" class="net_6"/>
  <line x1="159" x2="159" y1="516" y2="587" class="net_6"/>
  <line x1="159" x2="581" y1="587" y2="587" class="net_6"/>
  <line x1="82" x2="159" y1="516" y2="516" class="net_6"/>
  <line x1="159" x2="159" y1="516" y2="541" class="net_6"/>
  <circle cx="159" cy="541" r="2" style="fill:#000" class="net_6"/>
  <line x1="159" x2="514" y1="541" y2="541" class="net_6"/>
  <line x1="546" x2="556" y1="473.5" y2="473.5" class="net_34"/>
  <line x1="556" x2="556" y1="473.5" y2="518.5" class="net_34"/>
  <circle cx="556" cy="473.5" r="2" style="fill:#000" class="net_34"/>
  <line x1="556" x2="581" y1="518.5" y2="518.5" class="net_34"/>
  <line x1="546" x2="556" y1="473.5" y2="473.5" class="net_34"/>
  <line x1="556" x2="556" y1="473.5" y2="197" class="net_34"/>
  <line x1="556" x2="1099.6666666666667" y1="197" y2="197" class="net_34"/>
  <line x1="544" x2="581" y1="533.5" y2="533.5" class="net_36"/>
  <line x1="544" x2="566" y1="533.5" y2="533.5" class="net_36"/>
  <line x1="566" x2="566" y1="533.5" y2="212" class="net_36"/>
  <circle cx="566" cy="533.5" r="2" style="fill:#000" class="net_36"/>
  <line x1="566" x2="1099.6666666666667" y1="212" y2="212" class="net_36"/>
  <line x1="617" x2="652" y1="579.5" y2="579.5" class="net_35"/>
  <line x1="617" x2="627" y1="526" y2="526" class="net_37"/>
  <line x1="627" x2="627" y1="526" y2="594.5" class="net_37"/>
  <line x1="627" x2="652" y1="594.5" y2="594.5" class="net_37"/>
  <line x1="82" x2="129" y1="163.5" y2="163.5" class="net_15"/>
  <line x1="129" x2="129" y1="163.5" y2="625.5" class="net_15"/>
  <line x1="129" x2="627" y1="625.5" y2="625.5" class="net_15"/>
  <line x1="627" x2="627" y1="625.5" y2="609.5" class="net_15"/>
  <line x1="627" x2="698" y1="609.5" y2="609.5" class="net_15"/>
  <line x1="698" x2="698" y1="609.5" y2="678" class="net_15"/>
  <circle cx="627" cy="625.5" r="2" style="fill:#000" class="net_15"/>
  <line x1="698" x2="728" y1="678" y2="678" class="net_15"/>
  <line x1="82" x2="129" y1="163.5" y2="163.5" class="net_15"/>
  <line x1="129" x2="129" y1="163.5" y2="625.5" class="net_15"/>
  <line x1="129" x2="656" y1="625.5" y2="625.5" class="net_15"/>
  <line x1="82" x2="99" y1="536" y2="536" class="net_7"/>
  <line x1="99" x2="99" y1="536" y2="693" class="net_7"/>
  <line x1="99" x2="728" y1="693" y2="693" class="net_7"/>
  <line x1="82" x2="99" y1="536" y2="536" class="net_7"/>
  <line x1="99" x2="99" y1="536" y2="693" class="net_7"/>
  <line x1="99" x2="627" y1="693" y2="693" class="net_7"/>
  <line x1="627" x2="627" y1="693" y2="640.5" class="net_7"/>
  <circle cx="627" cy="693" r="2" style="fill:#000" class="net_7"/>
  <line x1="627" x2="656" y1="640.5" y2="640.5" class="net_7"/>
  <line x1="688" x2="708" y1="587" y2="587" class="net_38"/>
  <line x1="708" x2="708" y1="587" y2="618" class="net_38"/>
  <circle cx="708" cy="587" r="2" style="fill:#000" class="net_38"/>
  <line x1="708" x2="728" y1="618" y2="618" class="net_38"/>
  <line x1="688" x2="708" y1="587" y2="587" class="net_38"/>
  <line x1="708" x2="708" y1="587" y2="360.5" class="net_38"/>
  <line x1="708" x2="1075" y1="360.5" y2="360.5" class="net_38"/>
  <line x1="1075" x2="1075" y1="360.5" y2="701.5" class="net_38"/>
  <line x1="1075" x2="1099.6666666666667" y1="701.5" y2="701.5" class="net_38"/>
  <line x1="686" x2="728" y1="633" y2="633" class="net_40"/>
  <line x1="686" x2="718" y1="633" y2="633" class="net_40"/>
  <line x1="718" x2="718" y1="633" y2="371.5" class="net_40"/>
  <line x1="718" x2="1065" y1="371.5" y2="371.5" class="net_40"/>
  <line x1="1065" x2="1065" y1="371.5" y2="716.5" class="net_40"/>
  <circle cx="718" cy="633" r="2" style="fill:#000" class="net_40"/>
  <line x1="1065" x2="1099.6666666666667" y1="716.5" y2="716.5" class="net_40"/>
  <line x1="764" x2="799" y1="685.5" y2="685.5" class="net_39"/>
  <line x1="764" x2="774" y1="625.5" y2="625.5" class="net_41"/>
  <line x1="774" x2="774" y1="625.5" y2="700.5" class="net_41"/>
  <line x1="774" x2="799" y1="700.5" y2="700.5" class="net_41"/>
  <line x1="82" x2="149" y1="183.5" y2="183.5" class="net_16"/>
  <line x1="149" x2="149" y1="183.5" y2="382.5" class="net_16"/>
  <line x1="149" x2="845" y1="382.5" y2="382.5" class="net_16"/>
  <line x1="845" x2="845" y1="382.5" y2="541" class="net_16"/>
  <circle cx="149" cy="382.5" r="2" style="fill:#000" class="net_16"/>
  <line x1="845" x2="870" y1="541" y2="541" class="net_16"/>
  <line x1="82" x2="149" y1="183.5" y2="183.5" class="net_16"/>
  <line x1="149" x2="149" y1="183.5" y2="731.5" class="net_16"/>
  <line x1="149" x2="803" y1="731.5" y2="731.5" class="net_16"/>
  <line x1="82" x2="870" y1="556" y2="556" class="net_8"/>
  <line x1="82" x2="109" y1="556" y2="556" class="net_8"/>
  <line x1="109" x2="109" y1="556" y2="746.5" class="net_8"/>
  <circle cx="109" cy="556" r="2" style="fill:#000" class="net_8"/>
  <line x1="109" x2="803" y1="746.5" y2="746.5" class="net_8"/>
  <line x1="835" x2="845" y1="693" y2="693" class="net_42"/>
  <line x1="845" x2="845" y1="693" y2="649" class="net_42"/>
  <circle cx="845" cy="693" r="2" style="fill:#000" class="net_42"/>
  <line x1="845" x2="870" y1="649" y2="649" class="net_42"/>
  <line x1="835" x2="1055" y1="693" y2="693" class="net_42"/>
  <line x1="1055" x2="1055" y1="693" y2="761.5" class="net_42"/>
  <line x1="1055" x2="1099.6666666666667" y1="761.5" y2="761.5" class="net_42"/>
  <line x1="833" x2="855" y1="739" y2="739" class="net_44"/>
  <line x1="855" x2="855" y1="739" y2="664" class="net_44"/>
  <circle cx="855" cy="739" r="2" style="fill:#000" class="net_44"/>
  <line x1="855" x2="870" y1="664" y2="664" class="net_44"/>
  <line x1="833" x2="855" y1="739" y2="739" class="net_44"/>
  <line x1="855" x2="855" y1="739" y2="776.5" class="net_44"/>
  <line x1="855" x2="1099.6666666666667" y1="776.5" y2="776.5" class="net_44"/>
  <line x1="906" x2="916" y1="548.5" y2="548.5" class="net_43"/>
  <line x1="916" x2="916" y1="548.5" y2="641.5" class="net_43"/>
  <line x1="916" x2="942" y1="641.5" y2="641.5" class="net_43"/>
  <line x1="906" x2="942" y1="656.5" y2="656.5" class="net_45"/>
  <line x1="81.5" x2="81.5" y1="204" y2="223" class="net_17"/>
  <line x1="81.5" x2="984" y1="223" y2="223" class="net_17"/>
  <line x1="984" x2="984" y1="223" y2="314" class="net_17"/>
  <line x1="984" x2="1009" y1="314" y2="314" class="net_17"/>
  <line x1="81.5" x2="81.5" y1="204" y2="223" class="net_17"/>
  <line x1="81.5" x2="119" y1="223" y2="223" class="net_17"/>
  <line x1="119" x2="119" y1="223" y2="715.5" class="net_17"/>
  <line x1="119" x2="916" y1="715.5" y2="715.5" class="net_17"/>
  <line x1="916" x2="916" y1="715.5" y2="746.5" class="net_17"/>
  <circle cx="119" cy="223" r="2" style="fill:#000" class="net_17"/>
  <line x1="916" x2="944" y1="746.5" y2="746.5" class="net_17"/>
  <line x1="81.5" x2="81.5" y1="576.5" y2="761.5" class="net_9"/>
  <line x1="81.5" x2="139" y1="761.5" y2="761.5" class="net_9"/>
  <line x1="139" x2="139" y1="761.5" y2="329" class="net_9"/>
  <circle cx="139" cy="761.5" r="2" style="fill:#000" class="net_9"/>
  <line x1="139" x2="1009" y1="329" y2="329" class="net_9"/>
  <line x1="81.5" x2="81.5" y1="576.5" y2="761.5" class="net_9"/>
  <line x1="81.5" x2="944" y1="761.5" y2="761.5" class="net_9"/>
  <line x1="972" x2="1009" y1="649" y2="649" class="net_46"/>
  <line x1="972" x2="994" y1="649" y2="649" class="net_46"/>
  <line x1="994" x2="994" y1="649" y2="821.5" class="net_46"/>
  <circle cx="994" cy="649" r="2" style="fill:#000" class="net_46"/>
  <line x1="994" x2="1098" y1="821.5" y2="821.5" class="net_46"/>
  <line x1="974" x2="984" y1="754" y2="754" class="net_48"/>
  <line x1="984" x2="984" y1="754" y2="664" class="net_48"/>
  <circle cx="984" cy="754" r="2" style="fill:#000" class="net_48"/>
  <line x1="984" x2="1009" y1="664" y2="664" class="net_48"/>
  <line x1="974" x2="984" y1="754" y2="754" class="net_48"/>
  <line x1="984" x2="984" y1="754" y2="836.5" class="net_48"/>
  <line x1="984" x2="1098" y1="836.5" y2="836.5" class="net_48"/>
  <line x1="1045" x2="1085" y1="321.5" y2="321.5" class="net_47"/>
  <line x1="1085" x2="1085" y1="321.5" y2="641.5" class="net_47"/>
  <line x1="1085" x2="1097" y1="641.5" y2="641.5" class="net_47"/>
  <line x1="1045" x2="1097" y1="656.5" y2="656.5" class="net_49"/>
  <line x1="1219" x2="1256" y1="699" y2="699" class="net_18,19,20,21,22,23,24,25,18"/>
  <line x1="1133" x2="1213.5" y1="649" y2="649" class="net_18"/>
  <line x1="1213.5" x2="1213.5" y1="649" y2="688.5" class="net_18"/>
  <line x1="1133" x2="1143" y1="649" y2="649" class="net_18"/>
  <line x1="1143" x2="1143" y1="649" y2="868.5" class="net_18"/>
  <line x1="1143" x2="1213.5" y1="868.5" y2="868.5" class="net_18"/>
  <circle cx="1143" cy="649" r="2" style="fill:#000" class="net_18"/>
  <line x1="1213.5" x2="1213.5" y1="868.5" y2="849.5" class="net_18"/>
  <line x1="1129.6666666666667" x2="1203" y1="24.5" y2="24.5" class="net_19"/>
  <line x1="1203" x2="1203" y1="24.5" y2="709" class="net_19"/>
  <line x1="1203" x2="1213" y1="709" y2="709" class="net_19"/>
  <line x1="1129.6666666666667" x2="1193" y1="84.5" y2="84.5" class="net_20"/>
  <line x1="1193" x2="1193" y1="84.5" y2="729" class="net_20"/>
  <line x1="1193" x2="1213" y1="729" y2="729" class="net_20"/>
  <line x1="1129.6666666666667" x2="1183" y1="144.5" y2="144.5" class="net_21"/>
  <line x1="1183" x2="1183" y1="144.5" y2="749" class="net_21"/>
  <line x1="1183" x2="1213" y1="749" y2="749" class="net_21"/>
  <line x1="1129.6666666666667" x2="1173" y1="204.5" y2="204.5" class="net_22"/>
  <line x1="1173" x2="1173" y1="204.5" y2="769" class="net_22"/>
  <line x1="1173" x2="1213" y1="769" y2="769" class="net_22"/>
  <line x1="1129.6666666666667" x2="1163" y1="709" y2="709" class="net_23"/>
  <line x1="1163" x2="1163" y1="709" y2="789" class="net_23"/>
  <line x1="1163" x2="1213" y1="789" y2="789" class="net_23"/>
  <line x1="1129.6666666666667" x2="1153" y1="769" y2="769" class="net_24"/>
  <line x1="1153" x2="1153" y1="769" y2="809" class="net_24"/>
  <line x1="1153" x2="1213" y1="809" y2="809" class="net_24"/>
  <line x1="1133" x2="1213" y1="829" y2="829" class="net_25"/>
  <line x1="40" x2="77" y1="93.5" y2="93.5" class="net_10,11,12,13,14,15,16,17"/>
  <line x1="40" x2="77" y1="466" y2="466" class="net_2,3,4,5,6,7,8,9"/>
</svg>
