<svg xmlns="http://www.w3.org/2000/svg" xmlns:xlink="http://www.w3.org/1999/xlink" xmlns:s="https://github.com/nturley/netlistsvg" width="792" height="564.5">
  <style>svg {
    stroke:#000;
    fill:none;
  }
  text {
    fill:#000;
    stroke:none;
    font-size:10px;
    font-weight: bold;
    font-family: "Courier New", monospace;
  }
  .nodelabel {
    text-anchor: middle;
  }
  .inputPortLabel {
    text-anchor: end;
  }
  .splitjoinBody {
    fill:#000;
  }</style>
  <g s:type="nand" transform="translate(394,429)" s:width="30" s:height="25" id="cell_$abc$92$auto$blifparse.cc:371:parse_blif$100">
    <s:alias val="$nand"/>
    <s:alias val="$logic_nand"/>
    <s:alias val="$_NAND_"/>
    <s:alias val="$_ANDNOT_"/>
    <path d="M0,0 L0,25 L15,25 A15 12.5 0 0 0 15,0 Z" class="cell_$abc$92$auto$blifparse.cc:371:parse_blif$100"/>
    <circle cx="34" cy="12.5" r="3" class="cell_$abc$92$auto$blifparse.cc:371:parse_blif$100"/>
    <g s:x="0" s:y="5" s:pid="A"/>
    <g s:x="0" s:y="20" s:pid="B"/>
    <g s:x="36" s:y="12.5" s:pid="Y"/>
  </g>
  <g s:type="reduce_xor" transform="translate(610.6666666666666,338)" s:width="33" s:height="25" id="cell_$abc$92$auto$blifparse.cc:371:parse_blif$101">
    <s:alias val="$xor"/>
    <s:alias val="$reduce_xor"/>
    <s:alias val="$_XOR_"/>
    <path d="M3,0 A30 25 0 0 1 3,25 A30 25 0 0 0 33,12.5 A30 25 0 0 0 3,0" class="cell_$abc$92$auto$blifparse.cc:371:parse_blif$101"/>
    <path d="M0,0 A30 25 0 0 1 0,25" class="cell_$abc$92$auto$blifparse.cc:371:parse_blif$101"/>
    <g s:x="3" s:y="5" s:pid="A"/>
    <g s:x="3" s:y="20" s:pid="B"/>
    <g s:x="33" s:y="12.5" s:pid="Y"/>
  </g>
  <g s:type="and" transform="translate(466,421.5)" s:width="30" s:height="25" id="cell_$abc$92$auto$blifparse.cc:371:parse_blif$102">
    <s:alias val="$and"/>
    <s:alias val="$logic_and"/>
    <s:alias val="$_AND_"/>
    <path d="M0,0 L0,25 L15,25 A15 12.5 0 0 0 15,0 Z" class="cell_$abc$92$auto$blifparse.cc:371:parse_blif$102"/>
    <g s:x="0" s:y="5" s:pid="A"/>
    <g s:x="0" s:y="20" s:pid="B"/>
    <g s:x="30" s:y="12.5" s:pid="Y"/>
  </g>
  <g s:type="nand" transform="translate(538,520)" s:width="30" s:height="25" id="cell_$abc$92$auto$blifparse.cc:371:parse_blif$103">
    <s:alias val="$nand"/>
    <s:alias val="$logic_nand"/>
    <s:alias val="$_NAND_"/>
    <s:alias val="$_ANDNOT_"/>
    <path d="M0,0 L0,25 L15,25 A15 12.5 0 0 0 15,0 Z" class="cell_$abc$92$auto$blifparse.cc:371:parse_blif$103"/>
    <circle cx="34" cy="12.5" r="3" class="cell_$abc$92$auto$blifparse.cc:371:parse_blif$103"/>
    <g s:x="0" s:y="5" s:pid="A"/>
    <g s:x="0" s:y="20" s:pid="B"/>
    <g s:x="36" s:y="12.5" s:pid="Y"/>
  </g>
  <g s:type="reduce_xor" transform="translate(465,467.5)" s:width="33" s:height="25" id="cell_$abc$92$auto$blifparse.cc:371:parse_blif$104">
    <s:alias val="$xor"/>
    <s:alias val="$reduce_xor"/>
    <s:alias val="$_XOR_"/>
    <path d="M3,0 A30 25 0 0 1 3,25 A30 25 0 0 0 33,12.5 A30 25 0 0 0 3,0" class="cell_$abc$92$auto$blifparse.cc:371:parse_blif$104"/>
    <path d="M0,0 A30 25 0 0 1 0,25" class="cell_$abc$92$auto$blifparse.cc:371:parse_blif$104"/>
    <g s:x="3" s:y="5" s:pid="A"/>
    <g s:x="3" s:y="20" s:pid="B"/>
    <g s:x="33" s:y="12.5" s:pid="Y"/>
  </g>
  <g s:type="nand" transform="translate(538,460)" s:width="30" s:height="25" id="cell_$abc$92$auto$blifparse.cc:371:parse_blif$105">
    <s:alias val="$nand"/>
    <s:alias val="$logic_nand"/>
    <s:alias val="$_NAND_"/>
    <s:alias val="$_ANDNOT_"/>
    <path d="M0,0 L0,25 L15,25 A15 12.5 0 0 0 15,0 Z" class="cell_$abc$92$auto$blifparse.cc:371:parse_blif$105"/>
    <circle cx="34" cy="12.5" r="3" class="cell_$abc$92$auto$blifparse.cc:371:parse_blif$105"/>
    <g s:x="0" s:y="5" s:pid="A"/>
    <g s:x="0" s:y="20" s:pid="B"/>
    <g s:x="36" s:y="12.5" s:pid="Y"/>
  </g>
  <g s:type="reduce_nxor" transform="translate(609,429)" s:width="33" s:height="25" id="cell_$abc$92$auto$blifparse.cc:371:parse_blif$106">
    <s:alias val="$xnor"/>
    <s:alias val="$reduce_xnor"/>
    <s:alias val="$_XNOR_"/>
    <path d="M3,0 A30 25 0 0 1 3,25 A30 25 0 0 0 33,12.5 A30 25 0 0 0 3,0" class="cell_$abc$92$auto$blifparse.cc:371:parse_blif$106"/>
    <path d="M0,0 A30 25 0 0 1 0,25" class="cell_$abc$92$auto$blifparse.cc:371:parse_blif$106"/>
    <circle cx="35" cy="12.5" r="3" class="cell_$abc$92$auto$blifparse.cc:371:parse_blif$106"/>
    <g s:x="3" s:y="5" s:pid="A"/>
    <g s:x="3" s:y="20" s:pid="B"/>
    <g s:x="38" s:y="12.5" s:pid="Y"/>
  </g>
  <g s:type="nand" transform="translate(611,527.5)" s:width="30" s:height="25" id="cell_$abc$92$auto$blifparse.cc:371:parse_blif$107">
    <s:alias val="$nand"/>
    <s:alias val="$logic_nand"/>
    <s:alias val="$_NAND_"/>
    <s:alias val="$_ANDNOT_"/>
    <path d="M0,0 L0,25 L15,25 A15 12.5 0 0 0 15,0 Z" class="cell_$abc$92$auto$blifparse.cc:371:parse_blif$107"/>
    <circle cx="34" cy="12.5" r="3" class="cell_$abc$92$auto$blifparse.cc:371:parse_blif$107"/>
    <g s:x="0" s:y="5" s:pid="A"/>
    <g s:x="0" s:y="20" s:pid="B"/>
    <g s:x="36" s:y="12.5" s:pid="Y"/>
  </g>
  <g s:type="nand" transform="translate(247,233)" s:width="30" s:height="25" id="cell_$abc$92$auto$blifparse.cc:371:parse_blif$93">
    <s:alias val="$nand"/>
    <s:alias val="$logic_nand"/>
    <s:alias val="$_NAND_"/>
    <s:alias val="$_ANDNOT_"/>
    <path d="M0,0 L0,25 L15,25 A15 12.5 0 0 0 15,0 Z" class="cell_$abc$92$auto$blifparse.cc:371:parse_blif$93"/>
    <circle cx="34" cy="12.5" r="3" class="cell_$abc$92$auto$blifparse.cc:371:parse_blif$93"/>
    <g s:x="0" s:y="5" s:pid="A"/>
    <g s:x="0" s:y="20" s:pid="B"/>
    <g s:x="36" s:y="12.5" s:pid="Y"/>
  </g>
  <g s:type="reduce_xor" transform="translate(179,187)" s:width="33" s:height="25" id="cell_$abc$92$auto$blifparse.cc:371:parse_blif$94">
    <s:alias val="$xor"/>
    <s:alias val="$reduce_xor"/>
    <s:alias val="$_XOR_"/>
    <path d="M3,0 A30 25 0 0 1 3,25 A30 25 0 0 0 33,12.5 A30 25 0 0 0 3,0" class="cell_$abc$92$auto$blifparse.cc:371:parse_blif$94"/>
    <path d="M0,0 A30 25 0 0 1 0,25" class="cell_$abc$92$auto$blifparse.cc:371:parse_blif$94"/>
    <g s:x="3" s:y="5" s:pid="A"/>
    <g s:x="3" s:y="20" s:pid="B"/>
    <g s:x="33" s:y="12.5" s:pid="Y"/>
  </g>
  <g s:type="nand" transform="translate(247,293)" s:width="30" s:height="25" id="cell_$abc$92$auto$blifparse.cc:371:parse_blif$95">
    <s:alias val="$nand"/>
    <s:alias val="$logic_nand"/>
    <s:alias val="$_NAND_"/>
    <s:alias val="$_ANDNOT_"/>
    <path d="M0,0 L0,25 L15,25 A15 12.5 0 0 0 15,0 Z" class="cell_$abc$92$auto$blifparse.cc:371:parse_blif$95"/>
    <circle cx="34" cy="12.5" r="3" class="cell_$abc$92$auto$blifparse.cc:371:parse_blif$95"/>
    <g s:x="0" s:y="5" s:pid="A"/>
    <g s:x="0" s:y="20" s:pid="B"/>
    <g s:x="36" s:y="12.5" s:pid="Y"/>
  </g>
  <g s:type="reduce_xor" transform="translate(610.6666666666666,179.5)" s:width="33" s:height="25" id="cell_$abc$92$auto$blifparse.cc:371:parse_blif$96">
    <s:alias val="$xor"/>
    <s:alias val="$reduce_xor"/>
    <s:alias val="$_XOR_"/>
    <path d="M3,0 A30 25 0 0 1 3,25 A30 25 0 0 0 33,12.5 A30 25 0 0 0 3,0" class="cell_$abc$92$auto$blifparse.cc:371:parse_blif$96"/>
    <path d="M0,0 A30 25 0 0 1 0,25" class="cell_$abc$92$auto$blifparse.cc:371:parse_blif$96"/>
    <g s:x="3" s:y="5" s:pid="A"/>
    <g s:x="3" s:y="20" s:pid="B"/>
    <g s:x="33" s:y="12.5" s:pid="Y"/>
  </g>
  <g s:type="nand" transform="translate(318,285.5)" s:width="30" s:height="25" id="cell_$abc$92$auto$blifparse.cc:371:parse_blif$97">
    <s:alias val="$nand"/>
    <s:alias val="$logic_nand"/>
    <s:alias val="$_NAND_"/>
    <s:alias val="$_ANDNOT_"/>
    <path d="M0,0 L0,25 L15,25 A15 12.5 0 0 0 15,0 Z" class="cell_$abc$92$auto$blifparse.cc:371:parse_blif$97"/>
    <circle cx="34" cy="12.5" r="3" class="cell_$abc$92$auto$blifparse.cc:371:parse_blif$97"/>
    <g s:x="0" s:y="5" s:pid="A"/>
    <g s:x="0" s:y="20" s:pid="B"/>
    <g s:x="36" s:y="12.5" s:pid="Y"/>
  </g>
  <g s:type="nand" transform="translate(394,369)" s:width="30" s:height="25" id="cell_$abc$92$auto$blifparse.cc:371:parse_blif$98">
    <s:alias val="$nand"/>
    <s:alias val="$logic_nand"/>
    <s:alias val="$_NAND_"/>
    <s:alias val="$_ANDNOT_"/>
    <path d="M0,0 L0,25 L15,25 A15 12.5 0 0 0 15,0 Z" class="cell_$abc$92$auto$blifparse.cc:371:parse_blif$98"/>
    <circle cx="34" cy="12.5" r="3" class="cell_$abc$92$auto$blifparse.cc:371:parse_blif$98"/>
    <g s:x="0" s:y="5" s:pid="A"/>
    <g s:x="0" s:y="20" s:pid="B"/>
    <g s:x="36" s:y="12.5" s:pid="Y"/>
  </g>
  <g s:type="reduce_xor" transform="translate(319,345.5)" s:width="33" s:height="25" id="cell_$abc$92$auto$blifparse.cc:371:parse_blif$99">
    <s:alias val="$xor"/>
    <s:alias val="$reduce_xor"/>
    <s:alias val="$_XOR_"/>
    <path d="M3,0 A30 25 0 0 1 3,25 A30 25 0 0 0 33,12.5 A30 25 0 0 0 3,0" class="cell_$abc$92$auto$blifparse.cc:371:parse_blif$99"/>
    <path d="M0,0 A30 25 0 0 1 0,25" class="cell_$abc$92$auto$blifparse.cc:371:parse_blif$99"/>
    <g s:x="3" s:y="5" s:pid="A"/>
    <g s:x="3" s:y="20" s:pid="B"/>
    <g s:x="33" s:y="12.5" s:pid="Y"/>
  </g>
  <g s:type="inputExt" transform="translate(12,34.5)" s:width="30" s:height="20" id="cell_A">
    <text x="15" y="-4" class="nodelabel cell_A" s:attribute="ref">A</text>
    <s:alias val="$_inputExt_"/>
    <path d="M0,0 L0,20 L15,20 L30,10 L15,0 Z" class="cell_A"/>
    <g s:x="28" s:y="10" s:pid="Y"/>
  </g>
  <g s:type="inputExt" transform="translate(12,218)" s:width="30" s:height="20" id="cell_B">
    <text x="15" y="-4" class="nodelabel cell_B" s:attribute="ref">B</text>
    <s:alias val="$_inputExt_"/>
    <path d="M0,0 L0,20 L15,20 L30,10 L15,0 Z" class="cell_B"/>
    <g s:x="28" s:y="10" s:pid="Y"/>
  </g>
  <g s:type="outputExt" transform="translate(750,321.5)" s:width="30" s:height="20" id="cell_O">
    <text x="15" y="-4" class="nodelabel cell_O" s:attribute="ref">O</text>
    <s:alias val="$_outputExt_"/>
    <path d="M30,0 L30,20 L15,20 L0,10 L15,0 Z" class="cell_O"/>
    <g s:x="0" s:y="10" s:pid="A"/>
  </g>
  <g s:type="join" transform="translate(707,311)" s:width="4" s:height="40" id="cell_$join$,5,5,4,13,14,18,19,20,21,">
    <rect width="5" height="160" class="splitjoinBody" s:generic="body"/>
    <s:alias val="$_join_"/>
    <g s:x="5" s:y="20" s:pid="out"/>
    <g transform="translate(0,10)" s:x="0" s:y="10" s:pid="in0">
      <text x="-3" y="-4" class="inputPortLabel">0</text>
    </g>
    <g transform="translate(0,30)" s:x="0" s:y="10" s:pid="in0">
      <text x="-3" y="-4" class="inputPortLabel">1</text>
    </g>
    <g transform="translate(0,50)" s:x="0" s:y="10" s:pid="in0">
      <text x="-3" y="-4" class="inputPortLabel">2</text>
    </g>
    <g transform="translate(0,70)" s:x="0" s:y="10" s:pid="in0">
      <text x="-3" y="-4" class="inputPortLabel">3:4</text>
    </g>
    <g transform="translate(0,90)" s:x="0" s:y="10" s:pid="in0">
      <text x="-3" y="-4" class="inputPortLabel">5</text>
    </g>
    <g transform="translate(0,110)" s:x="0" s:y="10" s:pid="in0">
      <text x="-3" y="-4" class="inputPortLabel">6</text>
    </g>
    <g transform="translate(0,130)" s:x="0" s:y="10" s:pid="in0">
      <text x="-3" y="-4" class="inputPortLabel">7</text>
    </g>
    <g transform="translate(0,150)" s:x="0" s:y="10" s:pid="in0">
      <text x="-3" y="-4" class="inputPortLabel">8</text>
    </g>
  </g>
  <g s:type="split" transform="translate(77,207.5)" s:width="5" s:height="40" id="cell_$split$,10,11,12,13,14,15,16,17,">
    <rect width="5" height="80" class="splitjoinBody" s:generic="body"/>
    <s:alias val="$_split_"/>
    <g s:x="0" s:y="20" s:pid="in"/>
    <g transform="translate(4,10)" s:x="4" s:y="10" s:pid="out0">
      <text x="5" y="-4">7</text>
    </g>
    <g transform="translate(4,30)" s:x="4" s:y="10" s:pid="out0">
      <text x="5" y="-4">5</text>
    </g>
    <g transform="translate(4,50)" s:x="4" s:y="10" s:pid="out0">
      <text x="5" y="-4">6</text>
    </g>
    <g transform="translate(4,70)" s:x="4" s:y="10" s:pid="out0">
      <text x="5" y="-4">3:4</text>
    </g>
  </g>
  <g s:type="split" transform="translate(77,24)" s:width="5" s:height="40" id="cell_$split$,2,3,4,5,6,7,8,9,">
    <rect width="5" height="120" class="splitjoinBody" s:generic="body"/>
    <s:alias val="$_split_"/>
    <g s:x="0" s:y="20" s:pid="in"/>
    <g transform="translate(4,10)" s:x="4" s:y="10" s:pid="out0">
      <text x="5" y="-4">7</text>
    </g>
    <g transform="translate(4,30)" s:x="4" s:y="10" s:pid="out0">
      <text x="5" y="-4">5</text>
    </g>
    <g transform="translate(4,50)" s:x="4" s:y="10" s:pid="out0">
      <text x="5" y="-4">4</text>
    </g>
    <g transform="translate(4,70)" s:x="4" s:y="10" s:pid="out0">
      <text x="5" y="-4">6</text>
    </g>
    <g transform="translate(4,90)" s:x="4" s:y="10" s:pid="out0">
      <text x="5" y="-4">3</text>
    </g>
    <g transform="translate(4,110)" s:x="4" s:y="10" s:pid="out0">
      <text x="5" y="-4">2</text>
    </g>
  </g>
  <line x1="354" x2="374" y1="298" y2="298" class="net_22"/>
  <line x1="374" x2="374" y1="298" y2="434" class="net_22"/>
  <circle cx="374" cy="298" r="2" style="fill:#000" class="net_22"/>
  <line x1="374" x2="394" y1="434" y2="434" class="net_22"/>
  <line x1="354" x2="584" y1="298" y2="298" class="net_22"/>
  <line x1="584" x2="584" y1="298" y2="343" class="net_22"/>
  <line x1="584" x2="613.6666666666666" y1="343" y2="343" class="net_22"/>
  <line x1="352" x2="364" y1="358" y2="358" class="net_23"/>
  <line x1="364" x2="364" y1="358" y2="449" class="net_23"/>
  <circle cx="364" cy="358" r="2" style="fill:#000" class="net_23"/>
  <line x1="364" x2="394" y1="449" y2="449" class="net_23"/>
  <line x1="352" x2="613.6666666666666" y1="358" y2="358" class="net_23"/>
  <line x1="430" x2="440" y1="381.5" y2="381.5" class="net_25"/>
  <line x1="440" x2="440" y1="381.5" y2="426.5" class="net_25"/>
  <line x1="440" x2="466" y1="426.5" y2="426.5" class="net_25"/>
  <line x1="430" x2="466" y1="441.5" y2="441.5" class="net_24"/>
  <line x1="82" x2="109" y1="218" y2="218" class="net_17"/>
  <line x1="109" x2="109" y1="218" y2="472.5" class="net_17"/>
  <line x1="109" x2="440" y1="472.5" y2="472.5" class="net_17"/>
  <line x1="440" x2="440" y1="472.5" y2="456.5" class="net_17"/>
  <line x1="440" x2="508" y1="456.5" y2="456.5" class="net_17"/>
  <line x1="508" x2="508" y1="456.5" y2="525" class="net_17"/>
  <circle cx="440" cy="472.5" r="2" style="fill:#000" class="net_17"/>
  <line x1="508" x2="538" y1="525" y2="525" class="net_17"/>
  <line x1="82" x2="109" y1="218" y2="218" class="net_17"/>
  <line x1="109" x2="109" y1="218" y2="472.5" class="net_17"/>
  <line x1="109" x2="468" y1="472.5" y2="472.5" class="net_17"/>
  <line x1="81.5" x2="81.5" y1="34" y2="12" class="net_9"/>
  <line x1="81.5" x2="99" y1="12" y2="12" class="net_9"/>
  <line x1="99" x2="99" y1="12" y2="540" class="net_9"/>
  <line x1="99" x2="538" y1="540" y2="540" class="net_9"/>
  <line x1="81.5" x2="81.5" y1="34" y2="12" class="net_9"/>
  <line x1="81.5" x2="99" y1="12" y2="12" class="net_9"/>
  <line x1="99" x2="99" y1="12" y2="540" class="net_9"/>
  <line x1="99" x2="440" y1="540" y2="540" class="net_9"/>
  <line x1="440" x2="440" y1="540" y2="487.5" class="net_9"/>
  <circle cx="440" cy="540" r="2" style="fill:#000" class="net_9"/>
  <line x1="440" x2="468" y1="487.5" y2="487.5" class="net_9"/>
  <line x1="496" x2="528" y1="434" y2="434" class="net_26"/>
  <line x1="528" x2="528" y1="434" y2="465" class="net_26"/>
  <circle cx="528" cy="434" r="2" style="fill:#000" class="net_26"/>
  <line x1="528" x2="538" y1="465" y2="465" class="net_26"/>
  <line x1="496" x2="612" y1="434" y2="434" class="net_26"/>
  <line x1="498" x2="538" y1="480" y2="480" class="net_28"/>
  <line x1="498" x2="518" y1="480" y2="480" class="net_28"/>
  <line x1="518" x2="518" y1="480" y2="449" class="net_28"/>
  <circle cx="518" cy="480" r="2" style="fill:#000" class="net_28"/>
  <line x1="518" x2="612" y1="449" y2="449" class="net_28"/>
  <line x1="574" x2="611" y1="532.5" y2="532.5" class="net_27"/>
  <line x1="574" x2="584" y1="472.5" y2="472.5" class="net_29"/>
  <line x1="584" x2="584" y1="472.5" y2="547.5" class="net_29"/>
  <line x1="584" x2="611" y1="547.5" y2="547.5" class="net_29"/>
  <line x1="82" x2="247" y1="238" y2="238" class="net_15"/>
  <line x1="82" x2="139" y1="238" y2="238" class="net_15"/>
  <line x1="139" x2="139" y1="238" y2="192" class="net_15"/>
  <circle cx="139" cy="238" r="2" style="fill:#000" class="net_15"/>
  <line x1="139" x2="182" y1="192" y2="192" class="net_15"/>
  <line x1="82" x2="169" y1="54.5" y2="54.5" class="net_7"/>
  <line x1="169" x2="169" y1="54.5" y2="253" class="net_7"/>
  <line x1="169" x2="247" y1="253" y2="253" class="net_7"/>
  <line x1="82" x2="169" y1="54.5" y2="54.5" class="net_7"/>
  <line x1="169" x2="169" y1="54.5" y2="207" class="net_7"/>
  <circle cx="169" cy="207" r="2" style="fill:#000" class="net_7"/>
  <line x1="169" x2="182" y1="207" y2="207" class="net_7"/>
  <line x1="82" x2="159" y1="74.5" y2="74.5" class="net_6"/>
  <line x1="159" x2="159" y1="74.5" y2="298" class="net_6"/>
  <line x1="159" x2="247" y1="298" y2="298" class="net_6"/>
  <line x1="82" x2="159" y1="74.5" y2="74.5" class="net_6"/>
  <line x1="159" x2="159" y1="74.5" y2="176" class="net_6"/>
  <line x1="159" x2="584" y1="176" y2="176" class="net_6"/>
  <line x1="584" x2="584" y1="176" y2="184.5" class="net_6"/>
  <circle cx="159" cy="176" r="2" style="fill:#000" class="net_6"/>
  <line x1="584" x2="613.6666666666666" y1="184.5" y2="184.5" class="net_6"/>
  <line x1="212" x2="222" y1="199.5" y2="199.5" class="net_31"/>
  <line x1="222" x2="222" y1="199.5" y2="313" class="net_31"/>
  <circle cx="222" cy="199.5" r="2" style="fill:#000" class="net_31"/>
  <line x1="222" x2="247" y1="313" y2="313" class="net_31"/>
  <line x1="212" x2="613.6666666666666" y1="199.5" y2="199.5" class="net_31"/>
  <line x1="283" x2="293" y1="245.5" y2="245.5" class="net_30"/>
  <line x1="293" x2="293" y1="245.5" y2="290.5" class="net_30"/>
  <line x1="293" x2="318" y1="290.5" y2="290.5" class="net_30"/>
  <line x1="283" x2="318" y1="305.5" y2="305.5" class="net_32"/>
  <line x1="82" x2="149" y1="258" y2="258" class="net_16"/>
  <line x1="149" x2="149" y1="258" y2="222" class="net_16"/>
  <line x1="149" x2="384" y1="222" y2="222" class="net_16"/>
  <line x1="384" x2="384" y1="222" y2="374" class="net_16"/>
  <circle cx="149" cy="258" r="2" style="fill:#000" class="net_16"/>
  <line x1="384" x2="394" y1="374" y2="374" class="net_16"/>
  <line x1="82" x2="149" y1="258" y2="258" class="net_16"/>
  <line x1="149" x2="149" y1="258" y2="350.5" class="net_16"/>
  <line x1="149" x2="322" y1="350.5" y2="350.5" class="net_16"/>
  <line x1="82" x2="129" y1="94.5" y2="94.5" class="net_8"/>
  <line x1="129" x2="129" y1="94.5" y2="389" class="net_8"/>
  <line x1="129" x2="394" y1="389" y2="389" class="net_8"/>
  <line x1="82" x2="129" y1="94.5" y2="94.5" class="net_8"/>
  <line x1="129" x2="129" y1="94.5" y2="389" class="net_8"/>
  <line x1="129" x2="293" y1="389" y2="389" class="net_8"/>
  <line x1="293" x2="293" y1="389" y2="365.5" class="net_8"/>
  <circle cx="293" cy="389" r="2" style="fill:#000" class="net_8"/>
  <line x1="293" x2="322" y1="365.5" y2="365.5" class="net_8"/>
  <line x1="713" x2="750" y1="331.5" y2="331.5" class="net_5,5,4,13,14,18,19,20,21"/>
  <line x1="82" x2="707.5" y1="114.5" y2="114.5" class="net_5"/>
  <line x1="707.5" x2="707.5" y1="114.5" y2="321" class="net_5"/>
  <line x1="82" x2="697" y1="114.5" y2="114.5" class="net_5"/>
  <line x1="697" x2="697" y1="114.5" y2="341.5" class="net_5"/>
  <circle cx="697" cy="114.5" r="2" style="fill:#000" class="net_5"/>
  <line x1="697" x2="707" y1="341.5" y2="341.5" class="net_5"/>
  <line x1="81.5" x2="81.5" y1="135" y2="154" class="net_4"/>
  <line x1="81.5" x2="687" y1="154" y2="154" class="net_4"/>
  <line x1="687" x2="687" y1="154" y2="361.5" class="net_4"/>
  <line x1="687" x2="707" y1="361.5" y2="361.5" class="net_4"/>
  <line x1="82" x2="119" y1="278" y2="278" class="net_13,14"/>
  <line x1="119" x2="119" y1="278" y2="165" class="net_13,14"/>
  <line x1="119" x2="677" y1="165" y2="165" class="net_13,14"/>
  <line x1="677" x2="677" y1="165" y2="381.5" class="net_13,14"/>
  <line x1="677" x2="707" y1="381.5" y2="381.5" class="net_13,14"/>
  <line x1="643.6666666666666" x2="667" y1="192" y2="192" class="net_18"/>
  <line x1="667" x2="667" y1="192" y2="401.5" class="net_18"/>
  <line x1="667" x2="707" y1="401.5" y2="401.5" class="net_18"/>
  <line x1="643.6666666666666" x2="657" y1="350.5" y2="350.5" class="net_19"/>
  <line x1="657" x2="657" y1="350.5" y2="421.5" class="net_19"/>
  <line x1="657" x2="707" y1="421.5" y2="421.5" class="net_19"/>
  <line x1="647" x2="707" y1="441.5" y2="441.5" class="net_20"/>
  <line x1="647" x2="707.5" y1="540" y2="540" class="net_21"/>
  <line x1="707.5" x2="707.5" y1="540" y2="462" class="net_21"/>
  <line x1="40" x2="77" y1="228" y2="228" class="net_10,11,12,13,14,15,16,17"/>
  <line x1="40" x2="77" y1="44.5" y2="44.5" class="net_2,3,4,5,6,7,8,9"/>
</svg>
