<svg xmlns="http://www.w3.org/2000/svg" xmlns:xlink="http://www.w3.org/1999/xlink" xmlns:s="https://github.com/nturley/netlistsvg" width="1400" height="1109">
  <style>svg {
    stroke:#000;
    fill:none;
  }
  text {
    fill:#000;
    stroke:none;
    font-size:10px;
    font-weight: bold;
    font-family: "Courier New", monospace;
  }
  .nodelabel {
    text-anchor: middle;
  }
  .inputPortLabel {
    text-anchor: end;
  }
  .splitjoinBody {
    fill:#000;
  }</style>
  <g s:type="nand" transform="translate(556,588)" s:width="30" s:height="25" id="cell_$abc$155$auto$blifparse.cc:371:parse_blif$156">
    <s:alias val="$nand"/>
    <s:alias val="$logic_nand"/>
    <s:alias val="$_NAND_"/>
    <s:alias val="$_ANDNOT_"/>
    <path d="M0,0 L0,25 L15,25 A15 12.5 0 0 0 15,0 Z" class="cell_$abc$155$auto$blifparse.cc:371:parse_blif$156"/>
    <circle cx="34" cy="12.5" r="3" class="cell_$abc$155$auto$blifparse.cc:371:parse_blif$156"/>
    <g s:x="0" s:y="5" s:pid="A"/>
    <g s:x="0" s:y="20" s:pid="B"/>
    <g s:x="36" s:y="12.5" s:pid="Y"/>
  </g>
  <g s:type="nand" transform="translate(409,474.5)" s:width="30" s:height="25" id="cell_$abc$155$auto$blifparse.cc:371:parse_blif$157">
    <s:alias val="$nand"/>
    <s:alias val="$logic_nand"/>
    <s:alias val="$_NAND_"/>
    <s:alias val="$_ANDNOT_"/>
    <path d="M0,0 L0,25 L15,25 A15 12.5 0 0 0 15,0 Z" class="cell_$abc$155$auto$blifparse.cc:371:parse_blif$157"/>
    <circle cx="34" cy="12.5" r="3" class="cell_$abc$155$auto$blifparse.cc:371:parse_blif$157"/>
    <g s:x="0" s:y="5" s:pid="A"/>
    <g s:x="0" s:y="20" s:pid="B"/>
    <g s:x="36" s:y="12.5" s:pid="Y"/>
  </g>
  <g s:type="nand" transform="translate(262,355)" s:width="30" s:height="25" id="cell_$abc$155$auto$blifparse.cc:371:parse_blif$158">
    <s:alias val="$nand"/>
    <s:alias val="$logic_nand"/>
    <s:alias val="$_NAND_"/>
    <s:alias val="$_ANDNOT_"/>
    <path d="M0,0 L0,25 L15,25 A15 12.5 0 0 0 15,0 Z" class="cell_$abc$155$auto$blifparse.cc:371:parse_blif$158"/>
    <circle cx="34" cy="12.5" r="3" class="cell_$abc$155$auto$blifparse.cc:371:parse_blif$158"/>
    <g s:x="0" s:y="5" s:pid="A"/>
    <g s:x="0" s:y="20" s:pid="B"/>
    <g s:x="36" s:y="12.5" s:pid="Y"/>
  </g>
  <g s:type="and" transform="translate(190,294)" s:width="30" s:height="25" id="cell_$abc$155$auto$blifparse.cc:371:parse_blif$159">
    <s:alias val="$and"/>
    <s:alias val="$logic_and"/>
    <s:alias val="$_AND_"/>
    <path d="M0,0 L0,25 L15,25 A15 12.5 0 0 0 15,0 Z" class="cell_$abc$155$auto$blifparse.cc:371:parse_blif$159"/>
    <g s:x="0" s:y="5" s:pid="A"/>
    <g s:x="0" s:y="20" s:pid="B"/>
    <g s:x="30" s:y="12.5" s:pid="Y"/>
  </g>
  <g s:type="reduce_xor" transform="translate(189,340)" s:width="33" s:height="25" id="cell_$abc$155$auto$blifparse.cc:371:parse_blif$160">
    <s:alias val="$xor"/>
    <s:alias val="$reduce_xor"/>
    <s:alias val="$_XOR_"/>
    <path d="M3,0 A30 25 0 0 1 3,25 A30 25 0 0 0 33,12.5 A30 25 0 0 0 3,0" class="cell_$abc$155$auto$blifparse.cc:371:parse_blif$160"/>
    <path d="M0,0 A30 25 0 0 1 0,25" class="cell_$abc$155$auto$blifparse.cc:371:parse_blif$160"/>
    <g s:x="3" s:y="5" s:pid="A"/>
    <g s:x="3" s:y="20" s:pid="B"/>
    <g s:x="33" s:y="12.5" s:pid="Y"/>
  </g>
  <g s:type="nand" transform="translate(262,415)" s:width="30" s:height="25" id="cell_$abc$155$auto$blifparse.cc:371:parse_blif$161">
    <s:alias val="$nand"/>
    <s:alias val="$logic_nand"/>
    <s:alias val="$_NAND_"/>
    <s:alias val="$_ANDNOT_"/>
    <path d="M0,0 L0,25 L15,25 A15 12.5 0 0 0 15,0 Z" class="cell_$abc$155$auto$blifparse.cc:371:parse_blif$161"/>
    <circle cx="34" cy="12.5" r="3" class="cell_$abc$155$auto$blifparse.cc:371:parse_blif$161"/>
    <g s:x="0" s:y="5" s:pid="A"/>
    <g s:x="0" s:y="20" s:pid="B"/>
    <g s:x="36" s:y="12.5" s:pid="Y"/>
  </g>
  <g s:type="nand" transform="translate(333,407.5)" s:width="30" s:height="25" id="cell_$abc$155$auto$blifparse.cc:371:parse_blif$162">
    <s:alias val="$nand"/>
    <s:alias val="$logic_nand"/>
    <s:alias val="$_NAND_"/>
    <s:alias val="$_ANDNOT_"/>
    <path d="M0,0 L0,25 L15,25 A15 12.5 0 0 0 15,0 Z" class="cell_$abc$155$auto$blifparse.cc:371:parse_blif$162"/>
    <circle cx="34" cy="12.5" r="3" class="cell_$abc$155$auto$blifparse.cc:371:parse_blif$162"/>
    <g s:x="0" s:y="5" s:pid="A"/>
    <g s:x="0" s:y="20" s:pid="B"/>
    <g s:x="36" s:y="12.5" s:pid="Y"/>
  </g>
  <g s:type="reduce_xor" transform="translate(334,453.5)" s:width="33" s:height="25" id="cell_$abc$155$auto$blifparse.cc:371:parse_blif$163">
    <s:alias val="$xor"/>
    <s:alias val="$reduce_xor"/>
    <s:alias val="$_XOR_"/>
    <path d="M3,0 A30 25 0 0 1 3,25 A30 25 0 0 0 33,12.5 A30 25 0 0 0 3,0" class="cell_$abc$155$auto$blifparse.cc:371:parse_blif$163"/>
    <path d="M0,0 A30 25 0 0 1 0,25" class="cell_$abc$155$auto$blifparse.cc:371:parse_blif$163"/>
    <g s:x="3" s:y="5" s:pid="A"/>
    <g s:x="3" s:y="20" s:pid="B"/>
    <g s:x="33" s:y="12.5" s:pid="Y"/>
  </g>
  <g s:type="nand" transform="translate(409,534.5)" s:width="30" s:height="25" id="cell_$abc$155$auto$blifparse.cc:371:parse_blif$164">
    <s:alias val="$nand"/>
    <s:alias val="$logic_nand"/>
    <s:alias val="$_NAND_"/>
    <s:alias val="$_ANDNOT_"/>
    <path d="M0,0 L0,25 L15,25 A15 12.5 0 0 0 15,0 Z" class="cell_$abc$155$auto$blifparse.cc:371:parse_blif$164"/>
    <circle cx="34" cy="12.5" r="3" class="cell_$abc$155$auto$blifparse.cc:371:parse_blif$164"/>
    <g s:x="0" s:y="5" s:pid="A"/>
    <g s:x="0" s:y="20" s:pid="B"/>
    <g s:x="36" s:y="12.5" s:pid="Y"/>
  </g>
  <g s:type="nand" transform="translate(480,527)" s:width="30" s:height="25" id="cell_$abc$155$auto$blifparse.cc:371:parse_blif$165">
    <s:alias val="$nand"/>
    <s:alias val="$logic_nand"/>
    <s:alias val="$_NAND_"/>
    <s:alias val="$_ANDNOT_"/>
    <path d="M0,0 L0,25 L15,25 A15 12.5 0 0 0 15,0 Z" class="cell_$abc$155$auto$blifparse.cc:371:parse_blif$165"/>
    <circle cx="34" cy="12.5" r="3" class="cell_$abc$155$auto$blifparse.cc:371:parse_blif$165"/>
    <g s:x="0" s:y="5" s:pid="A"/>
    <g s:x="0" s:y="20" s:pid="B"/>
    <g s:x="36" s:y="12.5" s:pid="Y"/>
  </g>
  <g s:type="reduce_xor" transform="translate(481,573)" s:width="33" s:height="25" id="cell_$abc$155$auto$blifparse.cc:371:parse_blif$166">
    <s:alias val="$xor"/>
    <s:alias val="$reduce_xor"/>
    <s:alias val="$_XOR_"/>
    <path d="M3,0 A30 25 0 0 1 3,25 A30 25 0 0 0 33,12.5 A30 25 0 0 0 3,0" class="cell_$abc$155$auto$blifparse.cc:371:parse_blif$166"/>
    <path d="M0,0 A30 25 0 0 1 0,25" class="cell_$abc$155$auto$blifparse.cc:371:parse_blif$166"/>
    <g s:x="3" s:y="5" s:pid="A"/>
    <g s:x="3" s:y="20" s:pid="B"/>
    <g s:x="33" s:y="12.5" s:pid="Y"/>
  </g>
  <g s:type="nand" transform="translate(556,648)" s:width="30" s:height="25" id="cell_$abc$155$auto$blifparse.cc:371:parse_blif$167">
    <s:alias val="$nand"/>
    <s:alias val="$logic_nand"/>
    <s:alias val="$_NAND_"/>
    <s:alias val="$_ANDNOT_"/>
    <path d="M0,0 L0,25 L15,25 A15 12.5 0 0 0 15,0 Z" class="cell_$abc$155$auto$blifparse.cc:371:parse_blif$167"/>
    <circle cx="34" cy="12.5" r="3" class="cell_$abc$155$auto$blifparse.cc:371:parse_blif$167"/>
    <g s:x="0" s:y="5" s:pid="A"/>
    <g s:x="0" s:y="20" s:pid="B"/>
    <g s:x="36" s:y="12.5" s:pid="Y"/>
  </g>
  <g s:type="nand" transform="translate(627,640.5)" s:width="30" s:height="25" id="cell_$abc$155$auto$blifparse.cc:371:parse_blif$168">
    <s:alias val="$nand"/>
    <s:alias val="$logic_nand"/>
    <s:alias val="$_NAND_"/>
    <s:alias val="$_ANDNOT_"/>
    <path d="M0,0 L0,25 L15,25 A15 12.5 0 0 0 15,0 Z" class="cell_$abc$155$auto$blifparse.cc:371:parse_blif$168"/>
    <circle cx="34" cy="12.5" r="3" class="cell_$abc$155$auto$blifparse.cc:371:parse_blif$168"/>
    <g s:x="0" s:y="5" s:pid="A"/>
    <g s:x="0" s:y="20" s:pid="B"/>
    <g s:x="36" s:y="12.5" s:pid="Y"/>
  </g>
  <g s:type="nand" transform="translate(703,701.5)" s:width="30" s:height="25" id="cell_$abc$155$auto$blifparse.cc:371:parse_blif$169">
    <s:alias val="$nand"/>
    <s:alias val="$logic_nand"/>
    <s:alias val="$_NAND_"/>
    <s:alias val="$_ANDNOT_"/>
    <path d="M0,0 L0,25 L15,25 A15 12.5 0 0 0 15,0 Z" class="cell_$abc$155$auto$blifparse.cc:371:parse_blif$169"/>
    <circle cx="34" cy="12.5" r="3" class="cell_$abc$155$auto$blifparse.cc:371:parse_blif$169"/>
    <g s:x="0" s:y="5" s:pid="A"/>
    <g s:x="0" s:y="20" s:pid="B"/>
    <g s:x="36" s:y="12.5" s:pid="Y"/>
  </g>
  <g s:type="reduce_xor" transform="translate(628,686.5)" s:width="33" s:height="25" id="cell_$abc$155$auto$blifparse.cc:371:parse_blif$170">
    <s:alias val="$xor"/>
    <s:alias val="$reduce_xor"/>
    <s:alias val="$_XOR_"/>
    <path d="M3,0 A30 25 0 0 1 3,25 A30 25 0 0 0 33,12.5 A30 25 0 0 0 3,0" class="cell_$abc$155$auto$blifparse.cc:371:parse_blif$170"/>
    <path d="M0,0 A30 25 0 0 1 0,25" class="cell_$abc$155$auto$blifparse.cc:371:parse_blif$170"/>
    <g s:x="3" s:y="5" s:pid="A"/>
    <g s:x="3" s:y="20" s:pid="B"/>
    <g s:x="33" s:y="12.5" s:pid="Y"/>
  </g>
  <g s:type="nand" transform="translate(703,761.5)" s:width="30" s:height="25" id="cell_$abc$155$auto$blifparse.cc:371:parse_blif$171">
    <s:alias val="$nand"/>
    <s:alias val="$logic_nand"/>
    <s:alias val="$_NAND_"/>
    <s:alias val="$_ANDNOT_"/>
    <path d="M0,0 L0,25 L15,25 A15 12.5 0 0 0 15,0 Z" class="cell_$abc$155$auto$blifparse.cc:371:parse_blif$171"/>
    <circle cx="34" cy="12.5" r="3" class="cell_$abc$155$auto$blifparse.cc:371:parse_blif$171"/>
    <g s:x="0" s:y="5" s:pid="A"/>
    <g s:x="0" s:y="20" s:pid="B"/>
    <g s:x="36" s:y="12.5" s:pid="Y"/>
  </g>
  <g s:type="reduce_xor" transform="translate(1208.6666666666667,252)" s:width="33" s:height="25" id="cell_$abc$155$auto$blifparse.cc:371:parse_blif$172">
    <s:alias val="$xor"/>
    <s:alias val="$reduce_xor"/>
    <s:alias val="$_XOR_"/>
    <path d="M3,0 A30 25 0 0 1 3,25 A30 25 0 0 0 33,12.5 A30 25 0 0 0 3,0" class="cell_$abc$155$auto$blifparse.cc:371:parse_blif$172"/>
    <path d="M0,0 A30 25 0 0 1 0,25" class="cell_$abc$155$auto$blifparse.cc:371:parse_blif$172"/>
    <g s:x="3" s:y="5" s:pid="A"/>
    <g s:x="3" s:y="20" s:pid="B"/>
    <g s:x="33" s:y="12.5" s:pid="Y"/>
  </g>
  <g s:type="nand" transform="translate(774,754)" s:width="30" s:height="25" id="cell_$abc$155$auto$blifparse.cc:371:parse_blif$173">
    <s:alias val="$nand"/>
    <s:alias val="$logic_nand"/>
    <s:alias val="$_NAND_"/>
    <s:alias val="$_ANDNOT_"/>
    <path d="M0,0 L0,25 L15,25 A15 12.5 0 0 0 15,0 Z" class="cell_$abc$155$auto$blifparse.cc:371:parse_blif$173"/>
    <circle cx="34" cy="12.5" r="3" class="cell_$abc$155$auto$blifparse.cc:371:parse_blif$173"/>
    <g s:x="0" s:y="5" s:pid="A"/>
    <g s:x="0" s:y="20" s:pid="B"/>
    <g s:x="36" s:y="12.5" s:pid="Y"/>
  </g>
  <g s:type="nand" transform="translate(850,792.5)" s:width="30" s:height="25" id="cell_$abc$155$auto$blifparse.cc:371:parse_blif$174">
    <s:alias val="$nand"/>
    <s:alias val="$logic_nand"/>
    <s:alias val="$_NAND_"/>
    <s:alias val="$_ANDNOT_"/>
    <path d="M0,0 L0,25 L15,25 A15 12.5 0 0 0 15,0 Z" class="cell_$abc$155$auto$blifparse.cc:371:parse_blif$174"/>
    <circle cx="34" cy="12.5" r="3" class="cell_$abc$155$auto$blifparse.cc:371:parse_blif$174"/>
    <g s:x="0" s:y="5" s:pid="A"/>
    <g s:x="0" s:y="20" s:pid="B"/>
    <g s:x="36" s:y="12.5" s:pid="Y"/>
  </g>
  <g s:type="reduce_xor" transform="translate(775,860)" s:width="33" s:height="25" id="cell_$abc$155$auto$blifparse.cc:371:parse_blif$175">
    <s:alias val="$xor"/>
    <s:alias val="$reduce_xor"/>
    <s:alias val="$_XOR_"/>
    <path d="M3,0 A30 25 0 0 1 3,25 A30 25 0 0 0 33,12.5 A30 25 0 0 0 3,0" class="cell_$abc$155$auto$blifparse.cc:371:parse_blif$175"/>
    <path d="M0,0 A30 25 0 0 1 0,25" class="cell_$abc$155$auto$blifparse.cc:371:parse_blif$175"/>
    <g s:x="3" s:y="5" s:pid="A"/>
    <g s:x="3" s:y="20" s:pid="B"/>
    <g s:x="33" s:y="12.5" s:pid="Y"/>
  </g>
  <g s:type="nand" transform="translate(850,852.5)" s:width="30" s:height="25" id="cell_$abc$155$auto$blifparse.cc:371:parse_blif$176">
    <s:alias val="$nand"/>
    <s:alias val="$logic_nand"/>
    <s:alias val="$_NAND_"/>
    <s:alias val="$_ANDNOT_"/>
    <path d="M0,0 L0,25 L15,25 A15 12.5 0 0 0 15,0 Z" class="cell_$abc$155$auto$blifparse.cc:371:parse_blif$176"/>
    <circle cx="34" cy="12.5" r="3" class="cell_$abc$155$auto$blifparse.cc:371:parse_blif$176"/>
    <g s:x="0" s:y="5" s:pid="A"/>
    <g s:x="0" s:y="20" s:pid="B"/>
    <g s:x="36" s:y="12.5" s:pid="Y"/>
  </g>
  <g s:type="reduce_xor" transform="translate(1208.6666666666667,761.5)" s:width="33" s:height="25" id="cell_$abc$155$auto$blifparse.cc:371:parse_blif$177">
    <s:alias val="$xor"/>
    <s:alias val="$reduce_xor"/>
    <s:alias val="$_XOR_"/>
    <path d="M3,0 A30 25 0 0 1 3,25 A30 25 0 0 0 33,12.5 A30 25 0 0 0 3,0" class="cell_$abc$155$auto$blifparse.cc:371:parse_blif$177"/>
    <path d="M0,0 A30 25 0 0 1 0,25" class="cell_$abc$155$auto$blifparse.cc:371:parse_blif$177"/>
    <g s:x="3" s:y="5" s:pid="A"/>
    <g s:x="3" s:y="20" s:pid="B"/>
    <g s:x="33" s:y="12.5" s:pid="Y"/>
  </g>
  <g s:type="nand" transform="translate(921,845)" s:width="30" s:height="25" id="cell_$abc$155$auto$blifparse.cc:371:parse_blif$178">
    <s:alias val="$nand"/>
    <s:alias val="$logic_nand"/>
    <s:alias val="$_NAND_"/>
    <s:alias val="$_ANDNOT_"/>
    <path d="M0,0 L0,25 L15,25 A15 12.5 0 0 0 15,0 Z" class="cell_$abc$155$auto$blifparse.cc:371:parse_blif$178"/>
    <circle cx="34" cy="12.5" r="3" class="cell_$abc$155$auto$blifparse.cc:371:parse_blif$178"/>
    <g s:x="0" s:y="5" s:pid="A"/>
    <g s:x="0" s:y="20" s:pid="B"/>
    <g s:x="36" s:y="12.5" s:pid="Y"/>
  </g>
  <g s:type="nand" transform="translate(992,890)" s:width="30" s:height="25" id="cell_$abc$155$auto$blifparse.cc:371:parse_blif$179">
    <s:alias val="$nand"/>
    <s:alias val="$logic_nand"/>
    <s:alias val="$_NAND_"/>
    <s:alias val="$_ANDNOT_"/>
    <path d="M0,0 L0,25 L15,25 A15 12.5 0 0 0 15,0 Z" class="cell_$abc$155$auto$blifparse.cc:371:parse_blif$179"/>
    <circle cx="34" cy="12.5" r="3" class="cell_$abc$155$auto$blifparse.cc:371:parse_blif$179"/>
    <g s:x="0" s:y="5" s:pid="A"/>
    <g s:x="0" s:y="20" s:pid="B"/>
    <g s:x="36" s:y="12.5" s:pid="Y"/>
  </g>
  <g s:type="reduce_xor" transform="translate(922,957.5)" s:width="33" s:height="25" id="cell_$abc$155$auto$blifparse.cc:371:parse_blif$180">
    <s:alias val="$xor"/>
    <s:alias val="$reduce_xor"/>
    <s:alias val="$_XOR_"/>
    <path d="M3,0 A30 25 0 0 1 3,25 A30 25 0 0 0 33,12.5 A30 25 0 0 0 3,0" class="cell_$abc$155$auto$blifparse.cc:371:parse_blif$180"/>
    <path d="M0,0 A30 25 0 0 1 0,25" class="cell_$abc$155$auto$blifparse.cc:371:parse_blif$180"/>
    <g s:x="3" s:y="5" s:pid="A"/>
    <g s:x="3" s:y="20" s:pid="B"/>
    <g s:x="33" s:y="12.5" s:pid="Y"/>
  </g>
  <g s:type="nand" transform="translate(992,950)" s:width="30" s:height="25" id="cell_$abc$155$auto$blifparse.cc:371:parse_blif$181">
    <s:alias val="$nand"/>
    <s:alias val="$logic_nand"/>
    <s:alias val="$_NAND_"/>
    <s:alias val="$_ANDNOT_"/>
    <path d="M0,0 L0,25 L15,25 A15 12.5 0 0 0 15,0 Z" class="cell_$abc$155$auto$blifparse.cc:371:parse_blif$181"/>
    <circle cx="34" cy="12.5" r="3" class="cell_$abc$155$auto$blifparse.cc:371:parse_blif$181"/>
    <g s:x="0" s:y="5" s:pid="A"/>
    <g s:x="0" s:y="20" s:pid="B"/>
    <g s:x="36" s:y="12.5" s:pid="Y"/>
  </g>
  <g s:type="reduce_xor" transform="translate(1208.6666666666667,859)" s:width="33" s:height="25" id="cell_$abc$155$auto$blifparse.cc:371:parse_blif$182">
    <s:alias val="$xor"/>
    <s:alias val="$reduce_xor"/>
    <s:alias val="$_XOR_"/>
    <path d="M3,0 A30 25 0 0 1 3,25 A30 25 0 0 0 33,12.5 A30 25 0 0 0 3,0" class="cell_$abc$155$auto$blifparse.cc:371:parse_blif$182"/>
    <path d="M0,0 A30 25 0 0 1 0,25" class="cell_$abc$155$auto$blifparse.cc:371:parse_blif$182"/>
    <g s:x="3" s:y="5" s:pid="A"/>
    <g s:x="3" s:y="20" s:pid="B"/>
    <g s:x="33" s:y="12.5" s:pid="Y"/>
  </g>
  <g s:type="and" transform="translate(1064,942.5)" s:width="30" s:height="25" id="cell_$abc$155$auto$blifparse.cc:371:parse_blif$183">
    <s:alias val="$and"/>
    <s:alias val="$logic_and"/>
    <s:alias val="$_AND_"/>
    <path d="M0,0 L0,25 L15,25 A15 12.5 0 0 0 15,0 Z" class="cell_$abc$155$auto$blifparse.cc:371:parse_blif$183"/>
    <g s:x="0" s:y="5" s:pid="A"/>
    <g s:x="0" s:y="20" s:pid="B"/>
    <g s:x="30" s:y="12.5" s:pid="Y"/>
  </g>
  <g s:type="nand" transform="translate(1136,1012)" s:width="30" s:height="25" id="cell_$abc$155$auto$blifparse.cc:371:parse_blif$184">
    <s:alias val="$nand"/>
    <s:alias val="$logic_nand"/>
    <s:alias val="$_NAND_"/>
    <s:alias val="$_ANDNOT_"/>
    <path d="M0,0 L0,25 L15,25 A15 12.5 0 0 0 15,0 Z" class="cell_$abc$155$auto$blifparse.cc:371:parse_blif$184"/>
    <circle cx="34" cy="12.5" r="3" class="cell_$abc$155$auto$blifparse.cc:371:parse_blif$184"/>
    <g s:x="0" s:y="5" s:pid="A"/>
    <g s:x="0" s:y="20" s:pid="B"/>
    <g s:x="36" s:y="12.5" s:pid="Y"/>
  </g>
  <g s:type="reduce_xor" transform="translate(1063,988.5)" s:width="33" s:height="25" id="cell_$abc$155$auto$blifparse.cc:371:parse_blif$185">
    <s:alias val="$xor"/>
    <s:alias val="$reduce_xor"/>
    <s:alias val="$_XOR_"/>
    <path d="M3,0 A30 25 0 0 1 3,25 A30 25 0 0 0 33,12.5 A30 25 0 0 0 3,0" class="cell_$abc$155$auto$blifparse.cc:371:parse_blif$185"/>
    <path d="M0,0 A30 25 0 0 1 0,25" class="cell_$abc$155$auto$blifparse.cc:371:parse_blif$185"/>
    <g s:x="3" s:y="5" s:pid="A"/>
    <g s:x="3" s:y="20" s:pid="B"/>
    <g s:x="33" s:y="12.5" s:pid="Y"/>
  </g>
  <g s:type="nand" transform="translate(1136,1072)" s:width="30" s:height="25" id="cell_$abc$155$auto$blifparse.cc:371:parse_blif$186">
    <s:alias val="$nand"/>
    <s:alias val="$logic_nand"/>
    <s:alias val="$_NAND_"/>
    <s:alias val="$_ANDNOT_"/>
    <path d="M0,0 L0,25 L15,25 A15 12.5 0 0 0 15,0 Z" class="cell_$abc$155$auto$blifparse.cc:371:parse_blif$186"/>
    <circle cx="34" cy="12.5" r="3" class="cell_$abc$155$auto$blifparse.cc:371:parse_blif$186"/>
    <g s:x="0" s:y="5" s:pid="A"/>
    <g s:x="0" s:y="20" s:pid="B"/>
    <g s:x="36" s:y="12.5" s:pid="Y"/>
  </g>
  <g s:type="reduce_nxor" transform="translate(1207,981)" s:width="33" s:height="25" id="cell_$abc$155$auto$blifparse.cc:371:parse_blif$187">
    <s:alias val="$xnor"/>
    <s:alias val="$reduce_xnor"/>
    <s:alias val="$_XNOR_"/>
    <path d="M3,0 A30 25 0 0 1 3,25 A30 25 0 0 0 33,12.5 A30 25 0 0 0 3,0" class="cell_$abc$155$auto$blifparse.cc:371:parse_blif$187"/>
    <path d="M0,0 A30 25 0 0 1 0,25" class="cell_$abc$155$auto$blifparse.cc:371:parse_blif$187"/>
    <circle cx="35" cy="12.5" r="3" class="cell_$abc$155$auto$blifparse.cc:371:parse_blif$187"/>
    <g s:x="3" s:y="5" s:pid="A"/>
    <g s:x="3" s:y="20" s:pid="B"/>
    <g s:x="38" s:y="12.5" s:pid="Y"/>
  </g>
  <g s:type="nand" transform="translate(1209,1064.5)" s:width="30" s:height="25" id="cell_$abc$155$auto$blifparse.cc:371:parse_blif$188">
    <s:alias val="$nand"/>
    <s:alias val="$logic_nand"/>
    <s:alias val="$_NAND_"/>
    <s:alias val="$_ANDNOT_"/>
    <path d="M0,0 L0,25 L15,25 A15 12.5 0 0 0 15,0 Z" class="cell_$abc$155$auto$blifparse.cc:371:parse_blif$188"/>
    <circle cx="34" cy="12.5" r="3" class="cell_$abc$155$auto$blifparse.cc:371:parse_blif$188"/>
    <g s:x="0" s:y="5" s:pid="A"/>
    <g s:x="0" s:y="20" s:pid="B"/>
    <g s:x="36" s:y="12.5" s:pid="Y"/>
  </g>
  <g s:type="reduce_xor" transform="translate(1208.6666666666667,12)" s:width="33" s:height="25" id="cell_$abc$155$auto$blifparse.cc:371:parse_blif$189">
    <s:alias val="$xor"/>
    <s:alias val="$reduce_xor"/>
    <s:alias val="$_XOR_"/>
    <path d="M3,0 A30 25 0 0 1 3,25 A30 25 0 0 0 33,12.5 A30 25 0 0 0 3,0" class="cell_$abc$155$auto$blifparse.cc:371:parse_blif$189"/>
    <path d="M0,0 A30 25 0 0 1 0,25" class="cell_$abc$155$auto$blifparse.cc:371:parse_blif$189"/>
    <g s:x="3" s:y="5" s:pid="A"/>
    <g s:x="3" s:y="20" s:pid="B"/>
    <g s:x="33" s:y="12.5" s:pid="Y"/>
  </g>
  <g s:type="reduce_xor" transform="translate(1208.6666666666667,72)" s:width="33" s:height="25" id="cell_$abc$155$auto$blifparse.cc:371:parse_blif$190">
    <s:alias val="$xor"/>
    <s:alias val="$reduce_xor"/>
    <s:alias val="$_XOR_"/>
    <path d="M3,0 A30 25 0 0 1 3,25 A30 25 0 0 0 33,12.5 A30 25 0 0 0 3,0" class="cell_$abc$155$auto$blifparse.cc:371:parse_blif$190"/>
    <path d="M0,0 A30 25 0 0 1 0,25" class="cell_$abc$155$auto$blifparse.cc:371:parse_blif$190"/>
    <g s:x="3" s:y="5" s:pid="A"/>
    <g s:x="3" s:y="20" s:pid="B"/>
    <g s:x="33" s:y="12.5" s:pid="Y"/>
  </g>
  <g s:type="reduce_xor" transform="translate(1208.6666666666667,132)" s:width="33" s:height="25" id="cell_$abc$155$auto$blifparse.cc:371:parse_blif$191">
    <s:alias val="$xor"/>
    <s:alias val="$reduce_xor"/>
    <s:alias val="$_XOR_"/>
    <path d="M3,0 A30 25 0 0 1 3,25 A30 25 0 0 0 33,12.5 A30 25 0 0 0 3,0" class="cell_$abc$155$auto$blifparse.cc:371:parse_blif$191"/>
    <path d="M0,0 A30 25 0 0 1 0,25" class="cell_$abc$155$auto$blifparse.cc:371:parse_blif$191"/>
    <g s:x="3" s:y="5" s:pid="A"/>
    <g s:x="3" s:y="20" s:pid="B"/>
    <g s:x="33" s:y="12.5" s:pid="Y"/>
  </g>
  <g s:type="reduce_xor" transform="translate(1208.6666666666667,192)" s:width="33" s:height="25" id="cell_$abc$155$auto$blifparse.cc:371:parse_blif$192">
    <s:alias val="$xor"/>
    <s:alias val="$reduce_xor"/>
    <s:alias val="$_XOR_"/>
    <path d="M3,0 A30 25 0 0 1 3,25 A30 25 0 0 0 33,12.5 A30 25 0 0 0 3,0" class="cell_$abc$155$auto$blifparse.cc:371:parse_blif$192"/>
    <path d="M0,0 A30 25 0 0 1 0,25" class="cell_$abc$155$auto$blifparse.cc:371:parse_blif$192"/>
    <g s:x="3" s:y="5" s:pid="A"/>
    <g s:x="3" s:y="20" s:pid="B"/>
    <g s:x="33" s:y="12.5" s:pid="Y"/>
  </g>
  <g s:type="inputExt" transform="translate(12,641.5)" s:width="30" s:height="20" id="cell_A">
    <text x="15" y="-4" class="nodelabel cell_A" s:attribute="ref">A</text>
    <s:alias val="$_inputExt_"/>
    <path d="M0,0 L0,20 L15,20 L30,10 L15,0 Z" class="cell_A"/>
    <g s:x="28" s:y="10" s:pid="Y"/>
  </g>
  <g s:type="inputExt" transform="translate(12,438.5)" s:width="30" s:height="20" id="cell_B">
    <text x="15" y="-4" class="nodelabel cell_B" s:attribute="ref">B</text>
    <s:alias val="$_inputExt_"/>
    <path d="M0,0 L0,20 L15,20 L30,10 L15,0 Z" class="cell_B"/>
    <g s:x="28" s:y="10" s:pid="Y"/>
  </g>
  <g s:type="outputExt" transform="translate(1358,853.5)" s:width="30" s:height="20" id="cell_O">
    <text x="15" y="-4" class="nodelabel cell_O" s:attribute="ref">O</text>
    <s:alias val="$_outputExt_"/>
    <path d="M30,0 L30,20 L15,20 L0,10 L15,0 Z" class="cell_O"/>
    <g s:x="0" s:y="10" s:pid="A"/>
  </g>
  <g s:type="join" transform="translate(1315,843)" s:width="4" s:height="40" id="cell_$join$,18,19,20,21,22,23,24,25,26,">
    <rect width="5" height="180" class="splitjoinBody" s:generic="body"/>
    <s:alias val="$_join_"/>
    <g s:x="5" s:y="20" s:pid="out"/>
    <g transform="translate(0,10)" s:x="0" s:y="10" s:pid="in0">
      <text x="-3" y="-4" class="inputPortLabel">0</text>
    </g>
    <g transform="translate(0,30)" s:x="0" s:y="10" s:pid="in0">
      <text x="-3" y="-4" class="inputPortLabel">1</text>
    </g>
    <g transform="translate(0,50)" s:x="0" s:y="10" s:pid="in0">
      <text x="-3" y="-4" class="inputPortLabel">2</text>
    </g>
    <g transform="translate(0,70)" s:x="0" s:y="10" s:pid="in0">
      <text x="-3" y="-4" class="inputPortLabel">3</text>
    </g>
    <g transform="translate(0,90)" s:x="0" s:y="10" s:pid="in0">
      <text x="-3" y="-4" class="inputPortLabel">4</text>
    </g>
    <g transform="translate(0,110)" s:x="0" s:y="10" s:pid="in0">
      <text x="-3" y="-4" class="inputPortLabel">5</text>
    </g>
    <g transform="translate(0,130)" s:x="0" s:y="10" s:pid="in0">
      <text x="-3" y="-4" class="inputPortLabel">6</text>
    </g>
    <g transform="translate(0,150)" s:x="0" s:y="10" s:pid="in0">
      <text x="-3" y="-4" class="inputPortLabel">7</text>
    </g>
    <g transform="translate(0,170)" s:x="0" s:y="10" s:pid="in0">
      <text x="-3" y="-4" class="inputPortLabel">8</text>
    </g>
  </g>
  <g s:type="split" transform="translate(77,428)" s:width="5" s:height="40" id="cell_$split$,10,11,12,13,14,15,16,17,">
    <rect width="5" height="160" class="splitjoinBody" s:generic="body"/>
    <s:alias val="$_split_"/>
    <g s:x="0" s:y="20" s:pid="in"/>
    <g transform="translate(4,10)" s:x="4" s:y="10" s:pid="out0">
      <text x="5" y="-4">3</text>
    </g>
    <g transform="translate(4,30)" s:x="4" s:y="10" s:pid="out0">
      <text x="5" y="-4">2</text>
    </g>
    <g transform="translate(4,50)" s:x="4" s:y="10" s:pid="out0">
      <text x="5" y="-4">1</text>
    </g>
    <g transform="translate(4,70)" s:x="4" s:y="10" s:pid="out0">
      <text x="5" y="-4">0</text>
    </g>
    <g transform="translate(4,90)" s:x="4" s:y="10" s:pid="out0">
      <text x="5" y="-4">4</text>
    </g>
    <g transform="translate(4,110)" s:x="4" s:y="10" s:pid="out0">
      <text x="5" y="-4">5</text>
    </g>
    <g transform="translate(4,130)" s:x="4" s:y="10" s:pid="out0">
      <text x="5" y="-4">6</text>
    </g>
    <g transform="translate(4,150)" s:x="4" s:y="10" s:pid="out0">
      <text x="5" y="-4">7</text>
    </g>
  </g>
  <g s:type="split" transform="translate(77,631)" s:width="5" s:height="40" id="cell_$split$,2,3,4,5,6,7,8,9,">
    <rect width="5" height="160" class="splitjoinBody" s:generic="body"/>
    <s:alias val="$_split_"/>
    <g s:x="0" s:y="20" s:pid="in"/>
    <g transform="translate(4,10)" s:x="4" s:y="10" s:pid="out0">
      <text x="5" y="-4">3</text>
    </g>
    <g transform="translate(4,30)" s:x="4" s:y="10" s:pid="out0">
      <text x="5" y="-4">2</text>
    </g>
    <g transform="translate(4,50)" s:x="4" s:y="10" s:pid="out0">
      <text x="5" y="-4">1</text>
    </g>
    <g transform="translate(4,70)" s:x="4" s:y="10" s:pid="out0">
      <text x="5" y="-4">0</text>
    </g>
    <g transform="translate(4,90)" s:x="4" s:y="10" s:pid="out0">
      <text x="5" y="-4">4</text>
    </g>
    <g transform="translate(4,110)" s:x="4" s:y="10" s:pid="out0">
      <text x="5" y="-4">5</text>
    </g>
    <g transform="translate(4,130)" s:x="4" s:y="10" s:pid="out0">
      <text x="5" y="-4">6</text>
    </g>
    <g transform="translate(4,150)" s:x="4" s:y="10" s:pid="out0">
      <text x="5" y="-4">7</text>
    </g>
  </g>
  <line x1="81.5" x2="81.5" y1="438" y2="416" class="net_13"/>
  <line x1="81.5" x2="179" y1="416" y2="416" class="net_13"/>
  <line x1="179" x2="179" y1="416" y2="578" class="net_13"/>
  <line x1="179" x2="455" y1="578" y2="578" class="net_13"/>
  <line x1="455" x2="455" y1="578" y2="562" class="net_13"/>
  <line x1="455" x2="536" y1="562" y2="562" class="net_13"/>
  <line x1="536" x2="536" y1="562" y2="593" class="net_13"/>
  <circle cx="455" cy="578" r="2" style="fill:#000" class="net_13"/>
  <line x1="536" x2="556" y1="593" y2="593" class="net_13"/>
  <line x1="81.5" x2="81.5" y1="438" y2="416" class="net_13"/>
  <line x1="81.5" x2="179" y1="416" y2="416" class="net_13"/>
  <line x1="179" x2="179" y1="416" y2="578" class="net_13"/>
  <line x1="179" x2="484" y1="578" y2="578" class="net_13"/>
  <line x1="81.5" x2="81.5" y1="641" y2="608" class="net_5"/>
  <line x1="81.5" x2="556" y1="608" y2="608" class="net_5"/>
  <line x1="81.5" x2="81.5" y1="641" y2="608" class="net_5"/>
  <line x1="81.5" x2="455" y1="608" y2="608" class="net_5"/>
  <line x1="455" x2="455" y1="608" y2="593" class="net_5"/>
  <circle cx="455" cy="608" r="2" style="fill:#000" class="net_5"/>
  <line x1="455" x2="484" y1="593" y2="593" class="net_5"/>
  <line x1="82" x2="308" y1="458.5" y2="458.5" class="net_12"/>
  <line x1="308" x2="308" y1="458.5" y2="442.5" class="net_12"/>
  <line x1="308" x2="389" y1="442.5" y2="442.5" class="net_12"/>
  <line x1="389" x2="389" y1="442.5" y2="479.5" class="net_12"/>
  <circle cx="308" cy="458.5" r="2" style="fill:#000" class="net_12"/>
  <line x1="389" x2="409" y1="479.5" y2="479.5" class="net_12"/>
  <line x1="82" x2="337" y1="458.5" y2="458.5" class="net_12"/>
  <line x1="82" x2="169" y1="661.5" y2="661.5" class="net_4"/>
  <line x1="169" x2="169" y1="661.5" y2="494.5" class="net_4"/>
  <line x1="169" x2="409" y1="494.5" y2="494.5" class="net_4"/>
  <line x1="82" x2="169" y1="661.5" y2="661.5" class="net_4"/>
  <line x1="169" x2="169" y1="661.5" y2="494.5" class="net_4"/>
  <line x1="169" x2="308" y1="494.5" y2="494.5" class="net_4"/>
  <line x1="308" x2="308" y1="494.5" y2="473.5" class="net_4"/>
  <circle cx="308" cy="494.5" r="2" style="fill:#000" class="net_4"/>
  <line x1="308" x2="337" y1="473.5" y2="473.5" class="net_4"/>
  <line x1="82" x2="149" y1="478.5" y2="478.5" class="net_11"/>
  <line x1="149" x2="149" y1="478.5" y2="329" class="net_11"/>
  <line x1="149" x2="242" y1="329" y2="329" class="net_11"/>
  <line x1="242" x2="242" y1="329" y2="360" class="net_11"/>
  <line x1="242" x2="262" y1="360" y2="360" class="net_11"/>
  <line x1="82" x2="149" y1="478.5" y2="478.5" class="net_11"/>
  <line x1="149" x2="149" y1="478.5" y2="345" class="net_11"/>
  <circle cx="149" cy="345" r="2" style="fill:#000" class="net_11"/>
  <line x1="149" x2="192" y1="345" y2="345" class="net_11"/>
  <line x1="82" x2="159" y1="681.5" y2="681.5" class="net_3"/>
  <line x1="159" x2="159" y1="681.5" y2="375" class="net_3"/>
  <circle cx="159" cy="375" r="2" style="fill:#000" class="net_3"/>
  <line x1="159" x2="262" y1="375" y2="375" class="net_3"/>
  <line x1="82" x2="159" y1="681.5" y2="681.5" class="net_3"/>
  <line x1="159" x2="159" y1="681.5" y2="360" class="net_3"/>
  <line x1="159" x2="192" y1="360" y2="360" class="net_3"/>
  <line x1="82" x2="99" y1="498.5" y2="498.5" class="net_10"/>
  <line x1="99" x2="99" y1="498.5" y2="299" class="net_10"/>
  <circle cx="99" cy="299" r="2" style="fill:#000" class="net_10"/>
  <line x1="99" x2="190" y1="299" y2="299" class="net_10"/>
  <line x1="82" x2="99" y1="498.5" y2="498.5" class="net_10"/>
  <line x1="99" x2="99" y1="498.5" y2="17" class="net_10"/>
  <line x1="99" x2="1211.6666666666667" y1="17" y2="17" class="net_10"/>
  <line x1="82" x2="129" y1="701.5" y2="701.5" class="net_2"/>
  <line x1="129" x2="129" y1="701.5" y2="314" class="net_2"/>
  <circle cx="129" cy="314" r="2" style="fill:#000" class="net_2"/>
  <line x1="129" x2="190" y1="314" y2="314" class="net_2"/>
  <line x1="82" x2="129" y1="701.5" y2="701.5" class="net_2"/>
  <line x1="129" x2="129" y1="701.5" y2="32" class="net_2"/>
  <line x1="129" x2="1211.6666666666667" y1="32" y2="32" class="net_2"/>
  <line x1="220" x2="252" y1="306.5" y2="306.5" class="net_30"/>
  <line x1="252" x2="252" y1="306.5" y2="420" class="net_30"/>
  <circle cx="252" cy="306.5" r="2" style="fill:#000" class="net_30"/>
  <line x1="252" x2="262" y1="420" y2="420" class="net_30"/>
  <line x1="220" x2="252" y1="306.5" y2="306.5" class="net_30"/>
  <line x1="252" x2="252" y1="306.5" y2="77" class="net_30"/>
  <line x1="252" x2="1211.6666666666667" y1="77" y2="77" class="net_30"/>
  <line x1="222" x2="232" y1="352.5" y2="352.5" class="net_31"/>
  <line x1="232" x2="232" y1="352.5" y2="435" class="net_31"/>
  <circle cx="232" cy="352.5" r="2" style="fill:#000" class="net_31"/>
  <line x1="232" x2="262" y1="435" y2="435" class="net_31"/>
  <line x1="222" x2="232" y1="352.5" y2="352.5" class="net_31"/>
  <line x1="232" x2="232" y1="352.5" y2="92" class="net_31"/>
  <line x1="232" x2="1211.6666666666667" y1="92" y2="92" class="net_31"/>
  <line x1="298" x2="308" y1="367.5" y2="367.5" class="net_29"/>
  <line x1="308" x2="308" y1="367.5" y2="412.5" class="net_29"/>
  <line x1="308" x2="333" y1="412.5" y2="412.5" class="net_29"/>
  <line x1="298" x2="333" y1="427.5" y2="427.5" class="net_32"/>
  <line x1="369" x2="399" y1="420" y2="420" class="net_33"/>
  <line x1="399" x2="399" y1="420" y2="539.5" class="net_33"/>
  <circle cx="399" cy="420" r="2" style="fill:#000" class="net_33"/>
  <line x1="399" x2="409" y1="539.5" y2="539.5" class="net_33"/>
  <line x1="369" x2="399" y1="420" y2="420" class="net_33"/>
  <line x1="399" x2="399" y1="420" y2="137" class="net_33"/>
  <line x1="399" x2="1211.6666666666667" y1="137" y2="137" class="net_33"/>
  <line x1="367" x2="379" y1="466" y2="466" class="net_34"/>
  <line x1="379" x2="379" y1="466" y2="554.5" class="net_34"/>
  <circle cx="379" cy="466" r="2" style="fill:#000" class="net_34"/>
  <line x1="379" x2="409" y1="554.5" y2="554.5" class="net_34"/>
  <line x1="367" x2="379" y1="466" y2="466" class="net_34"/>
  <line x1="379" x2="379" y1="466" y2="152" class="net_34"/>
  <line x1="379" x2="1211.6666666666667" y1="152" y2="152" class="net_34"/>
  <line x1="445" x2="455" y1="487" y2="487" class="net_28"/>
  <line x1="455" x2="455" y1="487" y2="532" class="net_28"/>
  <line x1="455" x2="480" y1="532" y2="532" class="net_28"/>
  <line x1="445" x2="480" y1="547" y2="547" class="net_35"/>
  <line x1="516" x2="546" y1="539.5" y2="539.5" class="net_36"/>
  <line x1="546" x2="546" y1="539.5" y2="653" class="net_36"/>
  <circle cx="546" cy="539.5" r="2" style="fill:#000" class="net_36"/>
  <line x1="546" x2="556" y1="653" y2="653" class="net_36"/>
  <line x1="516" x2="546" y1="539.5" y2="539.5" class="net_36"/>
  <line x1="546" x2="546" y1="539.5" y2="197" class="net_36"/>
  <line x1="546" x2="1211.6666666666667" y1="197" y2="197" class="net_36"/>
  <line x1="514" x2="526" y1="585.5" y2="585.5" class="net_37"/>
  <line x1="526" x2="526" y1="585.5" y2="668" class="net_37"/>
  <circle cx="526" cy="585.5" r="2" style="fill:#000" class="net_37"/>
  <line x1="526" x2="556" y1="668" y2="668" class="net_37"/>
  <line x1="514" x2="526" y1="585.5" y2="585.5" class="net_37"/>
  <line x1="526" x2="526" y1="585.5" y2="212" class="net_37"/>
  <line x1="526" x2="1211.6666666666667" y1="212" y2="212" class="net_37"/>
  <line x1="592" x2="602" y1="600.5" y2="600.5" class="net_27"/>
  <line x1="602" x2="602" y1="600.5" y2="645.5" class="net_27"/>
  <line x1="602" x2="627" y1="645.5" y2="645.5" class="net_27"/>
  <line x1="592" x2="627" y1="660.5" y2="660.5" class="net_38"/>
  <line x1="82" x2="149" y1="518.5" y2="518.5" class="net_14"/>
  <line x1="149" x2="149" y1="518.5" y2="691.5" class="net_14"/>
  <line x1="149" x2="602" y1="691.5" y2="691.5" class="net_14"/>
  <line x1="602" x2="602" y1="691.5" y2="675.5" class="net_14"/>
  <line x1="602" x2="683" y1="675.5" y2="675.5" class="net_14"/>
  <line x1="683" x2="683" y1="675.5" y2="706.5" class="net_14"/>
  <circle cx="602" cy="691.5" r="2" style="fill:#000" class="net_14"/>
  <line x1="683" x2="703" y1="706.5" y2="706.5" class="net_14"/>
  <line x1="82" x2="149" y1="518.5" y2="518.5" class="net_14"/>
  <line x1="149" x2="149" y1="518.5" y2="691.5" class="net_14"/>
  <line x1="149" x2="631" y1="691.5" y2="691.5" class="net_14"/>
  <line x1="82" x2="703" y1="721.5" y2="721.5" class="net_6"/>
  <line x1="82" x2="602" y1="721.5" y2="721.5" class="net_6"/>
  <line x1="602" x2="602" y1="721.5" y2="706.5" class="net_6"/>
  <circle cx="602" cy="721.5" r="2" style="fill:#000" class="net_6"/>
  <line x1="602" x2="631" y1="706.5" y2="706.5" class="net_6"/>
  <line x1="663" x2="693" y1="653" y2="653" class="net_39"/>
  <line x1="693" x2="693" y1="653" y2="766.5" class="net_39"/>
  <circle cx="693" cy="653" r="2" style="fill:#000" class="net_39"/>
  <line x1="693" x2="703" y1="766.5" y2="766.5" class="net_39"/>
  <line x1="663" x2="693" y1="653" y2="653" class="net_39"/>
  <line x1="693" x2="693" y1="653" y2="257" class="net_39"/>
  <line x1="693" x2="1211.6666666666667" y1="257" y2="257" class="net_39"/>
  <line x1="661" x2="673" y1="699" y2="699" class="net_41"/>
  <line x1="673" x2="673" y1="699" y2="781.5" class="net_41"/>
  <circle cx="673" cy="699" r="2" style="fill:#000" class="net_41"/>
  <line x1="673" x2="703" y1="781.5" y2="781.5" class="net_41"/>
  <line x1="661" x2="673" y1="699" y2="699" class="net_41"/>
  <line x1="673" x2="673" y1="699" y2="272" class="net_41"/>
  <line x1="673" x2="1211.6666666666667" y1="272" y2="272" class="net_41"/>
  <line x1="739" x2="749" y1="714" y2="714" class="net_40"/>
  <line x1="749" x2="749" y1="714" y2="759" class="net_40"/>
  <line x1="749" x2="774" y1="759" y2="759" class="net_40"/>
  <line x1="739" x2="774" y1="774" y2="774" class="net_42"/>
  <line x1="82" x2="139" y1="538.5" y2="538.5" class="net_15"/>
  <line x1="139" x2="139" y1="538.5" y2="283" class="net_15"/>
  <line x1="139" x2="840" y1="283" y2="283" class="net_15"/>
  <line x1="840" x2="840" y1="283" y2="797.5" class="net_15"/>
  <circle cx="139" cy="538.5" r="2" style="fill:#000" class="net_15"/>
  <line x1="840" x2="850" y1="797.5" y2="797.5" class="net_15"/>
  <line x1="82" x2="139" y1="538.5" y2="538.5" class="net_15"/>
  <line x1="139" x2="139" y1="538.5" y2="865" class="net_15"/>
  <line x1="139" x2="778" y1="865" y2="865" class="net_15"/>
  <line x1="82" x2="129" y1="741.5" y2="741.5" class="net_7"/>
  <line x1="129" x2="129" y1="741.5" y2="812.5" class="net_7"/>
  <circle cx="129" cy="812.5" r="2" style="fill:#000" class="net_7"/>
  <line x1="129" x2="850" y1="812.5" y2="812.5" class="net_7"/>
  <line x1="82" x2="129" y1="741.5" y2="741.5" class="net_7"/>
  <line x1="129" x2="129" y1="741.5" y2="880" class="net_7"/>
  <line x1="129" x2="778" y1="880" y2="880" class="net_7"/>
  <line x1="810" x2="820" y1="766.5" y2="766.5" class="net_43"/>
  <line x1="820" x2="820" y1="766.5" y2="857.5" class="net_43"/>
  <circle cx="820" cy="766.5" r="2" style="fill:#000" class="net_43"/>
  <line x1="820" x2="850" y1="857.5" y2="857.5" class="net_43"/>
  <line x1="810" x2="1211.6666666666667" y1="766.5" y2="766.5" class="net_43"/>
  <line x1="808" x2="850" y1="872.5" y2="872.5" class="net_45"/>
  <line x1="808" x2="830" y1="872.5" y2="872.5" class="net_45"/>
  <line x1="830" x2="830" y1="872.5" y2="781.5" class="net_45"/>
  <circle cx="830" cy="872.5" r="2" style="fill:#000" class="net_45"/>
  <line x1="830" x2="1211.6666666666667" y1="781.5" y2="781.5" class="net_45"/>
  <line x1="886" x2="896" y1="805" y2="805" class="net_44"/>
  <line x1="896" x2="896" y1="805" y2="850" class="net_44"/>
  <line x1="896" x2="921" y1="850" y2="850" class="net_44"/>
  <line x1="886" x2="921" y1="865" y2="865" class="net_46"/>
  <line x1="82" x2="119" y1="558.5" y2="558.5" class="net_16"/>
  <line x1="119" x2="119" y1="558.5" y2="895" class="net_16"/>
  <circle cx="119" cy="895" r="2" style="fill:#000" class="net_16"/>
  <line x1="119" x2="992" y1="895" y2="895" class="net_16"/>
  <line x1="82" x2="119" y1="558.5" y2="558.5" class="net_16"/>
  <line x1="119" x2="119" y1="558.5" y2="962.5" class="net_16"/>
  <line x1="119" x2="925" y1="962.5" y2="962.5" class="net_16"/>
  <line x1="82" x2="109" y1="761.5" y2="761.5" class="net_8"/>
  <line x1="109" x2="109" y1="761.5" y2="910" class="net_8"/>
  <circle cx="109" cy="910" r="2" style="fill:#000" class="net_8"/>
  <line x1="109" x2="992" y1="910" y2="910" class="net_8"/>
  <line x1="82" x2="109" y1="761.5" y2="761.5" class="net_8"/>
  <line x1="109" x2="109" y1="761.5" y2="977.5" class="net_8"/>
  <line x1="109" x2="925" y1="977.5" y2="977.5" class="net_8"/>
  <line x1="957" x2="977" y1="857.5" y2="857.5" class="net_47"/>
  <line x1="977" x2="977" y1="857.5" y2="955" class="net_47"/>
  <circle cx="977" cy="857.5" r="2" style="fill:#000" class="net_47"/>
  <line x1="977" x2="992" y1="955" y2="955" class="net_47"/>
  <line x1="957" x2="1182" y1="857.5" y2="857.5" class="net_47"/>
  <line x1="1182" x2="1182" y1="857.5" y2="864" class="net_47"/>
  <line x1="1182" x2="1211.6666666666667" y1="864" y2="864" class="net_47"/>
  <line x1="955" x2="992" y1="970" y2="970" class="net_49"/>
  <line x1="955" x2="967" y1="970" y2="970" class="net_49"/>
  <line x1="967" x2="967" y1="970" y2="879" class="net_49"/>
  <circle cx="967" cy="970" r="2" style="fill:#000" class="net_49"/>
  <line x1="967" x2="1211.6666666666667" y1="879" y2="879" class="net_49"/>
  <line x1="1028" x2="1038" y1="902.5" y2="902.5" class="net_48"/>
  <line x1="1038" x2="1038" y1="902.5" y2="947.5" class="net_48"/>
  <line x1="1038" x2="1064" y1="947.5" y2="947.5" class="net_48"/>
  <line x1="1028" x2="1064" y1="962.5" y2="962.5" class="net_50"/>
  <line x1="81.5" x2="81.5" y1="579" y2="598" class="net_17"/>
  <line x1="81.5" x2="99" y1="598" y2="598" class="net_17"/>
  <line x1="99" x2="99" y1="598" y2="993.5" class="net_17"/>
  <line x1="99" x2="1038" y1="993.5" y2="993.5" class="net_17"/>
  <line x1="1038" x2="1038" y1="993.5" y2="977.5" class="net_17"/>
  <line x1="1038" x2="1116" y1="977.5" y2="977.5" class="net_17"/>
  <line x1="1116" x2="1116" y1="977.5" y2="1017" class="net_17"/>
  <circle cx="1038" cy="993.5" r="2" style="fill:#000" class="net_17"/>
  <line x1="1116" x2="1136" y1="1017" y2="1017" class="net_17"/>
  <line x1="81.5" x2="81.5" y1="579" y2="598" class="net_17"/>
  <line x1="81.5" x2="99" y1="598" y2="598" class="net_17"/>
  <line x1="99" x2="99" y1="598" y2="993.5" class="net_17"/>
  <line x1="99" x2="1066" y1="993.5" y2="993.5" class="net_17"/>
  <line x1="81.5" x2="81.5" y1="782" y2="1032" class="net_9"/>
  <line x1="81.5" x2="1136" y1="1032" y2="1032" class="net_9"/>
  <line x1="81.5" x2="81.5" y1="782" y2="1032" class="net_9"/>
  <line x1="81.5" x2="1038" y1="1032" y2="1032" class="net_9"/>
  <line x1="1038" x2="1038" y1="1032" y2="1008.5" class="net_9"/>
  <circle cx="1038" cy="1032" r="2" style="fill:#000" class="net_9"/>
  <line x1="1038" x2="1066" y1="1008.5" y2="1008.5" class="net_9"/>
  <line x1="1094" x2="1126" y1="955" y2="955" class="net_51"/>
  <line x1="1126" x2="1126" y1="955" y2="1077" class="net_51"/>
  <circle cx="1126" cy="955" r="2" style="fill:#000" class="net_51"/>
  <line x1="1126" x2="1136" y1="1077" y2="1077" class="net_51"/>
  <line x1="1094" x2="1182" y1="955" y2="955" class="net_51"/>
  <line x1="1182" x2="1182" y1="955" y2="986" class="net_51"/>
  <line x1="1182" x2="1210" y1="986" y2="986" class="net_51"/>
  <line x1="1096" x2="1106" y1="1001" y2="1001" class="net_53"/>
  <line x1="1106" x2="1106" y1="1001" y2="1092" class="net_53"/>
  <circle cx="1106" cy="1001" r="2" style="fill:#000" class="net_53"/>
  <line x1="1106" x2="1136" y1="1092" y2="1092" class="net_53"/>
  <line x1="1096" x2="1210" y1="1001" y2="1001" class="net_53"/>
  <line x1="1172" x2="1182" y1="1024.5" y2="1024.5" class="net_52"/>
  <line x1="1182" x2="1182" y1="1024.5" y2="1069.5" class="net_52"/>
  <line x1="1182" x2="1209" y1="1069.5" y2="1069.5" class="net_52"/>
  <line x1="1172" x2="1209" y1="1084.5" y2="1084.5" class="net_54"/>
  <line x1="1321" x2="1358" y1="863.5" y2="863.5" class="net_18,19,20,21,22,23,24,25,26"/>
  <line x1="1241.6666666666667" x2="1315.5" y1="24.5" y2="24.5" class="net_18"/>
  <line x1="1315.5" x2="1315.5" y1="24.5" y2="853" class="net_18"/>
  <line x1="1241.6666666666667" x2="1305" y1="84.5" y2="84.5" class="net_19"/>
  <line x1="1305" x2="1305" y1="84.5" y2="873.5" class="net_19"/>
  <line x1="1305" x2="1315" y1="873.5" y2="873.5" class="net_19"/>
  <line x1="1241.6666666666667" x2="1295" y1="144.5" y2="144.5" class="net_20"/>
  <line x1="1295" x2="1295" y1="144.5" y2="893.5" class="net_20"/>
  <line x1="1295" x2="1315" y1="893.5" y2="893.5" class="net_20"/>
  <line x1="1241.6666666666667" x2="1285" y1="204.5" y2="204.5" class="net_21"/>
  <line x1="1285" x2="1285" y1="204.5" y2="913.5" class="net_21"/>
  <line x1="1285" x2="1315" y1="913.5" y2="913.5" class="net_21"/>
  <line x1="1241.6666666666667" x2="1275" y1="264.5" y2="264.5" class="net_22"/>
  <line x1="1275" x2="1275" y1="264.5" y2="933.5" class="net_22"/>
  <line x1="1275" x2="1315" y1="933.5" y2="933.5" class="net_22"/>
  <line x1="1241.6666666666667" x2="1265" y1="774" y2="774" class="net_23"/>
  <line x1="1265" x2="1265" y1="774" y2="953.5" class="net_23"/>
  <line x1="1265" x2="1315" y1="953.5" y2="953.5" class="net_23"/>
  <line x1="1241.6666666666667" x2="1255" y1="871.5" y2="871.5" class="net_24"/>
  <line x1="1255" x2="1255" y1="871.5" y2="973.5" class="net_24"/>
  <line x1="1255" x2="1315" y1="973.5" y2="973.5" class="net_24"/>
  <line x1="1245" x2="1315" y1="993.5" y2="993.5" class="net_25"/>
  <line x1="1245" x2="1315.5" y1="1077" y2="1077" class="net_26"/>
  <line x1="1315.5" x2="1315.5" y1="1077" y2="1014" class="net_26"/>
  <line x1="40" x2="77" y1="448.5" y2="448.5" class="net_10,11,12,13,14,15,16,17"/>
  <line x1="40" x2="77" y1="651.5" y2="651.5" class="net_2,3,4,5,6,7,8,9"/>
</svg>
