<svg xmlns="http://www.w3.org/2000/svg" xmlns:xlink="http://www.w3.org/1999/xlink" xmlns:s="https://github.com/nturley/netlistsvg" width="1229" height="643">
  <style>svg {
    stroke:#000;
    fill:none;
  }
  text {
    fill:#000;
    stroke:none;
    font-size:10px;
    font-weight: bold;
    font-family: "Courier New", monospace;
  }
  .nodelabel {
    text-anchor: middle;
  }
  .inputPortLabel {
    text-anchor: end;
  }
  .splitjoinBody {
    fill:#000;
  }</style>
  <g s:type="or" transform="translate(234,260)" s:width="30" s:height="25" id="cell_$abc$92$auto$blifparse.cc:371:parse_blif$100">
    <s:alias val="$or"/>
    <s:alias val="$logic_or"/>
    <s:alias val="$_OR_"/>
    <path d="M0,25 L0,25 L15,25 A15 12.5 0 0 0 15,0 L0,0" class="cell_$abc$92$auto$blifparse.cc:371:parse_blif$100"/>
    <path d="M0,0 A30 25 0 0 1 0,25" class="cell_$abc$92$auto$blifparse.cc:371:parse_blif$100"/>
    <g s:x="3" s:y="5" s:pid="A"/>
    <g s:x="3" s:y="20" s:pid="B"/>
    <g s:x="30" s:y="12.5" s:pid="Y"/>
  </g>
  <g s:type="not" transform="translate(299,262.5)" s:width="30" s:height="20" id="cell_$abc$92$auto$blifparse.cc:371:parse_blif$101">
    <s:alias val="$_NOT_"/>
    <s:alias val="$not"/>
    <s:alias val="$logic_not"/>
    <path d="M0,0 L0,20 L20,10 Z" class="cell_$abc$92$auto$blifparse.cc:371:parse_blif$101"/>
    <circle cx="23" cy="10" r="3" class="cell_$abc$92$auto$blifparse.cc:371:parse_blif$101"/>
    <g s:x="0" s:y="10" s:pid="A"/>
    <g s:x="25" s:y="10" s:pid="Y"/>
  </g>
  <g s:type="or" transform="translate(234,200)" s:width="30" s:height="25" id="cell_$abc$92$auto$blifparse.cc:371:parse_blif$102">
    <s:alias val="$or"/>
    <s:alias val="$logic_or"/>
    <s:alias val="$_OR_"/>
    <path d="M0,25 L0,25 L15,25 A15 12.5 0 0 0 15,0 L0,0" class="cell_$abc$92$auto$blifparse.cc:371:parse_blif$102"/>
    <path d="M0,0 A30 25 0 0 1 0,25" class="cell_$abc$92$auto$blifparse.cc:371:parse_blif$102"/>
    <g s:x="3" s:y="5" s:pid="A"/>
    <g s:x="3" s:y="20" s:pid="B"/>
    <g s:x="30" s:y="12.5" s:pid="Y"/>
  </g>
  <g s:type="not" transform="translate(299,202.5)" s:width="30" s:height="20" id="cell_$abc$92$auto$blifparse.cc:371:parse_blif$103">
    <s:alias val="$_NOT_"/>
    <s:alias val="$not"/>
    <s:alias val="$logic_not"/>
    <path d="M0,0 L0,20 L20,10 Z" class="cell_$abc$92$auto$blifparse.cc:371:parse_blif$103"/>
    <circle cx="23" cy="10" r="3" class="cell_$abc$92$auto$blifparse.cc:371:parse_blif$103"/>
    <g s:x="0" s:y="10" s:pid="A"/>
    <g s:x="25" s:y="10" s:pid="Y"/>
  </g>
  <g s:type="or" transform="translate(364,192.5)" s:width="30" s:height="25" id="cell_$abc$92$auto$blifparse.cc:371:parse_blif$104">
    <s:alias val="$or"/>
    <s:alias val="$logic_or"/>
    <s:alias val="$_OR_"/>
    <path d="M0,25 L0,25 L15,25 A15 12.5 0 0 0 15,0 L0,0" class="cell_$abc$92$auto$blifparse.cc:371:parse_blif$104"/>
    <path d="M0,0 A30 25 0 0 1 0,25" class="cell_$abc$92$auto$blifparse.cc:371:parse_blif$104"/>
    <g s:x="3" s:y="5" s:pid="A"/>
    <g s:x="3" s:y="20" s:pid="B"/>
    <g s:x="30" s:y="12.5" s:pid="Y"/>
  </g>
  <g s:type="not" transform="translate(819,195)" s:width="30" s:height="20" id="cell_$abc$92$auto$blifparse.cc:371:parse_blif$105">
    <s:alias val="$_NOT_"/>
    <s:alias val="$not"/>
    <s:alias val="$logic_not"/>
    <path d="M0,0 L0,20 L20,10 Z" class="cell_$abc$92$auto$blifparse.cc:371:parse_blif$105"/>
    <circle cx="23" cy="10" r="3" class="cell_$abc$92$auto$blifparse.cc:371:parse_blif$105"/>
    <g s:x="0" s:y="10" s:pid="A"/>
    <g s:x="25" s:y="10" s:pid="Y"/>
  </g>
  <g s:type="or" transform="translate(429,142.5)" s:width="30" s:height="25" id="cell_$abc$92$auto$blifparse.cc:371:parse_blif$106">
    <s:alias val="$or"/>
    <s:alias val="$logic_or"/>
    <s:alias val="$_OR_"/>
    <path d="M0,25 L0,25 L15,25 A15 12.5 0 0 0 15,0 L0,0" class="cell_$abc$92$auto$blifparse.cc:371:parse_blif$106"/>
    <path d="M0,0 A30 25 0 0 1 0,25" class="cell_$abc$92$auto$blifparse.cc:371:parse_blif$106"/>
    <g s:x="3" s:y="5" s:pid="A"/>
    <g s:x="3" s:y="20" s:pid="B"/>
    <g s:x="30" s:y="12.5" s:pid="Y"/>
  </g>
  <g s:type="not" transform="translate(494,145)" s:width="30" s:height="20" id="cell_$abc$92$auto$blifparse.cc:371:parse_blif$107">
    <s:alias val="$_NOT_"/>
    <s:alias val="$not"/>
    <s:alias val="$logic_not"/>
    <path d="M0,0 L0,20 L20,10 Z" class="cell_$abc$92$auto$blifparse.cc:371:parse_blif$107"/>
    <circle cx="23" cy="10" r="3" class="cell_$abc$92$auto$blifparse.cc:371:parse_blif$107"/>
    <g s:x="0" s:y="10" s:pid="A"/>
    <g s:x="25" s:y="10" s:pid="Y"/>
  </g>
  <g s:type="or" transform="translate(884,121.5)" s:width="30" s:height="25" id="cell_$abc$92$auto$blifparse.cc:371:parse_blif$108">
    <s:alias val="$or"/>
    <s:alias val="$logic_or"/>
    <s:alias val="$_OR_"/>
    <path d="M0,25 L0,25 L15,25 A15 12.5 0 0 0 15,0 L0,0" class="cell_$abc$92$auto$blifparse.cc:371:parse_blif$108"/>
    <path d="M0,0 A30 25 0 0 1 0,25" class="cell_$abc$92$auto$blifparse.cc:371:parse_blif$108"/>
    <g s:x="3" s:y="5" s:pid="A"/>
    <g s:x="3" s:y="20" s:pid="B"/>
    <g s:x="30" s:y="12.5" s:pid="Y"/>
  </g>
  <g s:type="not" transform="translate(949,124)" s:width="30" s:height="20" id="cell_$abc$92$auto$blifparse.cc:371:parse_blif$109">
    <s:alias val="$_NOT_"/>
    <s:alias val="$not"/>
    <s:alias val="$logic_not"/>
    <path d="M0,0 L0,20 L20,10 Z" class="cell_$abc$92$auto$blifparse.cc:371:parse_blif$109"/>
    <circle cx="23" cy="10" r="3" class="cell_$abc$92$auto$blifparse.cc:371:parse_blif$109"/>
    <g s:x="0" s:y="10" s:pid="A"/>
    <g s:x="25" s:y="10" s:pid="Y"/>
  </g>
  <g s:type="or" transform="translate(1014,105.5)" s:width="30" s:height="25" id="cell_$abc$92$auto$blifparse.cc:371:parse_blif$110">
    <s:alias val="$or"/>
    <s:alias val="$logic_or"/>
    <s:alias val="$_OR_"/>
    <path d="M0,25 L0,25 L15,25 A15 12.5 0 0 0 15,0 L0,0" class="cell_$abc$92$auto$blifparse.cc:371:parse_blif$110"/>
    <path d="M0,0 A30 25 0 0 1 0,25" class="cell_$abc$92$auto$blifparse.cc:371:parse_blif$110"/>
    <g s:x="3" s:y="5" s:pid="A"/>
    <g s:x="3" s:y="20" s:pid="B"/>
    <g s:x="30" s:y="12.5" s:pid="Y"/>
  </g>
  <g s:type="not" transform="translate(1079,108)" s:width="30" s:height="20" id="cell_$abc$92$auto$blifparse.cc:371:parse_blif$111">
    <s:alias val="$_NOT_"/>
    <s:alias val="$not"/>
    <s:alias val="$logic_not"/>
    <path d="M0,0 L0,20 L20,10 Z" class="cell_$abc$92$auto$blifparse.cc:371:parse_blif$111"/>
    <circle cx="23" cy="10" r="3" class="cell_$abc$92$auto$blifparse.cc:371:parse_blif$111"/>
    <g s:x="0" s:y="10" s:pid="A"/>
    <g s:x="25" s:y="10" s:pid="Y"/>
  </g>
  <g s:type="or" transform="translate(559,267.5)" s:width="30" s:height="25" id="cell_$abc$92$auto$blifparse.cc:371:parse_blif$112">
    <s:alias val="$or"/>
    <s:alias val="$logic_or"/>
    <s:alias val="$_OR_"/>
    <path d="M0,25 L0,25 L15,25 A15 12.5 0 0 0 15,0 L0,0" class="cell_$abc$92$auto$blifparse.cc:371:parse_blif$112"/>
    <path d="M0,0 A30 25 0 0 1 0,25" class="cell_$abc$92$auto$blifparse.cc:371:parse_blif$112"/>
    <g s:x="3" s:y="5" s:pid="A"/>
    <g s:x="3" s:y="20" s:pid="B"/>
    <g s:x="30" s:y="12.5" s:pid="Y"/>
  </g>
  <g s:type="not" transform="translate(624,348.5)" s:width="30" s:height="20" id="cell_$abc$92$auto$blifparse.cc:371:parse_blif$113">
    <s:alias val="$_NOT_"/>
    <s:alias val="$not"/>
    <s:alias val="$logic_not"/>
    <path d="M0,0 L0,20 L20,10 Z" class="cell_$abc$92$auto$blifparse.cc:371:parse_blif$113"/>
    <circle cx="23" cy="10" r="3" class="cell_$abc$92$auto$blifparse.cc:371:parse_blif$113"/>
    <g s:x="0" s:y="10" s:pid="A"/>
    <g s:x="25" s:y="10" s:pid="Y"/>
  </g>
  <g s:type="or" transform="translate(494,396)" s:width="30" s:height="25" id="cell_$abc$92$auto$blifparse.cc:371:parse_blif$114">
    <s:alias val="$or"/>
    <s:alias val="$logic_or"/>
    <s:alias val="$_OR_"/>
    <path d="M0,25 L0,25 L15,25 A15 12.5 0 0 0 15,0 L0,0" class="cell_$abc$92$auto$blifparse.cc:371:parse_blif$114"/>
    <path d="M0,0 A30 25 0 0 1 0,25" class="cell_$abc$92$auto$blifparse.cc:371:parse_blif$114"/>
    <g s:x="3" s:y="5" s:pid="A"/>
    <g s:x="3" s:y="20" s:pid="B"/>
    <g s:x="30" s:y="12.5" s:pid="Y"/>
  </g>
  <g s:type="not" transform="translate(559,398.5)" s:width="30" s:height="20" id="cell_$abc$92$auto$blifparse.cc:371:parse_blif$115">
    <s:alias val="$_NOT_"/>
    <s:alias val="$not"/>
    <s:alias val="$logic_not"/>
    <path d="M0,0 L0,20 L20,10 Z" class="cell_$abc$92$auto$blifparse.cc:371:parse_blif$115"/>
    <circle cx="23" cy="10" r="3" class="cell_$abc$92$auto$blifparse.cc:371:parse_blif$115"/>
    <g s:x="0" s:y="10" s:pid="A"/>
    <g s:x="25" s:y="10" s:pid="Y"/>
  </g>
  <g s:type="or" transform="translate(494,456)" s:width="30" s:height="25" id="cell_$abc$92$auto$blifparse.cc:371:parse_blif$116">
    <s:alias val="$or"/>
    <s:alias val="$logic_or"/>
    <s:alias val="$_OR_"/>
    <path d="M0,25 L0,25 L15,25 A15 12.5 0 0 0 15,0 L0,0" class="cell_$abc$92$auto$blifparse.cc:371:parse_blif$116"/>
    <path d="M0,0 A30 25 0 0 1 0,25" class="cell_$abc$92$auto$blifparse.cc:371:parse_blif$116"/>
    <g s:x="3" s:y="5" s:pid="A"/>
    <g s:x="3" s:y="20" s:pid="B"/>
    <g s:x="30" s:y="12.5" s:pid="Y"/>
  </g>
  <g s:type="not" transform="translate(559,458.5)" s:width="30" s:height="20" id="cell_$abc$92$auto$blifparse.cc:371:parse_blif$117">
    <s:alias val="$_NOT_"/>
    <s:alias val="$not"/>
    <s:alias val="$logic_not"/>
    <path d="M0,0 L0,20 L20,10 Z" class="cell_$abc$92$auto$blifparse.cc:371:parse_blif$117"/>
    <circle cx="23" cy="10" r="3" class="cell_$abc$92$auto$blifparse.cc:371:parse_blif$117"/>
    <g s:x="0" s:y="10" s:pid="A"/>
    <g s:x="25" s:y="10" s:pid="Y"/>
  </g>
  <g s:type="or" transform="translate(624,403.5)" s:width="30" s:height="25" id="cell_$abc$92$auto$blifparse.cc:371:parse_blif$118">
    <s:alias val="$or"/>
    <s:alias val="$logic_or"/>
    <s:alias val="$_OR_"/>
    <path d="M0,25 L0,25 L15,25 A15 12.5 0 0 0 15,0 L0,0" class="cell_$abc$92$auto$blifparse.cc:371:parse_blif$118"/>
    <path d="M0,0 A30 25 0 0 1 0,25" class="cell_$abc$92$auto$blifparse.cc:371:parse_blif$118"/>
    <g s:x="3" s:y="5" s:pid="A"/>
    <g s:x="3" s:y="20" s:pid="B"/>
    <g s:x="30" s:y="12.5" s:pid="Y"/>
  </g>
  <g s:type="not" transform="translate(819,291)" s:width="30" s:height="20" id="cell_$abc$92$auto$blifparse.cc:371:parse_blif$119">
    <s:alias val="$_NOT_"/>
    <s:alias val="$not"/>
    <s:alias val="$logic_not"/>
    <path d="M0,0 L0,20 L20,10 Z" class="cell_$abc$92$auto$blifparse.cc:371:parse_blif$119"/>
    <circle cx="23" cy="10" r="3" class="cell_$abc$92$auto$blifparse.cc:371:parse_blif$119"/>
    <g s:x="0" s:y="10" s:pid="A"/>
    <g s:x="25" s:y="10" s:pid="Y"/>
  </g>
  <g s:type="or" transform="translate(689,353.5)" s:width="30" s:height="25" id="cell_$abc$92$auto$blifparse.cc:371:parse_blif$120">
    <s:alias val="$or"/>
    <s:alias val="$logic_or"/>
    <s:alias val="$_OR_"/>
    <path d="M0,25 L0,25 L15,25 A15 12.5 0 0 0 15,0 L0,0" class="cell_$abc$92$auto$blifparse.cc:371:parse_blif$120"/>
    <path d="M0,0 A30 25 0 0 1 0,25" class="cell_$abc$92$auto$blifparse.cc:371:parse_blif$120"/>
    <g s:x="3" s:y="5" s:pid="A"/>
    <g s:x="3" s:y="20" s:pid="B"/>
    <g s:x="30" s:y="12.5" s:pid="Y"/>
  </g>
  <g s:type="not" transform="translate(754,356)" s:width="30" s:height="20" id="cell_$abc$92$auto$blifparse.cc:371:parse_blif$121">
    <s:alias val="$_NOT_"/>
    <s:alias val="$not"/>
    <s:alias val="$logic_not"/>
    <path d="M0,0 L0,20 L20,10 Z" class="cell_$abc$92$auto$blifparse.cc:371:parse_blif$121"/>
    <circle cx="23" cy="10" r="3" class="cell_$abc$92$auto$blifparse.cc:371:parse_blif$121"/>
    <g s:x="0" s:y="10" s:pid="A"/>
    <g s:x="25" s:y="10" s:pid="Y"/>
  </g>
  <g s:type="or" transform="translate(884,275)" s:width="30" s:height="25" id="cell_$abc$92$auto$blifparse.cc:371:parse_blif$122">
    <s:alias val="$or"/>
    <s:alias val="$logic_or"/>
    <s:alias val="$_OR_"/>
    <path d="M0,25 L0,25 L15,25 A15 12.5 0 0 0 15,0 L0,0" class="cell_$abc$92$auto$blifparse.cc:371:parse_blif$122"/>
    <path d="M0,0 A30 25 0 0 1 0,25" class="cell_$abc$92$auto$blifparse.cc:371:parse_blif$122"/>
    <g s:x="3" s:y="5" s:pid="A"/>
    <g s:x="3" s:y="20" s:pid="B"/>
    <g s:x="30" s:y="12.5" s:pid="Y"/>
  </g>
  <g s:type="not" transform="translate(949,277.5)" s:width="30" s:height="20" id="cell_$abc$92$auto$blifparse.cc:371:parse_blif$123">
    <s:alias val="$_NOT_"/>
    <s:alias val="$not"/>
    <s:alias val="$logic_not"/>
    <path d="M0,0 L0,20 L20,10 Z" class="cell_$abc$92$auto$blifparse.cc:371:parse_blif$123"/>
    <circle cx="23" cy="10" r="3" class="cell_$abc$92$auto$blifparse.cc:371:parse_blif$123"/>
    <g s:x="0" s:y="10" s:pid="A"/>
    <g s:x="25" s:y="10" s:pid="Y"/>
  </g>
  <g s:type="or" transform="translate(1014,220)" s:width="30" s:height="25" id="cell_$abc$92$auto$blifparse.cc:371:parse_blif$124">
    <s:alias val="$or"/>
    <s:alias val="$logic_or"/>
    <s:alias val="$_OR_"/>
    <path d="M0,25 L0,25 L15,25 A15 12.5 0 0 0 15,0 L0,0" class="cell_$abc$92$auto$blifparse.cc:371:parse_blif$124"/>
    <path d="M0,0 A30 25 0 0 1 0,25" class="cell_$abc$92$auto$blifparse.cc:371:parse_blif$124"/>
    <g s:x="3" s:y="5" s:pid="A"/>
    <g s:x="3" s:y="20" s:pid="B"/>
    <g s:x="30" s:y="12.5" s:pid="Y"/>
  </g>
  <g s:type="not" transform="translate(1079,222.5)" s:width="30" s:height="20" id="cell_$abc$92$auto$blifparse.cc:371:parse_blif$125">
    <s:alias val="$_NOT_"/>
    <s:alias val="$not"/>
    <s:alias val="$logic_not"/>
    <path d="M0,0 L0,20 L20,10 Z" class="cell_$abc$92$auto$blifparse.cc:371:parse_blif$125"/>
    <circle cx="23" cy="10" r="3" class="cell_$abc$92$auto$blifparse.cc:371:parse_blif$125"/>
    <g s:x="0" s:y="10" s:pid="A"/>
    <g s:x="25" s:y="10" s:pid="Y"/>
  </g>
  <g s:type="or" transform="translate(819,346)" s:width="30" s:height="25" id="cell_$abc$92$auto$blifparse.cc:371:parse_blif$126">
    <s:alias val="$or"/>
    <s:alias val="$logic_or"/>
    <s:alias val="$_OR_"/>
    <path d="M0,25 L0,25 L15,25 A15 12.5 0 0 0 15,0 L0,0" class="cell_$abc$92$auto$blifparse.cc:371:parse_blif$126"/>
    <path d="M0,0 A30 25 0 0 1 0,25" class="cell_$abc$92$auto$blifparse.cc:371:parse_blif$126"/>
    <g s:x="3" s:y="5" s:pid="A"/>
    <g s:x="3" s:y="20" s:pid="B"/>
    <g s:x="30" s:y="12.5" s:pid="Y"/>
  </g>
  <g s:type="not" transform="translate(884,348.5)" s:width="30" s:height="20" id="cell_$abc$92$auto$blifparse.cc:371:parse_blif$127">
    <s:alias val="$_NOT_"/>
    <s:alias val="$not"/>
    <s:alias val="$logic_not"/>
    <path d="M0,0 L0,20 L20,10 Z" class="cell_$abc$92$auto$blifparse.cc:371:parse_blif$127"/>
    <circle cx="23" cy="10" r="3" class="cell_$abc$92$auto$blifparse.cc:371:parse_blif$127"/>
    <g s:x="0" s:y="10" s:pid="A"/>
    <g s:x="25" s:y="10" s:pid="Y"/>
  </g>
  <g s:type="or" transform="translate(689,531)" s:width="30" s:height="25" id="cell_$abc$92$auto$blifparse.cc:371:parse_blif$128">
    <s:alias val="$or"/>
    <s:alias val="$logic_or"/>
    <s:alias val="$_OR_"/>
    <path d="M0,25 L0,25 L15,25 A15 12.5 0 0 0 15,0 L0,0" class="cell_$abc$92$auto$blifparse.cc:371:parse_blif$128"/>
    <path d="M0,0 A30 25 0 0 1 0,25" class="cell_$abc$92$auto$blifparse.cc:371:parse_blif$128"/>
    <g s:x="3" s:y="5" s:pid="A"/>
    <g s:x="3" s:y="20" s:pid="B"/>
    <g s:x="30" s:y="12.5" s:pid="Y"/>
  </g>
  <g s:type="not" transform="translate(754,533.5)" s:width="30" s:height="20" id="cell_$abc$92$auto$blifparse.cc:371:parse_blif$129">
    <s:alias val="$_NOT_"/>
    <s:alias val="$not"/>
    <s:alias val="$logic_not"/>
    <path d="M0,0 L0,20 L20,10 Z" class="cell_$abc$92$auto$blifparse.cc:371:parse_blif$129"/>
    <circle cx="23" cy="10" r="3" class="cell_$abc$92$auto$blifparse.cc:371:parse_blif$129"/>
    <g s:x="0" s:y="10" s:pid="A"/>
    <g s:x="25" s:y="10" s:pid="Y"/>
  </g>
  <g s:type="or" transform="translate(689,606)" s:width="30" s:height="25" id="cell_$abc$92$auto$blifparse.cc:371:parse_blif$130">
    <s:alias val="$or"/>
    <s:alias val="$logic_or"/>
    <s:alias val="$_OR_"/>
    <path d="M0,25 L0,25 L15,25 A15 12.5 0 0 0 15,0 L0,0" class="cell_$abc$92$auto$blifparse.cc:371:parse_blif$130"/>
    <path d="M0,0 A30 25 0 0 1 0,25" class="cell_$abc$92$auto$blifparse.cc:371:parse_blif$130"/>
    <g s:x="3" s:y="5" s:pid="A"/>
    <g s:x="3" s:y="20" s:pid="B"/>
    <g s:x="30" s:y="12.5" s:pid="Y"/>
  </g>
  <g s:type="not" transform="translate(754,608.5)" s:width="30" s:height="20" id="cell_$abc$92$auto$blifparse.cc:371:parse_blif$131">
    <s:alias val="$_NOT_"/>
    <s:alias val="$not"/>
    <s:alias val="$logic_not"/>
    <path d="M0,0 L0,20 L20,10 Z" class="cell_$abc$92$auto$blifparse.cc:371:parse_blif$131"/>
    <circle cx="23" cy="10" r="3" class="cell_$abc$92$auto$blifparse.cc:371:parse_blif$131"/>
    <g s:x="0" s:y="10" s:pid="A"/>
    <g s:x="25" s:y="10" s:pid="Y"/>
  </g>
  <g s:type="or" transform="translate(819,538.5)" s:width="30" s:height="25" id="cell_$abc$92$auto$blifparse.cc:371:parse_blif$132">
    <s:alias val="$or"/>
    <s:alias val="$logic_or"/>
    <s:alias val="$_OR_"/>
    <path d="M0,25 L0,25 L15,25 A15 12.5 0 0 0 15,0 L0,0" class="cell_$abc$92$auto$blifparse.cc:371:parse_blif$132"/>
    <path d="M0,0 A30 25 0 0 1 0,25" class="cell_$abc$92$auto$blifparse.cc:371:parse_blif$132"/>
    <g s:x="3" s:y="5" s:pid="A"/>
    <g s:x="3" s:y="20" s:pid="B"/>
    <g s:x="30" s:y="12.5" s:pid="Y"/>
  </g>
  <g s:type="not" transform="translate(884,541)" s:width="30" s:height="20" id="cell_$abc$92$auto$blifparse.cc:371:parse_blif$133">
    <s:alias val="$_NOT_"/>
    <s:alias val="$not"/>
    <s:alias val="$logic_not"/>
    <path d="M0,0 L0,20 L20,10 Z" class="cell_$abc$92$auto$blifparse.cc:371:parse_blif$133"/>
    <circle cx="23" cy="10" r="3" class="cell_$abc$92$auto$blifparse.cc:371:parse_blif$133"/>
    <g s:x="0" s:y="10" s:pid="A"/>
    <g s:x="25" s:y="10" s:pid="Y"/>
  </g>
  <g s:type="or" transform="translate(949,566)" s:width="30" s:height="25" id="cell_$abc$92$auto$blifparse.cc:371:parse_blif$134">
    <s:alias val="$or"/>
    <s:alias val="$logic_or"/>
    <s:alias val="$_OR_"/>
    <path d="M0,25 L0,25 L15,25 A15 12.5 0 0 0 15,0 L0,0" class="cell_$abc$92$auto$blifparse.cc:371:parse_blif$134"/>
    <path d="M0,0 A30 25 0 0 1 0,25" class="cell_$abc$92$auto$blifparse.cc:371:parse_blif$134"/>
    <g s:x="3" s:y="5" s:pid="A"/>
    <g s:x="3" s:y="20" s:pid="B"/>
    <g s:x="30" s:y="12.5" s:pid="Y"/>
  </g>
  <g s:type="not" transform="translate(1014,568.5)" s:width="30" s:height="20" id="cell_$abc$92$auto$blifparse.cc:371:parse_blif$135">
    <s:alias val="$_NOT_"/>
    <s:alias val="$not"/>
    <s:alias val="$logic_not"/>
    <path d="M0,0 L0,20 L20,10 Z" class="cell_$abc$92$auto$blifparse.cc:371:parse_blif$135"/>
    <circle cx="23" cy="10" r="3" class="cell_$abc$92$auto$blifparse.cc:371:parse_blif$135"/>
    <g s:x="0" s:y="10" s:pid="A"/>
    <g s:x="25" s:y="10" s:pid="Y"/>
  </g>
  <g s:type="or" transform="translate(949,353.5)" s:width="30" s:height="25" id="cell_$abc$92$auto$blifparse.cc:371:parse_blif$136">
    <s:alias val="$or"/>
    <s:alias val="$logic_or"/>
    <s:alias val="$_OR_"/>
    <path d="M0,25 L0,25 L15,25 A15 12.5 0 0 0 15,0 L0,0" class="cell_$abc$92$auto$blifparse.cc:371:parse_blif$136"/>
    <path d="M0,0 A30 25 0 0 1 0,25" class="cell_$abc$92$auto$blifparse.cc:371:parse_blif$136"/>
    <g s:x="3" s:y="5" s:pid="A"/>
    <g s:x="3" s:y="20" s:pid="B"/>
    <g s:x="30" s:y="12.5" s:pid="Y"/>
  </g>
  <g s:type="not" transform="translate(1014,356)" s:width="30" s:height="20" id="cell_$abc$92$auto$blifparse.cc:371:parse_blif$137">
    <s:alias val="$_NOT_"/>
    <s:alias val="$not"/>
    <s:alias val="$logic_not"/>
    <path d="M0,0 L0,20 L20,10 Z" class="cell_$abc$92$auto$blifparse.cc:371:parse_blif$137"/>
    <circle cx="23" cy="10" r="3" class="cell_$abc$92$auto$blifparse.cc:371:parse_blif$137"/>
    <g s:x="0" s:y="10" s:pid="A"/>
    <g s:x="25" s:y="10" s:pid="Y"/>
  </g>
  <g s:type="or" transform="translate(1079,346)" s:width="30" s:height="25" id="cell_$abc$92$auto$blifparse.cc:371:parse_blif$138">
    <s:alias val="$or"/>
    <s:alias val="$logic_or"/>
    <s:alias val="$_OR_"/>
    <path d="M0,25 L0,25 L15,25 A15 12.5 0 0 0 15,0 L0,0" class="cell_$abc$92$auto$blifparse.cc:371:parse_blif$138"/>
    <path d="M0,0 A30 25 0 0 1 0,25" class="cell_$abc$92$auto$blifparse.cc:371:parse_blif$138"/>
    <g s:x="3" s:y="5" s:pid="A"/>
    <g s:x="3" s:y="20" s:pid="B"/>
    <g s:x="30" s:y="12.5" s:pid="Y"/>
  </g>
  <g s:type="or" transform="translate(1079,558.5)" s:width="30" s:height="25" id="cell_$abc$92$auto$blifparse.cc:371:parse_blif$139">
    <s:alias val="$or"/>
    <s:alias val="$logic_or"/>
    <s:alias val="$_OR_"/>
    <path d="M0,25 L0,25 L15,25 A15 12.5 0 0 0 15,0 L0,0" class="cell_$abc$92$auto$blifparse.cc:371:parse_blif$139"/>
    <path d="M0,0 A30 25 0 0 1 0,25" class="cell_$abc$92$auto$blifparse.cc:371:parse_blif$139"/>
    <g s:x="3" s:y="5" s:pid="A"/>
    <g s:x="3" s:y="20" s:pid="B"/>
    <g s:x="30" s:y="12.5" s:pid="Y"/>
  </g>
  <g s:type="not" transform="translate(169,255)" s:width="30" s:height="20" id="cell_$abc$92$auto$blifparse.cc:371:parse_blif$93">
    <s:alias val="$_NOT_"/>
    <s:alias val="$not"/>
    <s:alias val="$logic_not"/>
    <path d="M0,0 L0,20 L20,10 Z" class="cell_$abc$92$auto$blifparse.cc:371:parse_blif$93"/>
    <circle cx="23" cy="10" r="3" class="cell_$abc$92$auto$blifparse.cc:371:parse_blif$93"/>
    <g s:x="0" s:y="10" s:pid="A"/>
    <g s:x="25" s:y="10" s:pid="Y"/>
  </g>
  <g s:type="not" transform="translate(169,310)" s:width="30" s:height="20" id="cell_$abc$92$auto$blifparse.cc:371:parse_blif$94">
    <s:alias val="$_NOT_"/>
    <s:alias val="$not"/>
    <s:alias val="$logic_not"/>
    <path d="M0,0 L0,20 L20,10 Z" class="cell_$abc$92$auto$blifparse.cc:371:parse_blif$94"/>
    <circle cx="23" cy="10" r="3" class="cell_$abc$92$auto$blifparse.cc:371:parse_blif$94"/>
    <g s:x="0" s:y="10" s:pid="A"/>
    <g s:x="25" s:y="10" s:pid="Y"/>
  </g>
  <g s:type="not" transform="translate(364,137.5)" s:width="30" s:height="20" id="cell_$abc$92$auto$blifparse.cc:371:parse_blif$95">
    <s:alias val="$_NOT_"/>
    <s:alias val="$not"/>
    <s:alias val="$logic_not"/>
    <path d="M0,0 L0,20 L20,10 Z" class="cell_$abc$92$auto$blifparse.cc:371:parse_blif$95"/>
    <circle cx="23" cy="10" r="3" class="cell_$abc$92$auto$blifparse.cc:371:parse_blif$95"/>
    <g s:x="0" s:y="10" s:pid="A"/>
    <g s:x="25" s:y="10" s:pid="Y"/>
  </g>
  <g s:type="not" transform="translate(429,451)" s:width="30" s:height="20" id="cell_$abc$92$auto$blifparse.cc:371:parse_blif$96">
    <s:alias val="$_NOT_"/>
    <s:alias val="$not"/>
    <s:alias val="$logic_not"/>
    <path d="M0,0 L0,20 L20,10 Z" class="cell_$abc$92$auto$blifparse.cc:371:parse_blif$96"/>
    <circle cx="23" cy="10" r="3" class="cell_$abc$92$auto$blifparse.cc:371:parse_blif$96"/>
    <g s:x="0" s:y="10" s:pid="A"/>
    <g s:x="25" s:y="10" s:pid="Y"/>
  </g>
  <g s:type="not" transform="translate(429,506)" s:width="30" s:height="20" id="cell_$abc$92$auto$blifparse.cc:371:parse_blif$97">
    <s:alias val="$_NOT_"/>
    <s:alias val="$not"/>
    <s:alias val="$logic_not"/>
    <path d="M0,0 L0,20 L20,10 Z" class="cell_$abc$92$auto$blifparse.cc:371:parse_blif$97"/>
    <circle cx="23" cy="10" r="3" class="cell_$abc$92$auto$blifparse.cc:371:parse_blif$97"/>
    <g s:x="0" s:y="10" s:pid="A"/>
    <g s:x="25" s:y="10" s:pid="Y"/>
  </g>
  <g s:type="not" transform="translate(624,526)" s:width="30" s:height="20" id="cell_$abc$92$auto$blifparse.cc:371:parse_blif$98">
    <s:alias val="$_NOT_"/>
    <s:alias val="$not"/>
    <s:alias val="$logic_not"/>
    <path d="M0,0 L0,20 L20,10 Z" class="cell_$abc$92$auto$blifparse.cc:371:parse_blif$98"/>
    <circle cx="23" cy="10" r="3" class="cell_$abc$92$auto$blifparse.cc:371:parse_blif$98"/>
    <g s:x="0" s:y="10" s:pid="A"/>
    <g s:x="25" s:y="10" s:pid="Y"/>
  </g>
  <g s:type="not" transform="translate(624,581)" s:width="30" s:height="20" id="cell_$abc$92$auto$blifparse.cc:371:parse_blif$99">
    <s:alias val="$_NOT_"/>
    <s:alias val="$not"/>
    <s:alias val="$logic_not"/>
    <path d="M0,0 L0,20 L20,10 Z" class="cell_$abc$92$auto$blifparse.cc:371:parse_blif$99"/>
    <circle cx="23" cy="10" r="3" class="cell_$abc$92$auto$blifparse.cc:371:parse_blif$99"/>
    <g s:x="0" s:y="10" s:pid="A"/>
    <g s:x="25" s:y="10" s:pid="Y"/>
  </g>
  <g s:type="inputExt" transform="translate(12,376)" s:width="30" s:height="20" id="cell_A">
    <text x="15" y="-4" class="nodelabel cell_A" s:attribute="ref">A</text>
    <s:alias val="$_inputExt_"/>
    <path d="M0,0 L0,20 L15,20 L30,10 L15,0 Z" class="cell_A"/>
    <g s:x="28" s:y="10" s:pid="Y"/>
  </g>
  <g s:type="inputExt" transform="translate(12,516)" s:width="30" s:height="20" id="cell_B">
    <text x="15" y="-4" class="nodelabel cell_B" s:attribute="ref">B</text>
    <s:alias val="$_inputExt_"/>
    <path d="M0,0 L0,20 L15,20 L30,10 L15,0 Z" class="cell_B"/>
    <g s:x="28" s:y="10" s:pid="Y"/>
  </g>
  <g s:type="outputExt" transform="translate(1187,34.5)" s:width="30" s:height="20" id="cell_O">
    <text x="15" y="-4" class="nodelabel cell_O" s:attribute="ref">O</text>
    <s:alias val="$_outputExt_"/>
    <path d="M30,0 L30,20 L15,20 L0,10 L15,0 Z" class="cell_O"/>
    <g s:x="0" s:y="10" s:pid="A"/>
  </g>
  <g s:type="join" transform="translate(1144,24)" s:width="4" s:height="40" id="cell_$join$,5,5,4,13,14,18,19,20,21,">
    <rect width="5" height="160" class="splitjoinBody" s:generic="body"/>
    <s:alias val="$_join_"/>
    <g s:x="5" s:y="20" s:pid="out"/>
    <g transform="translate(0,10)" s:x="0" s:y="10" s:pid="in0">
      <text x="-3" y="-4" class="inputPortLabel">0</text>
    </g>
    <g transform="translate(0,30)" s:x="0" s:y="10" s:pid="in0">
      <text x="-3" y="-4" class="inputPortLabel">1</text>
    </g>
    <g transform="translate(0,50)" s:x="0" s:y="10" s:pid="in0">
      <text x="-3" y="-4" class="inputPortLabel">2</text>
    </g>
    <g transform="translate(0,70)" s:x="0" s:y="10" s:pid="in0">
      <text x="-3" y="-4" class="inputPortLabel">3:4</text>
    </g>
    <g transform="translate(0,90)" s:x="0" s:y="10" s:pid="in0">
      <text x="-3" y="-4" class="inputPortLabel">5</text>
    </g>
    <g transform="translate(0,110)" s:x="0" s:y="10" s:pid="in0">
      <text x="-3" y="-4" class="inputPortLabel">6</text>
    </g>
    <g transform="translate(0,130)" s:x="0" s:y="10" s:pid="in0">
      <text x="-3" y="-4" class="inputPortLabel">7</text>
    </g>
    <g transform="translate(0,150)" s:x="0" s:y="10" s:pid="in0">
      <text x="-3" y="-4" class="inputPortLabel">8</text>
    </g>
  </g>
  <g s:type="split" transform="translate(77,505.5)" s:width="5" s:height="40" id="cell_$split$,10,11,12,13,14,15,16,17,">
    <rect width="5" height="80" class="splitjoinBody" s:generic="body"/>
    <s:alias val="$_split_"/>
    <g s:x="0" s:y="20" s:pid="in"/>
    <g transform="translate(4,10)" s:x="4" s:y="10" s:pid="out0">
      <text x="5" y="-4">5</text>
    </g>
    <g transform="translate(4,30)" s:x="4" s:y="10" s:pid="out0">
      <text x="5" y="-4">6</text>
    </g>
    <g transform="translate(4,50)" s:x="4" s:y="10" s:pid="out0">
      <text x="5" y="-4">7</text>
    </g>
    <g transform="translate(4,70)" s:x="4" s:y="10" s:pid="out0">
      <text x="5" y="-4">3:4</text>
    </g>
  </g>
  <g s:type="split" transform="translate(77,365.5)" s:width="5" s:height="40" id="cell_$split$,2,3,4,5,6,7,8,9,">
    <rect width="5" height="120" class="splitjoinBody" s:generic="body"/>
    <s:alias val="$_split_"/>
    <g s:x="0" s:y="20" s:pid="in"/>
    <g transform="translate(4,10)" s:x="4" s:y="10" s:pid="out0">
      <text x="5" y="-4">5</text>
    </g>
    <g transform="translate(4,30)" s:x="4" s:y="10" s:pid="out0">
      <text x="5" y="-4">4</text>
    </g>
    <g transform="translate(4,50)" s:x="4" s:y="10" s:pid="out0">
      <text x="5" y="-4">6</text>
    </g>
    <g transform="translate(4,70)" s:x="4" s:y="10" s:pid="out0">
      <text x="5" y="-4">7</text>
    </g>
    <g transform="translate(4,90)" s:x="4" s:y="10" s:pid="out0">
      <text x="5" y="-4">3</text>
    </g>
    <g transform="translate(4,110)" s:x="4" s:y="10" s:pid="out0">
      <text x="5" y="-4">2</text>
    </g>
  </g>
  <line x1="194" x2="237" y1="265" y2="265" class="net_22"/>
  <line x1="194" x2="209" y1="320" y2="320" class="net_23"/>
  <line x1="209" x2="209" y1="320" y2="280" class="net_23"/>
  <line x1="209" x2="237" y1="280" y2="280" class="net_23"/>
  <line x1="264" x2="299" y1="272.5" y2="272.5" class="net_24"/>
  <line x1="82" x2="139" y1="516" y2="516" class="net_15"/>
  <line x1="139" x2="139" y1="516" y2="205" class="net_15"/>
  <line x1="139" x2="237" y1="205" y2="205" class="net_15"/>
  <line x1="82" x2="139" y1="516" y2="516" class="net_15"/>
  <line x1="139" x2="139" y1="516" y2="265" class="net_15"/>
  <circle cx="139" cy="265" r="2" style="fill:#000" class="net_15"/>
  <line x1="139" x2="169" y1="265" y2="265" class="net_15"/>
  <line x1="81.5" x2="81.5" y1="375.5" y2="220" class="net_7"/>
  <line x1="81.5" x2="237" y1="220" y2="220" class="net_7"/>
  <line x1="81.5" x2="81.5" y1="375.5" y2="220" class="net_7"/>
  <line x1="81.5" x2="149" y1="220" y2="220" class="net_7"/>
  <line x1="149" x2="149" y1="220" y2="320" class="net_7"/>
  <circle cx="149" cy="220" r="2" style="fill:#000" class="net_7"/>
  <line x1="149" x2="169" y1="320" y2="320" class="net_7"/>
  <line x1="264" x2="299" y1="212.5" y2="212.5" class="net_26"/>
  <line x1="324" x2="339" y1="272.5" y2="272.5" class="net_25"/>
  <line x1="339" x2="339" y1="272.5" y2="197.5" class="net_25"/>
  <circle cx="339" cy="272.5" r="2" style="fill:#000" class="net_25"/>
  <line x1="339" x2="367" y1="197.5" y2="197.5" class="net_25"/>
  <line x1="324" x2="562" y1="272.5" y2="272.5" class="net_25"/>
  <line x1="324" x2="367" y1="212.5" y2="212.5" class="net_27"/>
  <line x1="394" x2="819" y1="205" y2="205" class="net_28"/>
  <line x1="394" x2="404" y1="205" y2="205" class="net_28"/>
  <line x1="404" x2="404" y1="205" y2="162.5" class="net_28"/>
  <circle cx="404" cy="205" r="2" style="fill:#000" class="net_28"/>
  <line x1="404" x2="432" y1="162.5" y2="162.5" class="net_28"/>
  <line x1="389" x2="432" y1="147.5" y2="147.5" class="net_30"/>
  <line x1="459" x2="494" y1="155" y2="155" class="net_31"/>
  <line x1="82" x2="99" y1="396" y2="396" class="net_6"/>
  <line x1="99" x2="99" y1="396" y2="126.5" class="net_6"/>
  <line x1="99" x2="887" y1="126.5" y2="126.5" class="net_6"/>
  <line x1="82" x2="99" y1="396" y2="396" class="net_6"/>
  <line x1="99" x2="99" y1="396" y2="126.5" class="net_6"/>
  <line x1="99" x2="339" y1="126.5" y2="126.5" class="net_6"/>
  <line x1="339" x2="339" y1="126.5" y2="147.5" class="net_6"/>
  <circle cx="339" cy="126.5" r="2" style="fill:#000" class="net_6"/>
  <line x1="339" x2="364" y1="147.5" y2="147.5" class="net_6"/>
  <line x1="844" x2="859" y1="205" y2="205" class="net_29"/>
  <line x1="859" x2="859" y1="205" y2="141.5" class="net_29"/>
  <line x1="859" x2="887" y1="141.5" y2="141.5" class="net_29"/>
  <line x1="914" x2="949" y1="134" y2="134" class="net_33"/>
  <line x1="519" x2="534" y1="155" y2="155" class="net_32"/>
  <line x1="534" x2="534" y1="155" y2="110.5" class="net_32"/>
  <circle cx="534" cy="155" r="2" style="fill:#000" class="net_32"/>
  <line x1="534" x2="1017" y1="110.5" y2="110.5" class="net_32"/>
  <line x1="519" x2="534" y1="155" y2="155" class="net_32"/>
  <line x1="534" x2="534" y1="155" y2="287.5" class="net_32"/>
  <line x1="534" x2="562" y1="287.5" y2="287.5" class="net_32"/>
  <line x1="974" x2="989" y1="134" y2="134" class="net_34"/>
  <line x1="989" x2="989" y1="134" y2="125.5" class="net_34"/>
  <line x1="989" x2="1017" y1="125.5" y2="125.5" class="net_34"/>
  <line x1="1044" x2="1079" y1="118" y2="118" class="net_35"/>
  <line x1="589" x2="599" y1="280" y2="280" class="net_36"/>
  <line x1="599" x2="599" y1="280" y2="358.5" class="net_36"/>
  <circle cx="599" cy="280" r="2" style="fill:#000" class="net_36"/>
  <line x1="599" x2="624" y1="358.5" y2="358.5" class="net_36"/>
  <line x1="589" x2="887" y1="280" y2="280" class="net_36"/>
  <line x1="82" x2="149" y1="536" y2="536" class="net_16"/>
  <line x1="149" x2="149" y1="536" y2="401" class="net_16"/>
  <line x1="149" x2="497" y1="401" y2="401" class="net_16"/>
  <line x1="82" x2="149" y1="536" y2="536" class="net_16"/>
  <line x1="149" x2="149" y1="536" y2="461" class="net_16"/>
  <circle cx="149" cy="461" r="2" style="fill:#000" class="net_16"/>
  <line x1="149" x2="429" y1="461" y2="461" class="net_16"/>
  <line x1="82" x2="497" y1="416" y2="416" class="net_8"/>
  <line x1="82" x2="159" y1="416" y2="416" class="net_8"/>
  <line x1="159" x2="159" y1="416" y2="516" class="net_8"/>
  <circle cx="159" cy="416" r="2" style="fill:#000" class="net_8"/>
  <line x1="159" x2="429" y1="516" y2="516" class="net_8"/>
  <line x1="524" x2="559" y1="408.5" y2="408.5" class="net_38"/>
  <line x1="454" x2="497" y1="461" y2="461" class="net_40"/>
  <line x1="454" x2="469" y1="516" y2="516" class="net_41"/>
  <line x1="469" x2="469" y1="516" y2="476" class="net_41"/>
  <line x1="469" x2="497" y1="476" y2="476" class="net_41"/>
  <line x1="524" x2="559" y1="468.5" y2="468.5" class="net_42"/>
  <line x1="584" x2="627" y1="408.5" y2="408.5" class="net_39"/>
  <line x1="584" x2="599" y1="468.5" y2="468.5" class="net_43"/>
  <line x1="599" x2="599" y1="468.5" y2="423.5" class="net_43"/>
  <circle cx="599" cy="468.5" r="2" style="fill:#000" class="net_43"/>
  <line x1="599" x2="627" y1="423.5" y2="423.5" class="net_43"/>
  <line x1="584" x2="804" y1="468.5" y2="468.5" class="net_43"/>
  <line x1="804" x2="804" y1="468.5" y2="351" class="net_43"/>
  <line x1="804" x2="822" y1="351" y2="351" class="net_43"/>
  <line x1="654" x2="664" y1="416" y2="416" class="net_44"/>
  <line x1="664" x2="664" y1="416" y2="301" class="net_44"/>
  <line x1="664" x2="819" y1="301" y2="301" class="net_44"/>
  <line x1="654" x2="664" y1="416" y2="416" class="net_44"/>
  <line x1="664" x2="664" y1="416" y2="373.5" class="net_44"/>
  <circle cx="664" cy="373.5" r="2" style="fill:#000" class="net_44"/>
  <line x1="664" x2="692" y1="373.5" y2="373.5" class="net_44"/>
  <line x1="649" x2="692" y1="358.5" y2="358.5" class="net_37"/>
  <line x1="719" x2="754" y1="366" y2="366" class="net_46"/>
  <line x1="844" x2="859" y1="301" y2="301" class="net_45"/>
  <line x1="859" x2="859" y1="301" y2="295" class="net_45"/>
  <line x1="859" x2="887" y1="295" y2="295" class="net_45"/>
  <line x1="914" x2="949" y1="287.5" y2="287.5" class="net_48"/>
  <line x1="779" x2="794" y1="366" y2="366" class="net_47"/>
  <line x1="794" x2="794" y1="366" y2="225" class="net_47"/>
  <circle cx="794" cy="366" r="2" style="fill:#000" class="net_47"/>
  <line x1="794" x2="1017" y1="225" y2="225" class="net_47"/>
  <line x1="779" x2="822" y1="366" y2="366" class="net_47"/>
  <line x1="974" x2="989" y1="287.5" y2="287.5" class="net_49"/>
  <line x1="989" x2="989" y1="287.5" y2="240" class="net_49"/>
  <line x1="989" x2="1017" y1="240" y2="240" class="net_49"/>
  <line x1="1044" x2="1079" y1="232.5" y2="232.5" class="net_50"/>
  <line x1="849" x2="884" y1="358.5" y2="358.5" class="net_51"/>
  <line x1="849" x2="869" y1="358.5" y2="358.5" class="net_51"/>
  <line x1="869" x2="869" y1="358.5" y2="571" class="net_51"/>
  <circle cx="869" cy="358.5" r="2" style="fill:#000" class="net_51"/>
  <line x1="869" x2="952" y1="571" y2="571" class="net_51"/>
  <line x1="649" x2="692" y1="536" y2="536" class="net_53"/>
  <line x1="649" x2="664" y1="591" y2="591" class="net_54"/>
  <line x1="664" x2="664" y1="591" y2="551" class="net_54"/>
  <line x1="664" x2="692" y1="551" y2="551" class="net_54"/>
  <line x1="719" x2="754" y1="543.5" y2="543.5" class="net_55"/>
  <line x1="82" x2="159" y1="556" y2="556" class="net_17"/>
  <line x1="159" x2="159" y1="556" y2="611" class="net_17"/>
  <circle cx="159" cy="556" r="2" style="fill:#000" class="net_17"/>
  <line x1="159" x2="692" y1="611" y2="611" class="net_17"/>
  <line x1="82" x2="159" y1="556" y2="556" class="net_17"/>
  <line x1="159" x2="159" y1="556" y2="536" class="net_17"/>
  <line x1="159" x2="624" y1="536" y2="536" class="net_17"/>
  <line x1="82" x2="99" y1="436" y2="436" class="net_9"/>
  <line x1="99" x2="99" y1="436" y2="626" class="net_9"/>
  <line x1="99" x2="692" y1="626" y2="626" class="net_9"/>
  <line x1="82" x2="99" y1="436" y2="436" class="net_9"/>
  <line x1="99" x2="99" y1="436" y2="591" class="net_9"/>
  <circle cx="99" cy="591" r="2" style="fill:#000" class="net_9"/>
  <line x1="99" x2="624" y1="591" y2="591" class="net_9"/>
  <line x1="719" x2="754" y1="618.5" y2="618.5" class="net_57"/>
  <line x1="779" x2="822" y1="543.5" y2="543.5" class="net_56"/>
  <line x1="779" x2="804" y1="543.5" y2="543.5" class="net_56"/>
  <line x1="804" x2="804" y1="543.5" y2="601" class="net_56"/>
  <line x1="804" x2="1064" y1="601" y2="601" class="net_56"/>
  <line x1="1064" x2="1064" y1="601" y2="563.5" class="net_56"/>
  <circle cx="804" cy="543.5" r="2" style="fill:#000" class="net_56"/>
  <line x1="1064" x2="1082" y1="563.5" y2="563.5" class="net_56"/>
  <line x1="779" x2="794" y1="618.5" y2="618.5" class="net_58"/>
  <line x1="794" x2="794" y1="618.5" y2="558.5" class="net_58"/>
  <line x1="794" x2="822" y1="558.5" y2="558.5" class="net_58"/>
  <line x1="849" x2="884" y1="551" y2="551" class="net_59"/>
  <line x1="849" x2="859" y1="551" y2="551" class="net_59"/>
  <line x1="859" x2="859" y1="551" y2="586" class="net_59"/>
  <circle cx="859" cy="551" r="2" style="fill:#000" class="net_59"/>
  <line x1="859" x2="952" y1="586" y2="586" class="net_59"/>
  <line x1="979" x2="1014" y1="578.5" y2="578.5" class="net_61"/>
  <line x1="909" x2="952" y1="358.5" y2="358.5" class="net_52"/>
  <line x1="909" x2="924" y1="551" y2="551" class="net_60"/>
  <line x1="924" x2="924" y1="551" y2="373.5" class="net_60"/>
  <line x1="924" x2="952" y1="373.5" y2="373.5" class="net_60"/>
  <line x1="979" x2="1014" y1="366" y2="366" class="net_63"/>
  <line x1="1039" x2="1054" y1="578.5" y2="578.5" class="net_62"/>
  <line x1="1054" x2="1054" y1="578.5" y2="351" class="net_62"/>
  <circle cx="1054" cy="578.5" r="2" style="fill:#000" class="net_62"/>
  <line x1="1054" x2="1082" y1="351" y2="351" class="net_62"/>
  <line x1="1039" x2="1082" y1="578.5" y2="578.5" class="net_62"/>
  <line x1="1039" x2="1082" y1="366" y2="366" class="net_64"/>
  <line x1="1150" x2="1187" y1="44.5" y2="44.5" class="net_5,5,4,13,14,18,19,20,21"/>
  <line x1="82" x2="109" y1="456" y2="456" class="net_5"/>
  <line x1="109" x2="109" y1="456" y2="12" class="net_5"/>
  <line x1="109" x2="1144.5" y1="12" y2="12" class="net_5"/>
  <line x1="1144.5" x2="1144.5" y1="12" y2="34" class="net_5"/>
  <line x1="82" x2="109" y1="456" y2="456" class="net_5"/>
  <line x1="109" x2="109" y1="456" y2="12" class="net_5"/>
  <line x1="109" x2="1119" y1="12" y2="12" class="net_5"/>
  <line x1="1119" x2="1119" y1="12" y2="54.5" class="net_5"/>
  <circle cx="1119" cy="12" r="2" style="fill:#000" class="net_5"/>
  <line x1="1119" x2="1144" y1="54.5" y2="54.5" class="net_5"/>
  <line x1="81.5" x2="81.5" y1="476.5" y2="495.5" class="net_4"/>
  <line x1="81.5" x2="119" y1="495.5" y2="495.5" class="net_4"/>
  <line x1="119" x2="119" y1="495.5" y2="74.5" class="net_4"/>
  <line x1="119" x2="1144" y1="74.5" y2="74.5" class="net_4"/>
  <line x1="82" x2="129" y1="576" y2="576" class="net_13,14"/>
  <line x1="129" x2="129" y1="576" y2="94.5" class="net_13,14"/>
  <line x1="129" x2="1144" y1="94.5" y2="94.5" class="net_13,14"/>
  <line x1="1104" x2="1119" y1="118" y2="118" class="net_18"/>
  <line x1="1119" x2="1119" y1="118" y2="114.5" class="net_18"/>
  <line x1="1119" x2="1144" y1="114.5" y2="114.5" class="net_18"/>
  <line x1="1104" x2="1119" y1="232.5" y2="232.5" class="net_19"/>
  <line x1="1119" x2="1119" y1="232.5" y2="134.5" class="net_19"/>
  <line x1="1119" x2="1144" y1="134.5" y2="134.5" class="net_19"/>
  <line x1="1109" x2="1129" y1="358.5" y2="358.5" class="net_20"/>
  <line x1="1129" x2="1129" y1="358.5" y2="154.5" class="net_20"/>
  <line x1="1129" x2="1144" y1="154.5" y2="154.5" class="net_20"/>
  <line x1="1109" x2="1144.5" y1="571" y2="571" class="net_21"/>
  <line x1="1144.5" x2="1144.5" y1="571" y2="175" class="net_21"/>
  <line x1="40" x2="77" y1="526" y2="526" class="net_10,11,12,13,14,15,16,17"/>
  <line x1="40" x2="77" y1="386" y2="386" class="net_2,3,4,5,6,7,8,9"/>
</svg>
